<?xml version="1.0" encoding="UTF-8"?>
<svg width="258px" height="32px" viewBox="0 0 258 32" version="1.1" xmlns="http://www.w3.org/2000/svg" xmlns:xlink="http://www.w3.org/1999/xlink">
    <!-- Generator: Sketch 63.1 (92452) - https://sketch.com -->
    <title>one.com</title>
    <desc>Created with Sketch.</desc>
    <g id="Page-1" stroke="none" stroke-width="1" fill="none" fill-rule="evenodd">
        <g id="one.com">
            <path d="M244,0 C239.818,0 236.065,1.833 233.5,4.739 C230.935,1.833 227.182,0 223,0 C215.268,0 209,6.268 209,14 L209,15 L209,32 L216,32 L216,14 L216.004,13.759 C216.131,10.005 219.215,7 223,7 C226.866,7 230,10.134 230,14 L230,32 L237,32 L237,14 L237.004,13.759 C237.131,10.005 240.215,7 244,7 C247.866,7 251,10.134 251,14 L251,32 L258,32 L258,14 C258,6.268 251.732,0 244,0" id="M" fill="#3C3C3C"></path>
            <path d="M186,25 C181.029,25 177,20.971 177,16 C177,11.029 181.029,7 186,7 C190.971,7 195,11.029 195,16 C195,20.971 190.971,25 186,25 M186,0 C177.163,0 170,7.164 170,16 C170,24.837 177.163,32 186,32 C194.837,32 202,24.837 202,16 C202,7.164 194.837,0 186,0" id="O" fill="#3C3C3C"></path>
            <path d="M152.0137,7 C154.5837,7 156.8957,8.083 158.5357,9.81 L163.4857,4.86 C160.5777,1.867 156.5167,0 152.0137,0 C143.1767,0 136.0137,7.164 136.0137,16 C136.0137,24.837 143.1767,32 152.0137,32 C156.5167,32 160.5777,30.134 163.4857,27.14 L158.5357,22.189 C156.8957,23.917 154.5837,25 152.0137,25 C147.0427,25 143.0137,20.971 143.0137,16 C143.0137,11.029 147.0427,7 152.0137,7" id="C" fill="#3C3C3C"></path>
            <path d="M123,20 C126.313,20 129,22.687 129,26 C129,29.313 126.313,32 123,32 C119.687,32 117,29.313 117,26 C117,22.687 119.687,20 123,20" id="dot" fill="#76B82A"></path>
            <path d="M85.5117,13.0005 C86.7477,9.5045 90.0807,7.0005 93.9997,7.0005 C97.9187,7.0005 101.2527,9.5045 102.4887,13.0005 L85.5117,13.0005 Z M109.9997,16.0005 C109.9997,7.1635 102.8367,0.0005 93.9997,0.0005 C85.1637,0.0005 77.9997,7.1635 77.9997,16.0005 C77.9997,24.8365 85.1637,32.0005 93.9997,32.0005 C100.5227,32.0005 106.1327,28.0975 108.6247,22.5005 L100.2247,22.5005 C98.6077,24.0485 96.4147,25.0005 93.9997,25.0005 C89.8967,25.0005 86.4357,22.2545 85.3517,18.5005 L109.8057,18.5005 C109.9337,17.6855 109.9997,16.8505 109.9997,16.0005 L109.9997,16.0005 Z" id="E" fill="#3C3C3C"></path>
            <path d="M55,0 C46.164,0 39,7.164 39,16 L39,32 L46,32 L46,29.23 C46,29.23 46,29.23 46.001,29.231 L46,16 L46.004,15.734 C46.144,10.887 50.118,7 55,7 C59.971,7 64,11.029 64,16 L64,29.23 L64.001,29.229 L64,32 L71,32 L71,16 L70.997,15.685 C70.829,6.994 63.731,0 55,0" id="N" fill="#3C3C3C"></path>
            <path d="M16,25 C11.029,25 7,20.971 7,16 C7,11.029 11.029,7 16,7 C20.971,7 25,11.029 25,16 C25,20.971 20.971,25 16,25 M16,0 C7.164,0 0,7.164 0,16 C0,24.837 7.164,32 16,32 C24.836,32 32,24.837 32,16 C32,7.164 24.836,0 16,0" id="O" fill="#3C3C3C"></path>
        </g>
    </g>
</svg>