<svg xmlns="http://www.w3.org/2000/svg" xmlns:xlink="http://www.w3.org/1999/xlink" width="32" height="1440" viewBox="0 0 32 1440">
	<defs></defs>
	<symbol id="000" viewBox="0 0 32 32">
		<title>000</title>
		<path d="M30.444 16.555v0c0.307 0 0.556-0.249 0.556-0.556s-0.249-0.556-0.556-0.556h-3.333c-0.307 0-0.556 0.249-0.556 0.556s0.249 0.556 0.556 0.556h3.333zM26.411 6.391l0-0c0.101-0.101 0.164-0.24 0.164-0.394 0-0.307-0.249-0.556-0.556-0.556-0.154 0-0.293 0.063-0.394 0.164l-2.225 2.207c-0.1 0.1-0.161 0.239-0.161 0.391 0 0.307 0.249 0.556 0.556 0.556 0.153 0 0.291-0.061 0.391-0.161zM16 24.333c-4.602 0-8.333-3.731-8.333-8.333s3.731-8.333 8.333-8.333c4.602 0 8.333 3.731 8.333 8.333v0c0 4.602-3.731 8.333-8.333 8.333v0zM16 8.778c-3.989 0-7.222 3.233-7.222 7.222s3.233 7.222 7.222 7.222c3.989 0 7.222-3.233 7.222-7.222v0c0-3.989-3.233-7.222-7.222-7.222v0zM16 5.444v0c0.307 0 0.556-0.249 0.556-0.556v-3.333c0-0.307-0.249-0.556-0.556-0.556s-0.556 0.249-0.556 0.556v3.333c0 0.307 0.249 0.556 0.556 0.556zM7.813 8.598l-0-0c0.1 0.1 0.239 0.161 0.391 0.161 0.307 0 0.556-0.249 0.556-0.556 0-0.153-0.061-0.291-0.161-0.391l-2.225-2.207c-0.101-0.101-0.239-0.163-0.393-0.163-0.307 0-0.556 0.249-0.556 0.556 0 0.153 0.062 0.292 0.163 0.393l2.225 2.207zM4.889 16.555v0c0.307 0 0.556-0.249 0.556-0.556s-0.249-0.556-0.556-0.556h-3.333c-0.307 0-0.556 0.249-0.556 0.556s0.249 0.556 0.556 0.556h3.333zM5.589 25.607l0-0c-0.1 0.1-0.161 0.239-0.161 0.391 0 0.307 0.249 0.556 0.556 0.556 0.153 0 0.291-0.061 0.391-0.161l2.225-2.207c0.101-0.101 0.163-0.239 0.163-0.393 0-0.307-0.249-0.556-0.556-0.556-0.153 0-0.292 0.062-0.393 0.163zM16 26.555v0c-0.307 0-0.556 0.249-0.556 0.556v3.333c0 0.307 0.249 0.556 0.556 0.556s0.556-0.249 0.556-0.556v-3.333c0-0.307-0.249-0.556-0.556-0.556zM24.186 23.4v0c-0.101-0.101-0.239-0.163-0.393-0.163-0.307 0-0.556 0.249-0.556 0.556 0 0.153 0.062 0.292 0.163 0.393l2.225 2.207c0.101 0.103 0.241 0.166 0.396 0.166 0.307 0 0.556-0.249 0.556-0.556 0-0.155-0.064-0.296-0.166-0.397l-2.225-2.207z"></path>
	</symbol>
	<symbol id="001" viewBox="0 0 32 32">
		<title>001</title>
		<path d="M24.804 27.061v-0.001l-13.996 0.001c-2.493 0-4.515-2.021-4.515-4.515s2.021-4.515 4.515-4.515v0l0.011 0.001c0.123-4.016 3.408-7.224 7.442-7.224 3.059 0 5.687 1.845 6.832 4.482l0.019 0.048c3.106 0.166 5.561 2.725 5.561 5.858 0 3.239-2.626 5.865-5.865 5.865-0.001 0-0.003 0-0.004 0h0zM24.804 16.226c-0.108 0-0.213 0.009-0.32 0.016-0.865-2.668-3.328-4.563-6.234-4.563-3.612 0-6.54 2.928-6.54 6.54 0 0.299 0.020 0.594 0.059 0.882l-0.004-0.034c-0.288-0.082-0.618-0.13-0.96-0.13-1.994 0-3.611 1.616-3.611 3.611s1.616 3.611 3.611 3.611c0 0 0.001 0 0.001 0h-0v-0.001l13.996 0.001c2.743 0 4.966-2.224 4.966-4.966s-2.224-4.966-4.966-4.966v0zM17.461 8.405v0c0.082-0.082 0.133-0.195 0.133-0.32 0-0.249-0.202-0.451-0.451-0.451-0.125 0-0.238 0.051-0.32 0.133l-0.901 0.901c-0.082 0.082-0.132 0.195-0.132 0.319 0 0.249 0.202 0.452 0.452 0.452 0.125 0 0.238-0.051 0.319-0.132l0.901-0.902zM14.099 10.684l-0-0c0.081 0.076 0.189 0.122 0.308 0.122 0.249 0 0.45-0.202 0.45-0.45 0-0.126-0.052-0.24-0.136-0.322l0 0c-0.034-0.031-0.073-0.057-0.119-0.077l0.008 0.007c-1.025-0.88-2.358-1.412-3.815-1.412-3.235 0-5.857 2.622-5.857 5.857 0 1.451 0.527 2.778 1.394 3.793l0.001 0.002c0.025 0.044 0.058 0.083 0.097 0.117 0.005 0.006 0.009 0.012 0.015 0.018l0-0c0.003 0.003 0.005 0.007 0.008 0.009l-0.001-0.001c0.076 0.060 0.172 0.095 0.277 0.095 0.248 0 0.45-0.201 0.45-0.45 0-0.139-0.063-0.262-0.162-0.345l0.009-0.011 0.006 0.007c-0.743-0.867-1.191-1.994-1.191-3.226 0-2.74 2.222-4.962 4.962-4.962 1.262 0 2.414 0.471 3.284 1.242l0.011-0.012zM10.808 7.196v0c0.249 0 0.451-0.202 0.451-0.452v-1.354c0-0.249-0.202-0.452-0.451-0.452s-0.451 0.202-0.451 0.452v1.354c0 0.249 0.202 0.452 0.451 0.452zM5.056 9.306v0c0.082 0.082 0.195 0.132 0.319 0.132 0.249 0 0.452-0.202 0.452-0.452 0-0.125-0.051-0.238-0.132-0.319l-0.901-0.901c-0.082-0.082-0.195-0.132-0.319-0.132-0.249 0-0.451 0.202-0.451 0.451 0 0.125 0.051 0.237 0.132 0.319l0.901 0.902zM3.133 14.871v0c0.249 0 0.452-0.202 0.452-0.451s-0.202-0.451-0.452-0.451h-1.354c-0.249 0-0.452 0.202-0.452 0.451s0.202 0.451 0.452 0.451h1.354zM4.155 20.434v0c-0.082 0.082-0.132 0.195-0.132 0.319 0 0.249 0.202 0.452 0.452 0.452 0.125 0 0.237-0.051 0.319-0.132l0.901-0.901c0.082-0.082 0.132-0.195 0.132-0.319 0-0.249-0.202-0.451-0.451-0.451-0.125 0-0.237 0.051-0.319 0.132z"></path>
	</symbol>
	<symbol id="0012" viewBox="0 0 32 32">
		<title>0012</title>
		<path d="M24.804 27.061v-0.001l-13.996 0.001c-2.493 0-4.515-2.021-4.515-4.515s2.021-4.515 4.515-4.515v0l0.011 0.001c0.123-4.016 3.408-7.224 7.442-7.224 3.059 0 5.687 1.845 6.832 4.482l0.019 0.048c3.106 0.166 5.561 2.725 5.561 5.858 0 3.239-2.626 5.865-5.865 5.865-0.001 0-0.003 0-0.004 0h0zM24.804 16.226c-0.108 0-0.213 0.009-0.32 0.016-0.865-2.668-3.328-4.563-6.234-4.563-3.612 0-6.54 2.928-6.54 6.54 0 0.299 0.020 0.594 0.059 0.882l-0.004-0.034c-0.288-0.082-0.618-0.13-0.96-0.13-1.994 0-3.611 1.616-3.611 3.611s1.616 3.611 3.611 3.611c0 0 0.001 0 0.001 0h-0v-0.001l13.996 0.001c2.743 0 4.966-2.224 4.966-4.966s-2.224-4.966-4.966-4.966v0zM17.461 8.405v0c0.082-0.082 0.133-0.195 0.133-0.32 0-0.249-0.202-0.451-0.451-0.451-0.125 0-0.238 0.051-0.32 0.133l-0.901 0.901c-0.082 0.082-0.132 0.195-0.132 0.319 0 0.249 0.202 0.452 0.452 0.452 0.125 0 0.238-0.051 0.319-0.132l0.901-0.902zM14.099 10.684l-0-0c0.081 0.076 0.189 0.122 0.308 0.122 0.249 0 0.45-0.202 0.45-0.45 0-0.126-0.052-0.24-0.136-0.322l0 0c-0.034-0.031-0.073-0.057-0.119-0.077l0.008 0.007c-1.025-0.88-2.358-1.412-3.815-1.412-3.235 0-5.857 2.622-5.857 5.857 0 1.451 0.527 2.778 1.394 3.793l0.001 0.002c0.025 0.044 0.058 0.083 0.097 0.117 0.005 0.006 0.009 0.012 0.015 0.018l0-0c0.003 0.003 0.005 0.007 0.008 0.009l-0.001-0.001c0.076 0.060 0.172 0.095 0.277 0.095 0.248 0 0.45-0.201 0.45-0.45 0-0.139-0.063-0.262-0.162-0.345l0.009-0.011 0.006 0.007c-0.743-0.867-1.191-1.994-1.191-3.226 0-2.74 2.222-4.962 4.962-4.962 1.262 0 2.414 0.471 3.284 1.242l0.011-0.012zM10.808 7.196v0c0.249 0 0.451-0.202 0.451-0.452v-1.354c0-0.249-0.202-0.452-0.451-0.452s-0.451 0.202-0.451 0.452v1.354c0 0.249 0.202 0.452 0.451 0.452zM5.056 9.306v0c0.082 0.082 0.195 0.132 0.319 0.132 0.249 0 0.452-0.202 0.452-0.452 0-0.125-0.051-0.238-0.132-0.319l-0.901-0.901c-0.082-0.082-0.195-0.132-0.319-0.132-0.249 0-0.451 0.202-0.451 0.451 0 0.125 0.051 0.237 0.132 0.319l0.901 0.902zM3.133 14.871v0c0.249 0 0.452-0.202 0.452-0.451s-0.202-0.451-0.452-0.451h-1.354c-0.249 0-0.452 0.202-0.452 0.451s0.202 0.451 0.452 0.451h1.354zM4.155 20.434v0c-0.082 0.082-0.132 0.195-0.132 0.319 0 0.249 0.202 0.452 0.452 0.452 0.125 0 0.237-0.051 0.319-0.132l0.901-0.901c0.082-0.082 0.132-0.195 0.132-0.319 0-0.249-0.202-0.451-0.451-0.451-0.125 0-0.237 0.051-0.319 0.132z"></path>
	</symbol>
	<symbol id="012" viewBox="0 0 32 32">
		<title>012</title>
		<path d="M24.804 27.061v-0.001l-13.996 0.001c-2.493 0-4.515-2.021-4.515-4.515s2.021-4.515 4.515-4.515v0l0.011 0.001c0.123-4.016 3.408-7.224 7.442-7.224 3.059 0 5.687 1.845 6.832 4.482l0.019 0.048c3.106 0.166 5.561 2.725 5.561 5.858 0 3.239-2.626 5.865-5.865 5.865-0.001 0-0.003 0-0.004 0h0zM24.804 16.226c-0.108 0-0.213 0.009-0.32 0.016-0.865-2.668-3.328-4.563-6.234-4.563-3.612 0-6.54 2.928-6.54 6.54 0 0.299 0.020 0.594 0.059 0.882l-0.004-0.034c-0.288-0.082-0.618-0.13-0.96-0.13-1.994 0-3.611 1.616-3.611 3.611s1.616 3.611 3.611 3.611c0 0 0.001 0 0.001 0h-0v-0.001l13.996 0.001c2.743 0 4.966-2.224 4.966-4.966s-2.224-4.966-4.966-4.966v0zM17.461 8.405v0c0.082-0.082 0.133-0.195 0.133-0.32 0-0.249-0.202-0.451-0.451-0.451-0.125 0-0.238 0.051-0.32 0.133l-0.901 0.901c-0.082 0.082-0.132 0.195-0.132 0.319 0 0.249 0.202 0.452 0.452 0.452 0.125 0 0.238-0.051 0.319-0.132l0.901-0.902zM14.099 10.684l-0-0c0.081 0.076 0.189 0.122 0.308 0.122 0.249 0 0.45-0.202 0.45-0.45 0-0.126-0.052-0.24-0.136-0.322l0 0c-0.034-0.031-0.073-0.057-0.119-0.077l0.008 0.007c-1.025-0.88-2.358-1.412-3.815-1.412-3.235 0-5.857 2.622-5.857 5.857 0 1.451 0.527 2.778 1.394 3.793l0.001 0.002c0.025 0.044 0.058 0.083 0.097 0.117 0.005 0.006 0.009 0.012 0.015 0.018l0-0c0.003 0.003 0.005 0.007 0.008 0.009l-0.001-0.001c0.076 0.060 0.172 0.095 0.277 0.095 0.248 0 0.45-0.201 0.45-0.45 0-0.139-0.063-0.262-0.162-0.345l0.009-0.011 0.006 0.007c-0.743-0.867-1.191-1.994-1.191-3.226 0-2.74 2.222-4.962 4.962-4.962 1.262 0 2.414 0.471 3.284 1.242l0.011-0.012zM10.808 7.196v0c0.249 0 0.451-0.202 0.451-0.452v-1.354c0-0.249-0.202-0.452-0.451-0.452s-0.451 0.202-0.451 0.452v1.354c0 0.249 0.202 0.452 0.451 0.452zM5.056 9.306v0c0.082 0.082 0.195 0.132 0.319 0.132 0.249 0 0.452-0.202 0.452-0.452 0-0.125-0.051-0.238-0.132-0.319l-0.901-0.901c-0.082-0.082-0.195-0.132-0.319-0.132-0.249 0-0.451 0.202-0.451 0.451 0 0.125 0.051 0.237 0.132 0.319l0.901 0.902zM3.133 14.871v0c0.249 0 0.452-0.202 0.452-0.451s-0.202-0.451-0.452-0.451h-1.354c-0.249 0-0.452 0.202-0.452 0.451s0.202 0.451 0.452 0.451h1.354zM4.155 20.434v0c-0.082 0.082-0.132 0.195-0.132 0.319 0 0.249 0.202 0.452 0.452 0.452 0.125 0 0.237-0.051 0.319-0.132l0.901-0.901c0.082-0.082 0.132-0.195 0.132-0.319 0-0.249-0.202-0.451-0.451-0.451-0.125 0-0.237 0.051-0.319 0.132z"></path>
	</symbol>
	<symbol id="002" viewBox="0 0 32 32">
		<title>002</title>
		<path d="M24.916 25.373h-0c0.001 0 0.003 0 0.004 0 3.281 0 5.94-2.659 5.94-5.94 0-3.172-2.487-5.764-5.632-5.932l-0.019-0.049c-1.16-2.671-3.821-4.539-6.919-4.539-4.085 0-7.412 3.249-7.536 7.316l-0.012-0.001c-2.525 0-4.572 2.047-4.572 4.572s2.047 4.572 4.572 4.572h1.372c0.252 0 0.457-0.205 0.457-0.457s-0.205-0.457-0.457-0.457h-1.372c-0.001 0-0.001 0-0.002 0-2.019 0-3.656-1.637-3.656-3.656s1.637-3.656 3.656-3.656c0.346 0 0.681 0.048 0.972 0.132l0.004 0.034c-0.040-0.292-0.060-0.591-0.060-0.894 0-3.658 2.965-6.623 6.623-6.623 2.943 0 5.437 1.919 6.313 4.622 0.107-0.007 0.214-0.016 0.324-0.016v0c2.778 0 5.029 2.252 5.029 5.029s-2.252 5.029-5.029 5.029c-0.155 0-0.306-0.013-0.457-0.027v0.027c-0.253 0-0.457 0.205-0.457 0.457s0.205 0.457 0.457 0.457l0.002-0c0.032-0.003 0.064-0.010 0.090-0.018 0.121 0.009 0.242 0.019 0.365 0.019zM17.48 6.479v0c0.083-0.083 0.134-0.197 0.134-0.323 0-0.252-0.205-0.457-0.457-0.457-0.126 0-0.241 0.051-0.323 0.134l-0.913 0.913c-0.083 0.083-0.134 0.197-0.134 0.323 0 0.253 0.205 0.457 0.457 0.457 0.126 0 0.241-0.051 0.323-0.134l0.913-0.913zM14.075 8.788l-0-0c0.082 0.077 0.191 0.124 0.312 0.124 0.252 0 0.456-0.204 0.456-0.456 0-0.128-0.053-0.244-0.138-0.326l0 0c-0.035-0.032-0.074-0.058-0.12-0.079l0.008 0.007c-1.038-0.891-2.387-1.43-3.863-1.43-3.276 0-5.931 2.656-5.931 5.931 0 1.469 0.534 2.814 1.412 3.841l0.001 0.002c0.026 0.045 0.059 0.085 0.099 0.119 0.005 0.006 0.009 0.012 0.014 0.017l0-0c0.003 0.003 0.005 0.007 0.008 0.010l-0.001-0.001c0.077 0.060 0.175 0.096 0.28 0.096 0.252 0 0.455-0.204 0.455-0.455 0-0.14-0.063-0.266-0.164-0.35l0.009-0.011 0.006 0.007c-0.752-0.878-1.207-2.019-1.207-3.267 0-2.775 2.25-5.025 5.025-5.025 1.278 0 2.444 0.477 3.326 1.258l0.012-0.012zM10.742 5.255v0c0.252 0 0.457-0.205 0.457-0.457v-1.372c0-0.252-0.205-0.457-0.457-0.457s-0.457 0.205-0.457 0.457v1.372c0 0.253 0.205 0.457 0.457 0.457zM4.917 7.392v0c0.083 0.083 0.197 0.134 0.323 0.134 0.253 0 0.457-0.205 0.457-0.457 0-0.126-0.051-0.241-0.134-0.323l-0.913-0.913c-0.083-0.083-0.197-0.134-0.323-0.134-0.252 0-0.457 0.205-0.457 0.457 0 0.126 0.051 0.241 0.134 0.323l0.913 0.913zM2.97 13.028v0c0.252 0 0.457-0.205 0.457-0.457s-0.205-0.457-0.457-0.457h-1.372c-0.252 0-0.457 0.205-0.457 0.457s0.205 0.457 0.457 0.457h1.372zM4.005 18.661v0c-0.083 0.083-0.134 0.197-0.134 0.323 0 0.253 0.205 0.457 0.457 0.457 0.126 0 0.241-0.051 0.323-0.134l0.913-0.913c0.083-0.083 0.134-0.197 0.134-0.323 0-0.252-0.205-0.457-0.457-0.457-0.126 0-0.241 0.051-0.323 0.134zM21.422 25.324c0.3-0.504 0.247-2.695 0.247-2.695s-1.583 0.915-1.977 1.47c-0.952 1.339 1.049 2.367 1.73 1.225zM15.521 27.329c-0.741 1.232 0.681 2.328 1.653 1.285 0.424-0.454 0.413-2.785 0.413-2.785s-1.712 0.909-2.066 1.5zM15.12 22.727c-0.952 1.339 1.049 2.367 1.73 1.225 0.3-0.503 0.247-2.695 0.247-2.695s-1.582 0.916-1.977 1.47z"></path>
	</symbol>
	<symbol id="009" viewBox="0 0 32 32">
		<title>009</title>
		<path d="M24.916 25.373h-0c0.001 0 0.003 0 0.004 0 3.281 0 5.94-2.659 5.94-5.94 0-3.172-2.487-5.764-5.632-5.932l-0.019-0.049c-1.16-2.671-3.821-4.539-6.919-4.539-4.085 0-7.412 3.249-7.536 7.316l-0.012-0.001c-2.525 0-4.572 2.047-4.572 4.572s2.047 4.572 4.572 4.572h1.372c0.252 0 0.457-0.205 0.457-0.457s-0.205-0.457-0.457-0.457h-1.372c-0.001 0-0.001 0-0.002 0-2.019 0-3.656-1.637-3.656-3.656s1.637-3.656 3.656-3.656c0.346 0 0.681 0.048 0.972 0.132l0.004 0.034c-0.040-0.292-0.060-0.591-0.060-0.894 0-3.658 2.965-6.623 6.623-6.623 2.943 0 5.437 1.919 6.313 4.622 0.107-0.007 0.214-0.016 0.324-0.016v0c2.778 0 5.029 2.252 5.029 5.029s-2.252 5.029-5.029 5.029c-0.155 0-0.306-0.013-0.457-0.027v0.027c-0.253 0-0.457 0.205-0.457 0.457s0.205 0.457 0.457 0.457l0.002-0c0.032-0.003 0.064-0.010 0.090-0.018 0.121 0.009 0.242 0.019 0.365 0.019zM17.48 6.479v0c0.083-0.083 0.134-0.197 0.134-0.323 0-0.252-0.205-0.457-0.457-0.457-0.126 0-0.241 0.051-0.323 0.134l-0.913 0.913c-0.083 0.083-0.134 0.197-0.134 0.323 0 0.253 0.205 0.457 0.457 0.457 0.126 0 0.241-0.051 0.323-0.134l0.913-0.913zM14.075 8.788l-0-0c0.082 0.077 0.191 0.124 0.312 0.124 0.252 0 0.456-0.204 0.456-0.456 0-0.128-0.053-0.244-0.138-0.326l0 0c-0.035-0.032-0.074-0.058-0.12-0.079l0.008 0.007c-1.038-0.891-2.387-1.43-3.863-1.43-3.276 0-5.931 2.656-5.931 5.931 0 1.469 0.534 2.814 1.412 3.841l0.001 0.002c0.026 0.045 0.059 0.085 0.099 0.119 0.005 0.006 0.009 0.012 0.014 0.017l0-0c0.003 0.003 0.005 0.007 0.008 0.010l-0.001-0.001c0.077 0.060 0.175 0.096 0.28 0.096 0.252 0 0.455-0.204 0.455-0.455 0-0.14-0.063-0.266-0.164-0.35l0.009-0.011 0.006 0.007c-0.752-0.878-1.207-2.019-1.207-3.267 0-2.775 2.25-5.025 5.025-5.025 1.278 0 2.444 0.477 3.326 1.258l0.012-0.012zM10.742 5.255v0c0.252 0 0.457-0.205 0.457-0.457v-1.372c0-0.252-0.205-0.457-0.457-0.457s-0.457 0.205-0.457 0.457v1.372c0 0.253 0.205 0.457 0.457 0.457zM4.917 7.392v0c0.083 0.083 0.197 0.134 0.323 0.134 0.253 0 0.457-0.205 0.457-0.457 0-0.126-0.051-0.241-0.134-0.323l-0.913-0.913c-0.083-0.083-0.197-0.134-0.323-0.134-0.252 0-0.457 0.205-0.457 0.457 0 0.126 0.051 0.241 0.134 0.323l0.913 0.913zM2.97 13.028v0c0.252 0 0.457-0.205 0.457-0.457s-0.205-0.457-0.457-0.457h-1.372c-0.252 0-0.457 0.205-0.457 0.457s0.205 0.457 0.457 0.457h1.372zM4.005 18.661v0c-0.083 0.083-0.134 0.197-0.134 0.323 0 0.253 0.205 0.457 0.457 0.457 0.126 0 0.241-0.051 0.323-0.134l0.913-0.913c0.083-0.083 0.134-0.197 0.134-0.323 0-0.252-0.205-0.457-0.457-0.457-0.126 0-0.241 0.051-0.323 0.134zM21.422 25.324c0.3-0.504 0.247-2.695 0.247-2.695s-1.583 0.915-1.977 1.47c-0.952 1.339 1.049 2.367 1.73 1.225zM15.521 27.329c-0.741 1.232 0.681 2.328 1.653 1.285 0.424-0.454 0.413-2.785 0.413-2.785s-1.712 0.909-2.066 1.5zM15.12 22.727c-0.952 1.339 1.049 2.367 1.73 1.225 0.3-0.503 0.247-2.695 0.247-2.695s-1.582 0.916-1.977 1.47z"></path>
	</symbol>
	<symbol id="0022" viewBox="0 0 32 32">
		<title>0022</title>
		<path d="M24.916 25.373h-0c0.001 0 0.003 0 0.004 0 3.281 0 5.94-2.659 5.94-5.94 0-3.172-2.487-5.764-5.632-5.932l-0.019-0.049c-1.16-2.671-3.821-4.539-6.919-4.539-4.085 0-7.412 3.249-7.536 7.316l-0.012-0.001c-2.525 0-4.572 2.047-4.572 4.572s2.047 4.572 4.572 4.572h1.372c0.252 0 0.457-0.205 0.457-0.457s-0.205-0.457-0.457-0.457h-1.372c-0.001 0-0.001 0-0.002 0-2.019 0-3.656-1.637-3.656-3.656s1.637-3.656 3.656-3.656c0.346 0 0.681 0.048 0.972 0.132l0.004 0.034c-0.040-0.292-0.060-0.591-0.060-0.894 0-3.658 2.965-6.623 6.623-6.623 2.943 0 5.437 1.919 6.313 4.622 0.107-0.007 0.214-0.016 0.324-0.016v0c2.778 0 5.029 2.252 5.029 5.029s-2.252 5.029-5.029 5.029c-0.155 0-0.306-0.013-0.457-0.027v0.027c-0.253 0-0.457 0.205-0.457 0.457s0.205 0.457 0.457 0.457l0.002-0c0.032-0.003 0.064-0.010 0.090-0.018 0.121 0.009 0.242 0.019 0.365 0.019zM17.48 6.479v0c0.083-0.083 0.134-0.197 0.134-0.323 0-0.252-0.205-0.457-0.457-0.457-0.126 0-0.241 0.051-0.323 0.134l-0.913 0.913c-0.083 0.083-0.134 0.197-0.134 0.323 0 0.253 0.205 0.457 0.457 0.457 0.126 0 0.241-0.051 0.323-0.134l0.913-0.913zM14.075 8.788l-0-0c0.082 0.077 0.191 0.124 0.312 0.124 0.252 0 0.456-0.204 0.456-0.456 0-0.128-0.053-0.244-0.138-0.326l0 0c-0.035-0.032-0.074-0.058-0.12-0.079l0.008 0.007c-1.038-0.891-2.387-1.43-3.863-1.43-3.276 0-5.931 2.656-5.931 5.931 0 1.469 0.534 2.814 1.412 3.841l0.001 0.002c0.026 0.045 0.059 0.085 0.099 0.119 0.005 0.006 0.009 0.012 0.014 0.017l0-0c0.003 0.003 0.005 0.007 0.008 0.010l-0.001-0.001c0.077 0.060 0.175 0.096 0.28 0.096 0.252 0 0.455-0.204 0.455-0.455 0-0.14-0.063-0.266-0.164-0.35l0.009-0.011 0.006 0.007c-0.752-0.878-1.207-2.019-1.207-3.267 0-2.775 2.25-5.025 5.025-5.025 1.278 0 2.444 0.477 3.326 1.258l0.012-0.012zM10.742 5.255v0c0.252 0 0.457-0.205 0.457-0.457v-1.372c0-0.252-0.205-0.457-0.457-0.457s-0.457 0.205-0.457 0.457v1.372c0 0.253 0.205 0.457 0.457 0.457zM4.917 7.392v0c0.083 0.083 0.197 0.134 0.323 0.134 0.253 0 0.457-0.205 0.457-0.457 0-0.126-0.051-0.241-0.134-0.323l-0.913-0.913c-0.083-0.083-0.197-0.134-0.323-0.134-0.252 0-0.457 0.205-0.457 0.457 0 0.126 0.051 0.241 0.134 0.323l0.913 0.913zM2.97 13.028v0c0.252 0 0.457-0.205 0.457-0.457s-0.205-0.457-0.457-0.457h-1.372c-0.252 0-0.457 0.205-0.457 0.457s0.205 0.457 0.457 0.457h1.372zM4.005 18.661v0c-0.083 0.083-0.134 0.197-0.134 0.323 0 0.253 0.205 0.457 0.457 0.457 0.126 0 0.241-0.051 0.323-0.134l0.913-0.913c0.083-0.083 0.134-0.197 0.134-0.323 0-0.252-0.205-0.457-0.457-0.457-0.126 0-0.241 0.051-0.323 0.134zM21.422 25.324c0.3-0.504 0.247-2.695 0.247-2.695s-1.583 0.915-1.977 1.47c-0.952 1.339 1.049 2.367 1.73 1.225zM15.521 27.329c-0.741 1.232 0.681 2.328 1.653 1.285 0.424-0.454 0.413-2.785 0.413-2.785s-1.712 0.909-2.066 1.5zM15.12 22.727c-0.952 1.339 1.049 2.367 1.73 1.225 0.3-0.503 0.247-2.695 0.247-2.695s-1.582 0.916-1.977 1.47z"></path>
	</symbol>
	<symbol id="003" viewBox="0 0 32 32">
		<title>003</title>
		<path d="M24.916 25.373h-0c0.001 0 0.003 0 0.004 0 3.281 0 5.94-2.659 5.94-5.94 0-3.172-2.487-5.763-5.632-5.932l-0.019-0.049c-1.16-2.671-3.821-4.539-6.919-4.539-4.085 0-7.412 3.249-7.536 7.316l-0.012-0.001c-2.525 0-4.572 2.047-4.572 4.572s2.047 4.572 4.572 4.572h0.914c0.253 0 0.457-0.205 0.457-0.457s-0.205-0.457-0.457-0.457h-0.914c-0.001 0-0.001 0-0.002 0-2.019 0-3.656-1.637-3.656-3.656s1.637-3.656 3.656-3.656c0.346 0 0.681 0.048 0.972 0.132l0.004 0.034c-0.040-0.292-0.060-0.591-0.060-0.894 0-3.658 2.965-6.623 6.623-6.623 2.943 0 5.437 1.919 6.313 4.621 0.108-0.007 0.214-0.016 0.324-0.016v0c2.778 0 5.029 2.252 5.029 5.029s-2.252 5.029-5.029 5.029h-0v-0.001h-0.457v0.001c-0.253 0-0.457 0.205-0.457 0.457s0.205 0.457 0.457 0.457l0.004-0.001h0.454v0.001h0zM17.479 6.48l0-0c0.084-0.083 0.137-0.199 0.137-0.326 0-0.253-0.205-0.457-0.457-0.457-0.128 0-0.243 0.052-0.326 0.137l-0.913 0.913c-0.084 0.083-0.135 0.198-0.135 0.325 0 0.253 0.205 0.457 0.457 0.457 0.127 0 0.242-0.052 0.325-0.135l0.913-0.913zM14.075 8.788l-0-0c0.082 0.077 0.191 0.124 0.312 0.124 0.252 0 0.456-0.204 0.456-0.456 0-0.128-0.053-0.243-0.137-0.326l0 0c-0.034-0.031-0.074-0.057-0.12-0.078l0.008 0.007c-1.038-0.892-2.388-1.431-3.864-1.431-3.276 0-5.931 2.655-5.931 5.931 0 1.469 0.534 2.814 1.412 3.842l0.001 0.002c0.026 0.044 0.058 0.084 0.097 0.117 0.005 0.006 0.010 0.013 0.016 0.019l0-0.001c0.003 0.003 0.005 0.007 0.008 0.010l-0.001-0.001c0.077 0.060 0.175 0.096 0.28 0.096 0.252 0 0.455-0.204 0.455-0.455 0-0.14-0.063-0.266-0.164-0.35l0.009-0.011 0.006 0.007c-0.752-0.878-1.207-2.019-1.207-3.267 0-2.775 2.25-5.025 5.025-5.025 1.278 0 2.444 0.477 3.326 1.258l0.012-0.012zM10.742 5.256v0c0.253 0 0.457-0.205 0.457-0.457v-1.372c0-0.253-0.205-0.457-0.457-0.457s-0.457 0.205-0.457 0.457v1.372c0 0.253 0.205 0.457 0.457 0.457zM4.917 7.392v0c0.083 0.083 0.197 0.134 0.323 0.134 0.253 0 0.457-0.205 0.457-0.457 0-0.126-0.051-0.241-0.134-0.323l-0.913-0.913c-0.083-0.083-0.197-0.134-0.323-0.134-0.253 0-0.457 0.205-0.457 0.457 0 0.126 0.051 0.241 0.134 0.323l0.913 0.913zM2.969 13.028v0c0.253 0 0.457-0.205 0.457-0.457s-0.205-0.457-0.457-0.457h-1.372c-0.253 0-0.457 0.205-0.457 0.457s0.205 0.457 0.457 0.457h1.372zM4.005 18.662v0c-0.083 0.083-0.134 0.197-0.134 0.323 0 0.253 0.205 0.457 0.457 0.457 0.126 0 0.241-0.051 0.324-0.134l0.913-0.913c0.083-0.083 0.134-0.197 0.134-0.323 0-0.253-0.205-0.457-0.457-0.457-0.126 0-0.24 0.051-0.323 0.134zM15.771 25.372h1.829l-0.914 3.658 4.115-5.029h-1.829l0.914-3.658zM13.973 28.158c0.424-0.454 0.413-2.785 0.413-2.785s-1.712 0.91-2.067 1.5c-0.741 1.232 0.681 2.328 1.653 1.286z"></path>
	</symbol>
	<symbol id="005" viewBox="0 0 32 32">
		<title>005</title>
		<path d="M24.916 25.373h-0c0.001 0 0.003 0 0.004 0 3.281 0 5.94-2.659 5.94-5.94 0-3.172-2.487-5.763-5.632-5.932l-0.019-0.049c-1.16-2.671-3.821-4.539-6.919-4.539-4.085 0-7.412 3.249-7.536 7.316l-0.012-0.001c-2.525 0-4.572 2.047-4.572 4.572s2.047 4.572 4.572 4.572h0.914c0.253 0 0.457-0.205 0.457-0.457s-0.205-0.457-0.457-0.457h-0.914c-0.001 0-0.001 0-0.002 0-2.019 0-3.656-1.637-3.656-3.656s1.637-3.656 3.656-3.656c0.346 0 0.681 0.048 0.972 0.132l0.004 0.034c-0.040-0.292-0.060-0.591-0.060-0.894 0-3.658 2.965-6.623 6.623-6.623 2.943 0 5.437 1.919 6.313 4.621 0.108-0.007 0.214-0.016 0.324-0.016v0c2.778 0 5.029 2.252 5.029 5.029s-2.252 5.029-5.029 5.029h-0v-0.001h-0.457v0.001c-0.253 0-0.457 0.205-0.457 0.457s0.205 0.457 0.457 0.457l0.004-0.001h0.454v0.001h0zM17.479 6.48l0-0c0.084-0.083 0.137-0.199 0.137-0.326 0-0.253-0.205-0.457-0.457-0.457-0.128 0-0.243 0.052-0.326 0.137l-0.913 0.913c-0.084 0.083-0.135 0.198-0.135 0.325 0 0.253 0.205 0.457 0.457 0.457 0.127 0 0.242-0.052 0.325-0.135l0.913-0.913zM14.075 8.788l-0-0c0.082 0.077 0.191 0.124 0.312 0.124 0.252 0 0.456-0.204 0.456-0.456 0-0.128-0.053-0.243-0.137-0.326l0 0c-0.034-0.031-0.074-0.057-0.12-0.078l0.008 0.007c-1.038-0.892-2.388-1.431-3.864-1.431-3.276 0-5.931 2.655-5.931 5.931 0 1.469 0.534 2.814 1.412 3.842l0.001 0.002c0.026 0.044 0.058 0.084 0.097 0.117 0.005 0.006 0.010 0.013 0.016 0.019l0-0.001c0.003 0.003 0.005 0.007 0.008 0.010l-0.001-0.001c0.077 0.060 0.175 0.096 0.28 0.096 0.252 0 0.455-0.204 0.455-0.455 0-0.14-0.063-0.266-0.164-0.35l0.009-0.011 0.006 0.007c-0.752-0.878-1.207-2.019-1.207-3.267 0-2.775 2.25-5.025 5.025-5.025 1.278 0 2.444 0.477 3.326 1.258l0.012-0.012zM10.742 5.256v0c0.253 0 0.457-0.205 0.457-0.457v-1.372c0-0.253-0.205-0.457-0.457-0.457s-0.457 0.205-0.457 0.457v1.372c0 0.253 0.205 0.457 0.457 0.457zM4.917 7.392v0c0.083 0.083 0.197 0.134 0.323 0.134 0.253 0 0.457-0.205 0.457-0.457 0-0.126-0.051-0.241-0.134-0.323l-0.913-0.913c-0.083-0.083-0.197-0.134-0.323-0.134-0.253 0-0.457 0.205-0.457 0.457 0 0.126 0.051 0.241 0.134 0.323l0.913 0.913zM2.969 13.028v0c0.253 0 0.457-0.205 0.457-0.457s-0.205-0.457-0.457-0.457h-1.372c-0.253 0-0.457 0.205-0.457 0.457s0.205 0.457 0.457 0.457h1.372zM4.005 18.662v0c-0.083 0.083-0.134 0.197-0.134 0.323 0 0.253 0.205 0.457 0.457 0.457 0.126 0 0.241-0.051 0.324-0.134l0.913-0.913c0.083-0.083 0.134-0.197 0.134-0.323 0-0.253-0.205-0.457-0.457-0.457-0.126 0-0.24 0.051-0.323 0.134zM15.771 25.372h1.829l-0.914 3.658 4.115-5.029h-1.829l0.914-3.658zM13.973 28.158c0.424-0.454 0.413-2.785 0.413-2.785s-1.712 0.91-2.067 1.5c-0.741 1.232 0.681 2.328 1.653 1.286z"></path>
	</symbol>
	<symbol id="004" viewBox="0 0 32 32">
		<title>004</title>
		<path d="M24.904 25.588h-0c0.001 0 0.003 0 0.004 0 3.276 0 5.932-2.656 5.932-5.932 0-3.168-2.483-5.756-5.624-5.924l-0.019-0.049c-1.158-2.667-3.816-4.533-6.91-4.533-4.080 0-7.402 3.245-7.526 7.306l-0.012-0.001c-2.522 0-4.566 2.044-4.566 4.566s2.044 4.566 4.566 4.566h0.913c0.252 0 0.457-0.204 0.457-0.457s-0.204-0.457-0.457-0.457h-0.913c-0.001 0-0.001 0-0.002 0-2.017 0-3.651-1.635-3.651-3.651s1.635-3.651 3.651-3.651c0.345 0 0.68 0.048 0.971 0.131l0.004 0.034c-0.039-0.292-0.060-0.59-0.060-0.893 0-3.653 2.961-6.614 6.614-6.614 2.939 0 5.43 1.917 6.305 4.615 0.107-0.007 0.214-0.016 0.323-0.016v0c2.774 0 5.023 2.249 5.023 5.023s-2.249 5.023-5.023 5.023h-0v-0.001h-0.457v0.001c-0.252 0-0.457 0.204-0.457 0.457s0.204 0.457 0.457 0.457l0.004-0.001h0.453v0.001h0zM17.477 6.72l0-0c0.084-0.083 0.137-0.198 0.137-0.326 0-0.252-0.204-0.457-0.457-0.457-0.128 0-0.243 0.052-0.326 0.137l-0.912 0.912c-0.083 0.083-0.135 0.197-0.135 0.324 0 0.252 0.204 0.457 0.457 0.457 0.127 0 0.242-0.052 0.324-0.135l0.912-0.912zM14.078 9.026l-0-0c0.081 0.077 0.191 0.123 0.312 0.123 0.252 0 0.455-0.204 0.455-0.455 0-0.128-0.053-0.243-0.137-0.326l0 0c-0.034-0.031-0.074-0.057-0.12-0.078l0.008 0.007c-1.037-0.891-2.385-1.429-3.858-1.429-3.271 0-5.923 2.652-5.923 5.923 0 1.467 0.533 2.81 1.41 3.836l0.001 0.002c0.025 0.044 0.058 0.084 0.097 0.117 0.005 0.006 0.010 0.013 0.016 0.019l0-0.001c0.003 0.003 0.005 0.007 0.008 0.010l-0.001-0.001c0.077 0.060 0.174 0.096 0.28 0.096 0.251 0 0.455-0.204 0.455-0.455 0-0.14-0.063-0.265-0.164-0.349l0.009-0.011 0.006 0.007c-0.751-0.877-1.205-2.017-1.205-3.262 0-2.771 2.247-5.018 5.018-5.018 1.276 0 2.441 0.476 3.321 1.257l0.012-0.012zM10.749 5.498v0c0.252 0 0.457-0.204 0.457-0.457v-1.37c0-0.252-0.204-0.457-0.457-0.457s-0.457 0.204-0.457 0.457v1.37c0 0.252 0.204 0.457 0.457 0.457zM4.932 7.632v0c0.083 0.083 0.197 0.134 0.323 0.134 0.252 0 0.457-0.204 0.457-0.457 0-0.126-0.051-0.24-0.134-0.323l-0.912-0.912c-0.083-0.083-0.197-0.134-0.323-0.134-0.252 0-0.457 0.204-0.457 0.457 0 0.126 0.051 0.24 0.134 0.323l0.912 0.912zM2.987 13.26v0c0.252 0 0.457-0.204 0.457-0.457s-0.204-0.457-0.457-0.457h-1.37c-0.252 0-0.457 0.204-0.457 0.457s0.204 0.457 0.457 0.457h1.37zM4.021 18.886v0c-0.083 0.083-0.134 0.197-0.134 0.323 0 0.252 0.204 0.457 0.457 0.457 0.126 0 0.24-0.051 0.323-0.134l0.912-0.912c0.082-0.083 0.133-0.197 0.133-0.323 0-0.252-0.204-0.457-0.457-0.457-0.126 0-0.24 0.051-0.323 0.134zM13.976 28.369c0.423-0.454 0.413-2.782 0.413-2.782s-1.709 0.908-2.064 1.498c-0.74 1.23 0.68 2.325 1.651 1.284zM21.936 23.686l0.002-0.001c0.135-0.079 0.226-0.226 0.226-0.394 0-0.252-0.204-0.457-0.457-0.457-0.084 0-0.163 0.023-0.228 0.061l-2.055 1.366v-2.326c0-0.252-0.204-0.457-0.457-0.457s-0.457 0.204-0.457 0.457v2.326l-2.052-1.365c-0.068-0.040-0.146-0.062-0.23-0.062-0.252 0-0.457 0.204-0.457 0.457 0 0.168 0.091 0.315 0.228 0.395l2.145 1.426-2.161 1.437c-0.135 0.079-0.226 0.226-0.226 0.394 0 0.252 0.204 0.457 0.457 0.457 0.084 0 0.163-0.023 0.228-0.061l2.069-1.376v2.365c0 0.252 0.204 0.457 0.457 0.457s0.457-0.204 0.457-0.457v-2.365l2.067 1.375c0.068 0.040 0.146 0.062 0.23 0.062 0.252 0 0.457-0.204 0.457-0.457 0-0.168-0.091-0.315-0.228-0.396l-2.159-1.436 2.145-1.426z"></path>
	</symbol>
	<symbol id="010" viewBox="0 0 32 32">
		<title>010</title>
		<path d="M24.904 25.588h-0c0.001 0 0.003 0 0.004 0 3.276 0 5.932-2.656 5.932-5.932 0-3.168-2.483-5.756-5.624-5.924l-0.019-0.049c-1.158-2.667-3.816-4.533-6.91-4.533-4.080 0-7.402 3.245-7.526 7.306l-0.012-0.001c-2.522 0-4.566 2.044-4.566 4.566s2.044 4.566 4.566 4.566h0.913c0.252 0 0.457-0.204 0.457-0.457s-0.204-0.457-0.457-0.457h-0.913c-0.001 0-0.001 0-0.002 0-2.017 0-3.651-1.635-3.651-3.651s1.635-3.651 3.651-3.651c0.345 0 0.68 0.048 0.971 0.131l0.004 0.034c-0.039-0.292-0.060-0.59-0.060-0.893 0-3.653 2.961-6.614 6.614-6.614 2.939 0 5.43 1.917 6.305 4.615 0.107-0.007 0.214-0.016 0.323-0.016v0c2.774 0 5.023 2.249 5.023 5.023s-2.249 5.023-5.023 5.023h-0v-0.001h-0.457v0.001c-0.252 0-0.457 0.204-0.457 0.457s0.204 0.457 0.457 0.457l0.004-0.001h0.453v0.001h0zM17.477 6.72l0-0c0.084-0.083 0.137-0.198 0.137-0.326 0-0.252-0.204-0.457-0.457-0.457-0.128 0-0.243 0.052-0.326 0.137l-0.912 0.912c-0.083 0.083-0.135 0.197-0.135 0.324 0 0.252 0.204 0.457 0.457 0.457 0.127 0 0.242-0.052 0.324-0.135l0.912-0.912zM14.078 9.026l-0-0c0.081 0.077 0.191 0.123 0.312 0.123 0.252 0 0.455-0.204 0.455-0.455 0-0.128-0.053-0.243-0.137-0.326l0 0c-0.034-0.031-0.074-0.057-0.12-0.078l0.008 0.007c-1.037-0.891-2.385-1.429-3.858-1.429-3.271 0-5.923 2.652-5.923 5.923 0 1.467 0.533 2.81 1.41 3.836l0.001 0.002c0.025 0.044 0.058 0.084 0.097 0.117 0.005 0.006 0.010 0.013 0.016 0.019l0-0.001c0.003 0.003 0.005 0.007 0.008 0.010l-0.001-0.001c0.077 0.060 0.174 0.096 0.28 0.096 0.251 0 0.455-0.204 0.455-0.455 0-0.14-0.063-0.265-0.164-0.349l0.009-0.011 0.006 0.007c-0.751-0.877-1.205-2.017-1.205-3.262 0-2.771 2.247-5.018 5.018-5.018 1.276 0 2.441 0.476 3.321 1.257l0.012-0.012zM10.749 5.498v0c0.252 0 0.457-0.204 0.457-0.457v-1.37c0-0.252-0.204-0.457-0.457-0.457s-0.457 0.204-0.457 0.457v1.37c0 0.252 0.204 0.457 0.457 0.457zM4.932 7.632v0c0.083 0.083 0.197 0.134 0.323 0.134 0.252 0 0.457-0.204 0.457-0.457 0-0.126-0.051-0.24-0.134-0.323l-0.912-0.912c-0.083-0.083-0.197-0.134-0.323-0.134-0.252 0-0.457 0.204-0.457 0.457 0 0.126 0.051 0.24 0.134 0.323l0.912 0.912zM2.987 13.26v0c0.252 0 0.457-0.204 0.457-0.457s-0.204-0.457-0.457-0.457h-1.37c-0.252 0-0.457 0.204-0.457 0.457s0.204 0.457 0.457 0.457h1.37zM4.021 18.886v0c-0.083 0.083-0.134 0.197-0.134 0.323 0 0.252 0.204 0.457 0.457 0.457 0.126 0 0.24-0.051 0.323-0.134l0.912-0.912c0.082-0.083 0.133-0.197 0.133-0.323 0-0.252-0.204-0.457-0.457-0.457-0.126 0-0.24 0.051-0.323 0.134zM13.976 28.369c0.423-0.454 0.413-2.782 0.413-2.782s-1.709 0.908-2.064 1.498c-0.74 1.23 0.68 2.325 1.651 1.284zM21.936 23.686l0.002-0.001c0.135-0.079 0.226-0.226 0.226-0.394 0-0.252-0.204-0.457-0.457-0.457-0.084 0-0.163 0.023-0.228 0.061l-2.055 1.366v-2.326c0-0.252-0.204-0.457-0.457-0.457s-0.457 0.204-0.457 0.457v2.326l-2.052-1.365c-0.068-0.040-0.146-0.062-0.23-0.062-0.252 0-0.457 0.204-0.457 0.457 0 0.168 0.091 0.315 0.228 0.395l2.145 1.426-2.161 1.437c-0.135 0.079-0.226 0.226-0.226 0.394 0 0.252 0.204 0.457 0.457 0.457 0.084 0 0.163-0.023 0.228-0.061l2.069-1.376v2.365c0 0.252 0.204 0.457 0.457 0.457s0.457-0.204 0.457-0.457v-2.365l2.067 1.375c0.068 0.040 0.146 0.062 0.23 0.062 0.252 0 0.457-0.204 0.457-0.457 0-0.168-0.091-0.315-0.228-0.396l-2.159-1.436 2.145-1.426z"></path>
	</symbol>
	<symbol id="0062" viewBox="0 0 32 32">
		<title>0062</title>
		<path d="M24.904 25.588h-0c0.001 0 0.003 0 0.004 0 3.276 0 5.932-2.656 5.932-5.932 0-3.168-2.483-5.756-5.624-5.924l-0.019-0.049c-1.158-2.667-3.816-4.533-6.91-4.533-4.080 0-7.402 3.245-7.526 7.306l-0.012-0.001c-2.522 0-4.566 2.044-4.566 4.566s2.044 4.566 4.566 4.566h0.913c0.252 0 0.457-0.204 0.457-0.457s-0.204-0.457-0.457-0.457h-0.913c-0.001 0-0.001 0-0.002 0-2.017 0-3.651-1.635-3.651-3.651s1.635-3.651 3.651-3.651c0.345 0 0.68 0.048 0.971 0.131l0.004 0.034c-0.039-0.292-0.060-0.59-0.060-0.893 0-3.653 2.961-6.614 6.614-6.614 2.939 0 5.43 1.917 6.305 4.615 0.107-0.007 0.214-0.016 0.323-0.016v0c2.774 0 5.023 2.249 5.023 5.023s-2.249 5.023-5.023 5.023h-0v-0.001h-0.457v0.001c-0.252 0-0.457 0.204-0.457 0.457s0.204 0.457 0.457 0.457l0.004-0.001h0.453v0.001h0zM17.477 6.72l0-0c0.084-0.083 0.137-0.198 0.137-0.326 0-0.252-0.204-0.457-0.457-0.457-0.128 0-0.243 0.052-0.326 0.137l-0.912 0.912c-0.083 0.083-0.135 0.197-0.135 0.324 0 0.252 0.204 0.457 0.457 0.457 0.127 0 0.242-0.052 0.324-0.135l0.912-0.912zM14.078 9.026l-0-0c0.081 0.077 0.191 0.123 0.312 0.123 0.252 0 0.455-0.204 0.455-0.455 0-0.128-0.053-0.243-0.137-0.326l0 0c-0.034-0.031-0.074-0.057-0.12-0.078l0.008 0.007c-1.037-0.891-2.385-1.429-3.858-1.429-3.271 0-5.923 2.652-5.923 5.923 0 1.467 0.533 2.81 1.41 3.836l0.001 0.002c0.025 0.044 0.058 0.084 0.097 0.117 0.005 0.006 0.010 0.013 0.016 0.019l0-0.001c0.003 0.003 0.005 0.007 0.008 0.010l-0.001-0.001c0.077 0.060 0.174 0.096 0.28 0.096 0.251 0 0.455-0.204 0.455-0.455 0-0.14-0.063-0.265-0.164-0.349l0.009-0.011 0.006 0.007c-0.751-0.877-1.205-2.017-1.205-3.262 0-2.771 2.247-5.018 5.018-5.018 1.276 0 2.441 0.476 3.321 1.257l0.012-0.012zM10.749 5.498v0c0.252 0 0.457-0.204 0.457-0.457v-1.37c0-0.252-0.204-0.457-0.457-0.457s-0.457 0.204-0.457 0.457v1.37c0 0.252 0.204 0.457 0.457 0.457zM4.932 7.632v0c0.083 0.083 0.197 0.134 0.323 0.134 0.252 0 0.457-0.204 0.457-0.457 0-0.126-0.051-0.24-0.134-0.323l-0.912-0.912c-0.083-0.083-0.197-0.134-0.323-0.134-0.252 0-0.457 0.204-0.457 0.457 0 0.126 0.051 0.24 0.134 0.323l0.912 0.912zM2.987 13.26v0c0.252 0 0.457-0.204 0.457-0.457s-0.204-0.457-0.457-0.457h-1.37c-0.252 0-0.457 0.204-0.457 0.457s0.204 0.457 0.457 0.457h1.37zM4.021 18.886v0c-0.083 0.083-0.134 0.197-0.134 0.323 0 0.252 0.204 0.457 0.457 0.457 0.126 0 0.24-0.051 0.323-0.134l0.912-0.912c0.082-0.083 0.133-0.197 0.133-0.323 0-0.252-0.204-0.457-0.457-0.457-0.126 0-0.24 0.051-0.323 0.134zM13.976 28.369c0.423-0.454 0.413-2.782 0.413-2.782s-1.709 0.908-2.064 1.498c-0.74 1.23 0.68 2.325 1.651 1.284zM21.936 23.686l0.002-0.001c0.135-0.079 0.226-0.226 0.226-0.394 0-0.252-0.204-0.457-0.457-0.457-0.084 0-0.163 0.023-0.228 0.061l-2.055 1.366v-2.326c0-0.252-0.204-0.457-0.457-0.457s-0.457 0.204-0.457 0.457v2.326l-2.052-1.365c-0.068-0.040-0.146-0.062-0.23-0.062-0.252 0-0.457 0.204-0.457 0.457 0 0.168 0.091 0.315 0.228 0.395l2.145 1.426-2.161 1.437c-0.135 0.079-0.226 0.226-0.226 0.394 0 0.252 0.204 0.457 0.457 0.457 0.084 0 0.163-0.023 0.228-0.061l2.069-1.376v2.365c0 0.252 0.204 0.457 0.457 0.457s0.457-0.204 0.457-0.457v-2.365l2.067 1.375c0.068 0.040 0.146 0.062 0.23 0.062 0.252 0 0.457-0.204 0.457-0.457 0-0.168-0.091-0.315-0.228-0.396l-2.159-1.436 2.145-1.426z"></path>
	</symbol>
	<symbol id="006" viewBox="0 0 32 32">
		<title>006</title>
		<path d="M17.48 6.479v0c0.083-0.083 0.134-0.197 0.134-0.323 0-0.252-0.205-0.457-0.457-0.457-0.126 0-0.241 0.051-0.323 0.134l-0.913 0.913c-0.084 0.083-0.135 0.198-0.135 0.325 0 0.253 0.205 0.457 0.457 0.457 0.127 0 0.242-0.052 0.325-0.135l0.913-0.913zM14.075 8.788l-0-0c0.082 0.077 0.191 0.124 0.312 0.124 0.252 0 0.456-0.204 0.456-0.456 0-0.128-0.053-0.244-0.138-0.326l0 0c-0.034-0.031-0.074-0.057-0.119-0.078l0.008 0.007c-1.038-0.892-2.388-1.431-3.864-1.431-3.276 0-5.931 2.656-5.931 5.931 0 1.469 0.534 2.814 1.412 3.841l0.001 0.002c0.026 0.044 0.058 0.084 0.098 0.118 0.005 0.006 0.010 0.013 0.015 0.019l0-0.001c0.003 0.003 0.005 0.007 0.008 0.009l-0.001-0.001c0.077 0.060 0.175 0.096 0.28 0.096 0.252 0 0.455-0.204 0.455-0.455 0-0.14-0.063-0.266-0.164-0.35l0.009-0.011 0.006 0.007c-0.752-0.878-1.207-2.019-1.207-3.267 0-2.775 2.25-5.025 5.025-5.025 1.278 0 2.444 0.477 3.326 1.258l0.012-0.012zM10.742 5.255v0c0.253 0 0.457-0.205 0.457-0.457v-1.372c0-0.253-0.205-0.457-0.457-0.457s-0.457 0.205-0.457 0.457v1.372c0 0.253 0.205 0.457 0.457 0.457zM4.917 7.392v0c0.083 0.083 0.197 0.134 0.323 0.134 0.253 0 0.457-0.205 0.457-0.457 0-0.126-0.051-0.241-0.134-0.323l-0.913-0.913c-0.083-0.083-0.197-0.134-0.323-0.134-0.253 0-0.457 0.205-0.457 0.457 0 0.126 0.051 0.24 0.134 0.323l0.913 0.913zM2.97 13.028v0c0.253 0 0.457-0.205 0.457-0.457s-0.205-0.457-0.457-0.457h-1.372c-0.253 0-0.457 0.205-0.457 0.457s0.205 0.457 0.457 0.457h1.372zM4.005 18.661v0c-0.083 0.083-0.134 0.197-0.134 0.323 0 0.253 0.205 0.457 0.457 0.457 0.126 0 0.241-0.051 0.324-0.134l0.913-0.913c0.083-0.083 0.134-0.197 0.134-0.323 0-0.253-0.205-0.457-0.457-0.457-0.126 0-0.241 0.051-0.323 0.134zM24.916 25.373h-0c0.001 0 0.003 0 0.004 0 3.28 0 5.94-2.659 5.94-5.94 0-3.172-2.487-5.763-5.632-5.932l-0.019-0.049c-1.16-2.671-3.821-4.539-6.919-4.539-4.085 0-7.412 3.249-7.536 7.316l-0.012-0.001c0 0-0 0-0 0-2.525 0-4.572 2.047-4.572 4.572s2.047 4.572 4.572 4.572h1.372c0.253 0 0.457-0.205 0.457-0.457s-0.205-0.457-0.457-0.457h-1.372c-0.001 0-0.001 0-0.002 0-2.019 0-3.656-1.637-3.656-3.656s1.637-3.656 3.656-3.656c0.346 0 0.681 0.048 0.972 0.132l0.004 0.034c-0.040-0.292-0.060-0.591-0.060-0.894 0-3.658 2.965-6.623 6.623-6.623 2.943 0 5.437 1.919 6.313 4.622 0.108-0.007 0.214-0.016 0.324-0.016v0c2.778 0 5.029 2.252 5.029 5.029s-2.252 5.029-5.029 5.029h-0.915c-0.253 0-0.457 0.205-0.457 0.457s0.205 0.457 0.457 0.457c0 0 0 0 0 0h0.914zM21.029 23.925l0.002-0.001c0.134-0.080 0.224-0.226 0.224-0.393 0-0.253-0.205-0.457-0.457-0.457-0.083 0-0.161 0.022-0.226 0.060l-2.057 1.368v-2.329c0-0.253-0.205-0.457-0.457-0.457s-0.457 0.205-0.457 0.457v2.329l-2.055-1.367c-0.067-0.039-0.145-0.061-0.228-0.061-0.253 0-0.457 0.205-0.457 0.457 0 0.167 0.090 0.314 0.226 0.394l2.148 1.428-2.164 1.439c-0.135 0.079-0.226 0.226-0.226 0.394 0 0.253 0.205 0.457 0.457 0.457 0.084 0 0.162-0.023 0.228-0.061l2.072-1.378v2.368c0 0.253 0.205 0.457 0.457 0.457s0.457-0.205 0.457-0.457v-2.368l2.069 1.376c0.068 0.040 0.147 0.062 0.231 0.062 0.253 0 0.457-0.205 0.457-0.457 0-0.168-0.091-0.315-0.229-0.396l-2.162-1.438 2.148-1.428z"></path>
	</symbol>
	<symbol id="007" viewBox="0 0 32 32">
		<title>007</title>
		<path d="M17.48 6.479v0c0.083-0.083 0.134-0.197 0.134-0.323 0-0.252-0.205-0.457-0.457-0.457-0.126 0-0.241 0.051-0.323 0.134l-0.913 0.913c-0.084 0.083-0.135 0.198-0.135 0.325 0 0.253 0.205 0.457 0.457 0.457 0.127 0 0.242-0.052 0.325-0.135l0.913-0.913zM14.075 8.788l-0-0c0.082 0.077 0.191 0.124 0.312 0.124 0.252 0 0.456-0.204 0.456-0.456 0-0.128-0.053-0.244-0.138-0.326l0 0c-0.034-0.031-0.074-0.057-0.119-0.078l0.008 0.007c-1.038-0.892-2.388-1.431-3.864-1.431-3.276 0-5.931 2.656-5.931 5.931 0 1.469 0.534 2.814 1.412 3.841l0.001 0.002c0.026 0.044 0.058 0.084 0.098 0.118 0.005 0.006 0.010 0.013 0.015 0.019l0-0.001c0.003 0.003 0.005 0.007 0.008 0.009l-0.001-0.001c0.077 0.060 0.175 0.096 0.28 0.096 0.252 0 0.455-0.204 0.455-0.455 0-0.14-0.063-0.266-0.164-0.35l0.009-0.011 0.006 0.007c-0.752-0.878-1.207-2.019-1.207-3.267 0-2.775 2.25-5.025 5.025-5.025 1.278 0 2.444 0.477 3.326 1.258l0.012-0.012zM10.742 5.255v0c0.253 0 0.457-0.205 0.457-0.457v-1.372c0-0.253-0.205-0.457-0.457-0.457s-0.457 0.205-0.457 0.457v1.372c0 0.253 0.205 0.457 0.457 0.457zM4.917 7.392v0c0.083 0.083 0.197 0.134 0.323 0.134 0.253 0 0.457-0.205 0.457-0.457 0-0.126-0.051-0.241-0.134-0.323l-0.913-0.913c-0.083-0.083-0.197-0.134-0.323-0.134-0.253 0-0.457 0.205-0.457 0.457 0 0.126 0.051 0.24 0.134 0.323l0.913 0.913zM2.97 13.028v0c0.253 0 0.457-0.205 0.457-0.457s-0.205-0.457-0.457-0.457h-1.372c-0.253 0-0.457 0.205-0.457 0.457s0.205 0.457 0.457 0.457h1.372zM4.005 18.661v0c-0.083 0.083-0.134 0.197-0.134 0.323 0 0.253 0.205 0.457 0.457 0.457 0.126 0 0.241-0.051 0.324-0.134l0.913-0.913c0.083-0.083 0.134-0.197 0.134-0.323 0-0.253-0.205-0.457-0.457-0.457-0.126 0-0.241 0.051-0.323 0.134zM24.916 25.373h-0c0.001 0 0.003 0 0.004 0 3.28 0 5.94-2.659 5.94-5.94 0-3.172-2.487-5.763-5.632-5.932l-0.019-0.049c-1.16-2.671-3.821-4.539-6.919-4.539-4.085 0-7.412 3.249-7.536 7.316l-0.012-0.001c0 0-0 0-0 0-2.525 0-4.572 2.047-4.572 4.572s2.047 4.572 4.572 4.572h1.372c0.253 0 0.457-0.205 0.457-0.457s-0.205-0.457-0.457-0.457h-1.372c-0.001 0-0.001 0-0.002 0-2.019 0-3.656-1.637-3.656-3.656s1.637-3.656 3.656-3.656c0.346 0 0.681 0.048 0.972 0.132l0.004 0.034c-0.040-0.292-0.060-0.591-0.060-0.894 0-3.658 2.965-6.623 6.623-6.623 2.943 0 5.437 1.919 6.313 4.622 0.108-0.007 0.214-0.016 0.324-0.016v0c2.778 0 5.029 2.252 5.029 5.029s-2.252 5.029-5.029 5.029h-0.915c-0.253 0-0.457 0.205-0.457 0.457s0.205 0.457 0.457 0.457c0 0 0 0 0 0h0.914zM21.029 23.925l0.002-0.001c0.134-0.080 0.224-0.226 0.224-0.393 0-0.253-0.205-0.457-0.457-0.457-0.083 0-0.161 0.022-0.226 0.060l-2.057 1.368v-2.329c0-0.253-0.205-0.457-0.457-0.457s-0.457 0.205-0.457 0.457v2.329l-2.055-1.367c-0.067-0.039-0.145-0.061-0.228-0.061-0.253 0-0.457 0.205-0.457 0.457 0 0.167 0.090 0.314 0.226 0.394l2.148 1.428-2.164 1.439c-0.135 0.079-0.226 0.226-0.226 0.394 0 0.253 0.205 0.457 0.457 0.457 0.084 0 0.162-0.023 0.228-0.061l2.072-1.378v2.368c0 0.253 0.205 0.457 0.457 0.457s0.457-0.205 0.457-0.457v-2.368l2.069 1.376c0.068 0.040 0.147 0.062 0.231 0.062 0.253 0 0.457-0.205 0.457-0.457 0-0.168-0.091-0.315-0.229-0.396l-2.162-1.438 2.148-1.428z"></path>
	</symbol>
	<symbol id="011" viewBox="0 0 32 32">
		<title>011</title>
		<path d="M17.48 6.479v0c0.083-0.083 0.134-0.197 0.134-0.323 0-0.252-0.205-0.457-0.457-0.457-0.126 0-0.241 0.051-0.323 0.134l-0.913 0.913c-0.084 0.083-0.135 0.198-0.135 0.325 0 0.253 0.205 0.457 0.457 0.457 0.127 0 0.242-0.052 0.325-0.135l0.913-0.913zM14.075 8.788l-0-0c0.082 0.077 0.191 0.124 0.312 0.124 0.252 0 0.456-0.204 0.456-0.456 0-0.128-0.053-0.244-0.138-0.326l0 0c-0.034-0.031-0.074-0.057-0.119-0.078l0.008 0.007c-1.038-0.892-2.388-1.431-3.864-1.431-3.276 0-5.931 2.656-5.931 5.931 0 1.469 0.534 2.814 1.412 3.841l0.001 0.002c0.026 0.044 0.058 0.084 0.098 0.118 0.005 0.006 0.010 0.013 0.015 0.019l0-0.001c0.003 0.003 0.005 0.007 0.008 0.009l-0.001-0.001c0.077 0.060 0.175 0.096 0.28 0.096 0.252 0 0.455-0.204 0.455-0.455 0-0.14-0.063-0.266-0.164-0.35l0.009-0.011 0.006 0.007c-0.752-0.878-1.207-2.019-1.207-3.267 0-2.775 2.25-5.025 5.025-5.025 1.278 0 2.444 0.477 3.326 1.258l0.012-0.012zM10.742 5.255v0c0.253 0 0.457-0.205 0.457-0.457v-1.372c0-0.253-0.205-0.457-0.457-0.457s-0.457 0.205-0.457 0.457v1.372c0 0.253 0.205 0.457 0.457 0.457zM4.917 7.392v0c0.083 0.083 0.197 0.134 0.323 0.134 0.253 0 0.457-0.205 0.457-0.457 0-0.126-0.051-0.241-0.134-0.323l-0.913-0.913c-0.083-0.083-0.197-0.134-0.323-0.134-0.253 0-0.457 0.205-0.457 0.457 0 0.126 0.051 0.24 0.134 0.323l0.913 0.913zM2.97 13.028v0c0.253 0 0.457-0.205 0.457-0.457s-0.205-0.457-0.457-0.457h-1.372c-0.253 0-0.457 0.205-0.457 0.457s0.205 0.457 0.457 0.457h1.372zM4.005 18.661v0c-0.083 0.083-0.134 0.197-0.134 0.323 0 0.253 0.205 0.457 0.457 0.457 0.126 0 0.241-0.051 0.324-0.134l0.913-0.913c0.083-0.083 0.134-0.197 0.134-0.323 0-0.253-0.205-0.457-0.457-0.457-0.126 0-0.241 0.051-0.323 0.134zM24.916 25.373h-0c0.001 0 0.003 0 0.004 0 3.28 0 5.94-2.659 5.94-5.94 0-3.172-2.487-5.763-5.632-5.932l-0.019-0.049c-1.16-2.671-3.821-4.539-6.919-4.539-4.085 0-7.412 3.249-7.536 7.316l-0.012-0.001c0 0-0 0-0 0-2.525 0-4.572 2.047-4.572 4.572s2.047 4.572 4.572 4.572h1.372c0.253 0 0.457-0.205 0.457-0.457s-0.205-0.457-0.457-0.457h-1.372c-0.001 0-0.001 0-0.002 0-2.019 0-3.656-1.637-3.656-3.656s1.637-3.656 3.656-3.656c0.346 0 0.681 0.048 0.972 0.132l0.004 0.034c-0.040-0.292-0.060-0.591-0.060-0.894 0-3.658 2.965-6.623 6.623-6.623 2.943 0 5.437 1.919 6.313 4.622 0.108-0.007 0.214-0.016 0.324-0.016v0c2.778 0 5.029 2.252 5.029 5.029s-2.252 5.029-5.029 5.029h-0.915c-0.253 0-0.457 0.205-0.457 0.457s0.205 0.457 0.457 0.457c0 0 0 0 0 0h0.914zM21.029 23.925l0.002-0.001c0.134-0.080 0.224-0.226 0.224-0.393 0-0.253-0.205-0.457-0.457-0.457-0.083 0-0.161 0.022-0.226 0.060l-2.057 1.368v-2.329c0-0.253-0.205-0.457-0.457-0.457s-0.457 0.205-0.457 0.457v2.329l-2.055-1.367c-0.067-0.039-0.145-0.061-0.228-0.061-0.253 0-0.457 0.205-0.457 0.457 0 0.167 0.090 0.314 0.226 0.394l2.148 1.428-2.164 1.439c-0.135 0.079-0.226 0.226-0.226 0.394 0 0.253 0.205 0.457 0.457 0.457 0.084 0 0.162-0.023 0.228-0.061l2.072-1.378v2.368c0 0.253 0.205 0.457 0.457 0.457s0.457-0.205 0.457-0.457v-2.368l2.069 1.376c0.068 0.040 0.147 0.062 0.231 0.062 0.253 0 0.457-0.205 0.457-0.457 0-0.168-0.091-0.315-0.229-0.396l-2.162-1.438 2.148-1.428z"></path>
	</symbol>
	<symbol id="008" viewBox="0 0 32 32">
		<title>008</title>
		<path d="M23.518 25.666v0-0.001l-16.648 0.001c-2.966 0-5.37-2.404-5.37-5.37s2.404-5.37 5.37-5.37v0l0.014 0.001c0.146-4.777 4.053-8.593 8.852-8.593 3.638 0 6.764 2.194 8.127 5.332l0.022 0.057c3.694 0.198 6.615 3.242 6.615 6.967 0 3.853-3.124 6.977-6.977 6.977-0.002 0-0.003 0-0.005 0h0zM23.518 12.778c-0.128 0-0.254 0.011-0.38 0.019-1.029-3.174-3.959-5.428-7.415-5.428-4.296 0-7.779 3.483-7.779 7.779 0 0.356 0.024 0.707 0.070 1.050l-0.004-0.040c-0.342-0.098-0.735-0.154-1.142-0.154-2.372 0-4.295 1.923-4.295 4.295s1.923 4.295 4.295 4.295c0.001 0 0.001 0 0.002 0h16.648c3.262 0 5.907-2.645 5.907-5.907s-2.645-5.907-5.907-5.907v0z"></path>
	</symbol>
	<symbol id="200" viewBox="0 0 32 32">
		<title>200</title>
		<path d="M23.518 25.666v0-0.001l-16.648 0.001c-2.966 0-5.37-2.404-5.37-5.37s2.404-5.37 5.37-5.37v0l0.014 0.001c0.146-4.777 4.053-8.593 8.852-8.593 3.638 0 6.764 2.194 8.127 5.332l0.022 0.057c3.694 0.198 6.615 3.242 6.615 6.967 0 3.853-3.124 6.977-6.977 6.977-0.002 0-0.003 0-0.005 0h0zM23.518 12.778c-0.128 0-0.254 0.011-0.38 0.019-1.029-3.174-3.959-5.428-7.415-5.428-4.296 0-7.779 3.483-7.779 7.779 0 0.356 0.024 0.707 0.070 1.050l-0.004-0.040c-0.342-0.098-0.735-0.154-1.142-0.154-2.372 0-4.295 1.923-4.295 4.295s1.923 4.295 4.295 4.295c0.001 0 0.001 0 0.002 0h16.648c3.262 0 5.907-2.645 5.907-5.907s-2.645-5.907-5.907-5.907v0z"></path>
	</symbol>
	<symbol id="208" viewBox="0 0 32 32">
		<title>208</title>
		<path d="M23.518 25.666v0-0.001l-16.648 0.001c-2.966 0-5.37-2.404-5.37-5.37s2.404-5.37 5.37-5.37v0l0.014 0.001c0.146-4.777 4.053-8.593 8.852-8.593 3.638 0 6.764 2.194 8.127 5.332l0.022 0.057c3.694 0.198 6.615 3.242 6.615 6.967 0 3.853-3.124 6.977-6.977 6.977-0.002 0-0.003 0-0.005 0h0zM23.518 12.778c-0.128 0-0.254 0.011-0.38 0.019-1.029-3.174-3.959-5.428-7.415-5.428-4.296 0-7.779 3.483-7.779 7.779 0 0.356 0.024 0.707 0.070 1.050l-0.004-0.040c-0.342-0.098-0.735-0.154-1.142-0.154-2.372 0-4.295 1.923-4.295 4.295s1.923 4.295 4.295 4.295c0.001 0 0.001 0 0.002 0h16.648c3.262 0 5.907-2.645 5.907-5.907s-2.645-5.907-5.907-5.907v0z"></path>
	</symbol>
	<symbol id="999" viewBox="0 0 32 32">
		<title>999</title>
		<path d="M23.518 25.666v0-0.001l-16.648 0.001c-2.966 0-5.37-2.404-5.37-5.37s2.404-5.37 5.37-5.37v0l0.014 0.001c0.146-4.777 4.053-8.593 8.852-8.593 3.638 0 6.764 2.194 8.127 5.332l0.022 0.057c3.694 0.198 6.615 3.242 6.615 6.967 0 3.853-3.124 6.977-6.977 6.977-0.002 0-0.003 0-0.005 0h0zM23.518 12.778c-0.128 0-0.254 0.011-0.38 0.019-1.029-3.174-3.959-5.428-7.415-5.428-4.296 0-7.779 3.483-7.779 7.779 0 0.356 0.024 0.707 0.070 1.050l-0.004-0.040c-0.342-0.098-0.735-0.154-1.142-0.154-2.372 0-4.295 1.923-4.295 4.295s1.923 4.295 4.295 4.295c0.001 0 0.001 0 0.002 0h16.648c3.262 0 5.907-2.645 5.907-5.907s-2.645-5.907-5.907-5.907v0z"></path>
	</symbol>
	<symbol id="100" viewBox="0 0 32 32">
		<title>100</title>
		<path d="M16.321 28c-6.627 0-12-5.372-12-12s5.373-12 12-12v0c0.304 0 0.603 0.022 0.901 0.045l1.139 0.086-0.724 0.875c-1.365 1.616-2.194 3.722-2.194 6.023 0 5.17 4.191 9.362 9.362 9.362 0.001 0 0.003 0 0.004 0h-0c0.621-0.002 1.225-0.064 1.811-0.18l-0.060 0.010 1.12-0.212-0.48 1.034c-1.958 4.132-6.088 6.943-10.876 6.958h-0.002zM16.049 5.175c-5.868 0.145-10.57 4.936-10.57 10.826 0 5.981 4.848 10.829 10.829 10.829 3.941 0 7.39-2.105 9.285-5.253l0.027-0.049c-0.273 0.022-0.545 0.033-0.812 0.033-0.001 0-0.003 0-0.004 0-5.817 0-10.532-4.715-10.532-10.532 0-2.183 0.664-4.21 1.801-5.892l-0.024 0.037z"></path>
	</symbol>
	<symbol id="101" viewBox="0 0 32 32">
		<title>101</title>
		<path d="M24.302 28.83v-0.001l-15.598 0.001c-2.779 0-5.032-2.253-5.032-5.032s2.253-5.032 5.032-5.032v0l0.013 0.001c0.137-4.475 3.798-8.051 8.294-8.051 3.409 0 6.338 2.056 7.614 4.995l0.021 0.054c3.461 0.185 6.198 3.037 6.198 6.528 0 3.61-2.927 6.537-6.537 6.537-0.002 0-0.003 0-0.005 0h0zM24.302 16.755c-0.12 0-0.238 0.010-0.356 0.018-0.964-2.973-3.709-5.085-6.947-5.085-4.025 0-7.288 3.263-7.288 7.288 0 0.333 0.022 0.662 0.066 0.983l-0.004-0.038c-0.321-0.092-0.689-0.145-1.069-0.145-2.222 0-4.024 1.802-4.024 4.024s1.801 4.024 4.024 4.024c0.001 0 0.001 0 0.002 0h-0v-0.001l15.598 0.001c3.057 0 5.535-2.478 5.535-5.535s-2.478-5.535-5.535-5.535v0zM4.62 19.763l0.001-0.001c-0.233 0.237-0.442 0.496-0.637 0.794l0.004 0.004c-1.754-1.847-2.831-4.344-2.831-7.092 0-5.688 4.611-10.299 10.299-10.299 0.005 0 0.011 0 0.015 0 0.262 0 0.518 0.019 0.775 0.038l0.979 0.074-0.613 0.74c-1.183 1.394-1.896 3.2-1.896 5.171 0 1.041 0.199 2.036 0.542 2.894l-0.013 0.011c-0.271 0.226-0.528 0.469-0.773 0.732l0.023 0.057c-0.504-1.125-0.784-2.372-0.784-3.685 0-1.873 0.571-3.613 1.528-5.023l-0.011 0c-5.026 0.121-9.064 4.234-9.064 9.29 0 2.432 0.934 4.645 2.457 6.295z"></path>
	</symbol>
	<symbol id="108" viewBox="0 0 32 32">
		<title>108</title>
		<path d="M24.302 28.83v-0.001l-15.598 0.001c-2.779 0-5.032-2.253-5.032-5.032s2.253-5.032 5.032-5.032v0l0.013 0.001c0.137-4.475 3.798-8.051 8.294-8.051 3.409 0 6.338 2.056 7.614 4.995l0.021 0.054c3.461 0.185 6.198 3.037 6.198 6.528 0 3.61-2.927 6.537-6.537 6.537-0.002 0-0.003 0-0.005 0h0zM24.302 16.755c-0.12 0-0.238 0.010-0.356 0.018-0.964-2.973-3.709-5.085-6.947-5.085-4.025 0-7.288 3.263-7.288 7.288 0 0.333 0.022 0.662 0.066 0.983l-0.004-0.038c-0.321-0.092-0.689-0.145-1.069-0.145-2.222 0-4.024 1.802-4.024 4.024s1.801 4.024 4.024 4.024c0.001 0 0.001 0 0.002 0h-0v-0.001l15.598 0.001c3.057 0 5.535-2.478 5.535-5.535s-2.478-5.535-5.535-5.535v0zM4.62 19.763l0.001-0.001c-0.233 0.237-0.442 0.496-0.637 0.794l0.004 0.004c-1.754-1.847-2.831-4.344-2.831-7.092 0-5.688 4.611-10.299 10.299-10.299 0.005 0 0.011 0 0.015 0 0.262 0 0.518 0.019 0.775 0.038l0.979 0.074-0.613 0.74c-1.183 1.394-1.896 3.2-1.896 5.171 0 1.041 0.199 2.036 0.542 2.894l-0.013 0.011c-0.271 0.226-0.528 0.469-0.773 0.732l0.023 0.057c-0.504-1.125-0.784-2.372-0.784-3.685 0-1.873 0.571-3.613 1.528-5.023l-0.011 0c-5.026 0.121-9.064 4.234-9.064 9.29 0 2.432 0.934 4.645 2.457 6.295z"></path>
	</symbol>
	<symbol id="112" viewBox="0 0 32 32">
		<title>112</title>
		<path d="M24.302 28.83v-0.001l-15.598 0.001c-2.779 0-5.032-2.253-5.032-5.032s2.253-5.032 5.032-5.032v0l0.013 0.001c0.137-4.475 3.798-8.051 8.294-8.051 3.409 0 6.338 2.056 7.614 4.995l0.021 0.054c3.461 0.185 6.198 3.037 6.198 6.528 0 3.61-2.927 6.537-6.537 6.537-0.002 0-0.003 0-0.005 0h0zM24.302 16.755c-0.12 0-0.238 0.010-0.356 0.018-0.964-2.973-3.709-5.085-6.947-5.085-4.025 0-7.288 3.263-7.288 7.288 0 0.333 0.022 0.662 0.066 0.983l-0.004-0.038c-0.321-0.092-0.689-0.145-1.069-0.145-2.222 0-4.024 1.802-4.024 4.024s1.801 4.024 4.024 4.024c0.001 0 0.001 0 0.002 0h-0v-0.001l15.598 0.001c3.057 0 5.535-2.478 5.535-5.535s-2.478-5.535-5.535-5.535v0zM4.62 19.763l0.001-0.001c-0.233 0.237-0.442 0.496-0.637 0.794l0.004 0.004c-1.754-1.847-2.831-4.344-2.831-7.092 0-5.688 4.611-10.299 10.299-10.299 0.005 0 0.011 0 0.015 0 0.262 0 0.518 0.019 0.775 0.038l0.979 0.074-0.613 0.74c-1.183 1.394-1.896 3.2-1.896 5.171 0 1.041 0.199 2.036 0.542 2.894l-0.013 0.011c-0.271 0.226-0.528 0.469-0.773 0.732l0.023 0.057c-0.504-1.125-0.784-2.372-0.784-3.685 0-1.873 0.571-3.613 1.528-5.023l-0.011 0c-5.026 0.121-9.064 4.234-9.064 9.29 0 2.432 0.934 4.645 2.457 6.295z"></path>
	</symbol>
	<symbol id="1012" viewBox="0 0 32 32">
		<title>1012</title>
		<path d="M24.302 28.83v-0.001l-15.598 0.001c-2.779 0-5.032-2.253-5.032-5.032s2.253-5.032 5.032-5.032v0l0.013 0.001c0.137-4.475 3.798-8.051 8.294-8.051 3.409 0 6.338 2.056 7.614 4.995l0.021 0.054c3.461 0.185 6.198 3.037 6.198 6.528 0 3.61-2.927 6.537-6.537 6.537-0.002 0-0.003 0-0.005 0h0zM24.302 16.755c-0.12 0-0.238 0.010-0.356 0.018-0.964-2.973-3.709-5.085-6.947-5.085-4.025 0-7.288 3.263-7.288 7.288 0 0.333 0.022 0.662 0.066 0.983l-0.004-0.038c-0.321-0.092-0.689-0.145-1.069-0.145-2.222 0-4.024 1.802-4.024 4.024s1.801 4.024 4.024 4.024c0.001 0 0.001 0 0.002 0h-0v-0.001l15.598 0.001c3.057 0 5.535-2.478 5.535-5.535s-2.478-5.535-5.535-5.535v0zM4.62 19.763l0.001-0.001c-0.233 0.237-0.442 0.496-0.637 0.794l0.004 0.004c-1.754-1.847-2.831-4.344-2.831-7.092 0-5.688 4.611-10.299 10.299-10.299 0.005 0 0.011 0 0.015 0 0.262 0 0.518 0.019 0.775 0.038l0.979 0.074-0.613 0.74c-1.183 1.394-1.896 3.2-1.896 5.171 0 1.041 0.199 2.036 0.542 2.894l-0.013 0.011c-0.271 0.226-0.528 0.469-0.773 0.732l0.023 0.057c-0.504-1.125-0.784-2.372-0.784-3.685 0-1.873 0.571-3.613 1.528-5.023l-0.011 0c-5.026 0.121-9.064 4.234-9.064 9.29 0 2.432 0.934 4.645 2.457 6.295z"></path>
	</symbol>
	<symbol id="102" viewBox="0 0 32 32">
		<title>102</title>
		<path d="M24.389 26.931h-0c0.002 0 0.003 0 0.005 0 3.648 0 6.606-2.957 6.606-6.606 0-3.528-2.765-6.409-6.263-6.597l-0.021-0.054c-1.29-2.97-4.25-5.048-7.694-5.048-4.543 0-8.243 3.613-8.381 8.136l-0.013-0.001c-2.808 0-5.085 2.276-5.085 5.085s2.276 5.085 5.085 5.085h1.525c0.281 0 0.508-0.228 0.508-0.508s-0.228-0.508-0.508-0.508h-1.525c-0.001 0-0.001 0-0.002 0-2.246 0-4.066-1.82-4.066-4.066s1.82-4.066 4.066-4.066c0.385 0 0.757 0.053 1.081 0.146l0.004 0.038c-0.044-0.325-0.067-0.657-0.067-0.994 0-4.067 3.297-7.365 7.365-7.365 3.273 0 6.047 2.135 7.021 5.139 0.12-0.008 0.238-0.018 0.36-0.018v0c3.089 0 5.593 2.504 5.593 5.593s-2.504 5.593-5.593 5.593c-0.172 0-0.34-0.015-0.508-0.030v0.030c-0.281 0-0.508 0.228-0.508 0.508s0.228 0.508 0.508 0.508l0.002-0c0.036-0.003 0.071-0.011 0.101-0.021 0.135 0.010 0.269 0.021 0.406 0.021zM20.504 26.877c0.334-0.56 0.275-2.997 0.275-2.997s-1.76 1.018-2.199 1.635c-1.059 1.489 1.167 2.633 1.924 1.363zM13.942 29.107c-0.824 1.37 0.757 2.589 1.838 1.429 0.471-0.505 0.46-3.097 0.46-3.097s-1.904 1.011-2.298 1.668zM13.495 23.989c-1.059 1.488 1.167 2.633 1.924 1.362 0.334-0.56 0.275-2.997 0.275-2.997s-1.76 1.018-2.199 1.635zM4.5 17.769l0.001-0.001c-0.235 0.239-0.447 0.502-0.644 0.803l0.004 0.004c-1.773-1.866-2.861-4.39-2.861-7.167 0-5.748 4.66-10.408 10.408-10.408 0.005 0 0.011 0 0.015 0 0.264 0 0.524 0.019 0.783 0.039l0.989 0.075-0.619 0.748c-1.195 1.409-1.916 3.233-1.916 5.226 0 1.052 0.201 2.057 0.547 2.924l-0.014 0.011c-0.274 0.228-0.534 0.474-0.781 0.74l0.023 0.058c-0.509-1.137-0.793-2.397-0.793-3.724 0-1.893 0.577-3.651 1.544-5.076l-0.011 0c-5.079 0.123-9.159 4.279-9.159 9.387 0 2.457 0.944 4.694 2.483 6.361z"></path>
	</symbol>
	<symbol id="109" viewBox="0 0 32 32">
		<title>109</title>
		<path d="M24.389 26.931h-0c0.002 0 0.003 0 0.005 0 3.648 0 6.606-2.957 6.606-6.606 0-3.528-2.765-6.409-6.263-6.597l-0.021-0.054c-1.29-2.97-4.25-5.048-7.694-5.048-4.543 0-8.243 3.613-8.381 8.136l-0.013-0.001c-2.808 0-5.085 2.276-5.085 5.085s2.276 5.085 5.085 5.085h1.525c0.281 0 0.508-0.228 0.508-0.508s-0.228-0.508-0.508-0.508h-1.525c-0.001 0-0.001 0-0.002 0-2.246 0-4.066-1.82-4.066-4.066s1.82-4.066 4.066-4.066c0.385 0 0.757 0.053 1.081 0.146l0.004 0.038c-0.044-0.325-0.067-0.657-0.067-0.994 0-4.067 3.297-7.365 7.365-7.365 3.273 0 6.047 2.135 7.021 5.139 0.12-0.008 0.238-0.018 0.36-0.018v0c3.089 0 5.593 2.504 5.593 5.593s-2.504 5.593-5.593 5.593c-0.172 0-0.34-0.015-0.508-0.030v0.030c-0.281 0-0.508 0.228-0.508 0.508s0.228 0.508 0.508 0.508l0.002-0c0.036-0.003 0.071-0.011 0.101-0.021 0.135 0.010 0.269 0.021 0.406 0.021zM20.504 26.877c0.334-0.56 0.275-2.997 0.275-2.997s-1.76 1.018-2.199 1.635c-1.059 1.489 1.167 2.633 1.924 1.363zM13.942 29.107c-0.824 1.37 0.757 2.589 1.838 1.429 0.471-0.505 0.46-3.097 0.46-3.097s-1.904 1.011-2.298 1.668zM13.495 23.989c-1.059 1.488 1.167 2.633 1.924 1.362 0.334-0.56 0.275-2.997 0.275-2.997s-1.76 1.018-2.199 1.635zM4.5 17.769l0.001-0.001c-0.235 0.239-0.447 0.502-0.644 0.803l0.004 0.004c-1.773-1.866-2.861-4.39-2.861-7.167 0-5.748 4.66-10.408 10.408-10.408 0.005 0 0.011 0 0.015 0 0.264 0 0.524 0.019 0.783 0.039l0.989 0.075-0.619 0.748c-1.195 1.409-1.916 3.233-1.916 5.226 0 1.052 0.201 2.057 0.547 2.924l-0.014 0.011c-0.274 0.228-0.534 0.474-0.781 0.74l0.023 0.058c-0.509-1.137-0.793-2.397-0.793-3.724 0-1.893 0.577-3.651 1.544-5.076l-0.011 0c-5.079 0.123-9.159 4.279-9.159 9.387 0 2.457 0.944 4.694 2.483 6.361z"></path>
	</symbol>
	<symbol id="1022" viewBox="0 0 32 32">
		<title>1022</title>
		<path d="M24.389 26.931h-0c0.002 0 0.003 0 0.005 0 3.648 0 6.606-2.957 6.606-6.606 0-3.528-2.765-6.409-6.263-6.597l-0.021-0.054c-1.29-2.97-4.25-5.048-7.694-5.048-4.543 0-8.243 3.613-8.381 8.136l-0.013-0.001c-2.808 0-5.085 2.276-5.085 5.085s2.276 5.085 5.085 5.085h1.525c0.281 0 0.508-0.228 0.508-0.508s-0.228-0.508-0.508-0.508h-1.525c-0.001 0-0.001 0-0.002 0-2.246 0-4.066-1.82-4.066-4.066s1.82-4.066 4.066-4.066c0.385 0 0.757 0.053 1.081 0.146l0.004 0.038c-0.044-0.325-0.067-0.657-0.067-0.994 0-4.067 3.297-7.365 7.365-7.365 3.273 0 6.047 2.135 7.021 5.139 0.12-0.008 0.238-0.018 0.36-0.018v0c3.089 0 5.593 2.504 5.593 5.593s-2.504 5.593-5.593 5.593c-0.172 0-0.34-0.015-0.508-0.030v0.030c-0.281 0-0.508 0.228-0.508 0.508s0.228 0.508 0.508 0.508l0.002-0c0.036-0.003 0.071-0.011 0.101-0.021 0.135 0.010 0.269 0.021 0.406 0.021zM20.504 26.877c0.334-0.56 0.275-2.997 0.275-2.997s-1.76 1.018-2.199 1.635c-1.059 1.489 1.167 2.633 1.924 1.363zM13.942 29.107c-0.824 1.37 0.757 2.589 1.838 1.429 0.471-0.505 0.46-3.097 0.46-3.097s-1.904 1.011-2.298 1.668zM13.495 23.989c-1.059 1.488 1.167 2.633 1.924 1.362 0.334-0.56 0.275-2.997 0.275-2.997s-1.76 1.018-2.199 1.635zM4.5 17.769l0.001-0.001c-0.235 0.239-0.447 0.502-0.644 0.803l0.004 0.004c-1.773-1.866-2.861-4.39-2.861-7.167 0-5.748 4.66-10.408 10.408-10.408 0.005 0 0.011 0 0.015 0 0.264 0 0.524 0.019 0.783 0.039l0.989 0.075-0.619 0.748c-1.195 1.409-1.916 3.233-1.916 5.226 0 1.052 0.201 2.057 0.547 2.924l-0.014 0.011c-0.274 0.228-0.534 0.474-0.781 0.74l0.023 0.058c-0.509-1.137-0.793-2.397-0.793-3.724 0-1.893 0.577-3.651 1.544-5.076l-0.011 0c-5.079 0.123-9.159 4.279-9.159 9.387 0 2.457 0.944 4.694 2.483 6.361z"></path>
	</symbol>
	<symbol id="103" viewBox="0 0 32 32">
		<title>103</title>
		<path d="M24.389 26.932h-0c0.002 0 0.003 0 0.005 0 3.648 0 6.606-2.957 6.606-6.606 0-3.528-2.765-6.409-6.263-6.597l-0.021-0.054c-1.29-2.97-4.25-5.048-7.695-5.048-4.543 0-8.243 3.614-8.381 8.136l-0.013-0.001c-2.808 0-5.085 2.276-5.085 5.085s2.277 5.085 5.085 5.085h1.017c0.281 0 0.508-0.228 0.508-0.508s-0.228-0.508-0.508-0.508h-1.017c-0.001 0-0.001 0-0.002 0-2.246 0-4.066-1.82-4.066-4.066s1.82-4.066 4.066-4.066c0.385 0 0.757 0.053 1.081 0.146l0.004 0.038c-0.044-0.325-0.067-0.657-0.067-0.994 0-4.068 3.297-7.365 7.365-7.365 3.273 0 6.047 2.135 7.021 5.14 0.12-0.008 0.238-0.018 0.36-0.018v0c3.089 0 5.593 2.504 5.593 5.593s-2.504 5.593-5.593 5.593h-0v-0.001h-0.508v0.001c-0.281 0-0.508 0.228-0.508 0.508s0.228 0.508 0.508 0.508l0.004-0.001h0.504v0.001h0zM14.22 26.932h2.034l-1.017 4.068 4.576-5.593h-2.034l1.017-4.068zM12.68 26.932s-1.904 1.012-2.298 1.668c-0.824 1.37 0.757 2.589 1.838 1.43 0.471-0.505 0.46-3.098 0.46-3.098zM4.5 17.77l0.001-0.001c-0.235 0.239-0.447 0.501-0.644 0.803l0.004 0.004c-1.773-1.866-2.861-4.39-2.861-7.167 0-5.748 4.66-10.408 10.408-10.408 0.005 0 0.011 0 0.015 0 0.264 0 0.524 0.019 0.783 0.039l0.989 0.075-0.619 0.748c-1.195 1.409-1.916 3.233-1.916 5.226 0 1.052 0.201 2.057 0.547 2.924l-0.014 0.011c-0.274 0.228-0.534 0.474-0.781 0.74l0.023 0.058c-0.509-1.137-0.793-2.397-0.793-3.724 0-1.893 0.577-3.651 1.544-5.076l-0.011 0c-5.079 0.123-9.159 4.279-9.159 9.388 0 2.457 0.944 4.694 2.483 6.361z"></path>
	</symbol>
	<symbol id="105" viewBox="0 0 32 32">
		<title>105</title>
		<path d="M24.389 26.932h-0c0.002 0 0.003 0 0.005 0 3.648 0 6.606-2.957 6.606-6.606 0-3.528-2.765-6.409-6.263-6.597l-0.021-0.054c-1.29-2.97-4.25-5.048-7.695-5.048-4.543 0-8.243 3.614-8.381 8.136l-0.013-0.001c-2.808 0-5.085 2.276-5.085 5.085s2.277 5.085 5.085 5.085h1.017c0.281 0 0.508-0.228 0.508-0.508s-0.228-0.508-0.508-0.508h-1.017c-0.001 0-0.001 0-0.002 0-2.246 0-4.066-1.82-4.066-4.066s1.82-4.066 4.066-4.066c0.385 0 0.757 0.053 1.081 0.146l0.004 0.038c-0.044-0.325-0.067-0.657-0.067-0.994 0-4.068 3.297-7.365 7.365-7.365 3.273 0 6.047 2.135 7.021 5.14 0.12-0.008 0.238-0.018 0.36-0.018v0c3.089 0 5.593 2.504 5.593 5.593s-2.504 5.593-5.593 5.593h-0v-0.001h-0.508v0.001c-0.281 0-0.508 0.228-0.508 0.508s0.228 0.508 0.508 0.508l0.004-0.001h0.504v0.001h0zM14.22 26.932h2.034l-1.017 4.068 4.576-5.593h-2.034l1.017-4.068zM12.68 26.932s-1.904 1.012-2.298 1.668c-0.824 1.37 0.757 2.589 1.838 1.43 0.471-0.505 0.46-3.098 0.46-3.098zM4.5 17.77l0.001-0.001c-0.235 0.239-0.447 0.501-0.644 0.803l0.004 0.004c-1.773-1.866-2.861-4.39-2.861-7.167 0-5.748 4.66-10.408 10.408-10.408 0.005 0 0.011 0 0.015 0 0.264 0 0.524 0.019 0.783 0.039l0.989 0.075-0.619 0.748c-1.195 1.409-1.916 3.233-1.916 5.226 0 1.052 0.201 2.057 0.547 2.924l-0.014 0.011c-0.274 0.228-0.534 0.474-0.781 0.74l0.023 0.058c-0.509-1.137-0.793-2.397-0.793-3.724 0-1.893 0.577-3.651 1.544-5.076l-0.011 0c-5.079 0.123-9.159 4.279-9.159 9.388 0 2.457 0.944 4.694 2.483 6.361z"></path>
	</symbol>
	<symbol id="104" viewBox="0 0 32 32">
		<title>104</title>
		<path d="M24.38 27.173h-0c0.002 0 0.003 0 0.005 0 3.644 0 6.598-2.954 6.598-6.598 0-3.524-2.762-6.402-6.256-6.589l-0.021-0.054c-1.288-2.967-4.245-5.042-7.686-5.042-4.538 0-8.233 3.609-8.372 8.127l-0.013-0.001c-2.805 0-5.079 2.274-5.079 5.079s2.274 5.079 5.079 5.079h1.016c0.28 0 0.508-0.227 0.508-0.508s-0.227-0.508-0.508-0.508h-1.016c-0.001 0-0.001 0-0.002 0-2.243 0-4.062-1.818-4.062-4.062s1.818-4.062 4.062-4.062c0.384 0 0.756 0.053 1.080 0.146l0.004 0.038c-0.044-0.325-0.066-0.656-0.066-0.993 0-4.063 3.294-7.357 7.357-7.357 3.269 0 6.040 2.132 7.013 5.134 0.119-0.008 0.238-0.018 0.359-0.018v0c3.085 0 5.587 2.501 5.587 5.587s-2.501 5.587-5.587 5.587h-0v-0.001h-0.508v0.001c-0.28 0-0.508 0.227-0.508 0.508s0.227 0.508 0.508 0.508l0.004-0.001h0.504v0.001h0zM12.684 27.172s-1.901 1.010-2.296 1.666c-0.823 1.369 0.756 2.586 1.836 1.428 0.471-0.505 0.459-3.094 0.459-3.094zM21.079 25.057l0.002-0.001c0.151-0.088 0.252-0.252 0.252-0.439 0-0.28-0.227-0.508-0.508-0.508-0.093 0-0.181 0.025-0.254 0.068l-2.285 1.52v-2.587c0-0.28-0.227-0.508-0.508-0.508s-0.508 0.227-0.508 0.508v2.587l-2.283-1.518c-0.075-0.044-0.163-0.069-0.256-0.069-0.28 0-0.508 0.227-0.508 0.508 0 0.187 0.101 0.35 0.254 0.44l2.386 1.586-2.404 1.598c-0.151 0.088-0.252 0.252-0.252 0.439 0 0.281 0.227 0.508 0.508 0.508 0.093 0 0.181-0.025 0.254-0.068l2.301-1.53v2.631c0 0.28 0.227 0.508 0.508 0.508s0.508-0.227 0.508-0.508v-2.631l2.299 1.529c0.075 0.044 0.163 0.069 0.256 0.069 0.281 0 0.508-0.227 0.508-0.508 0-0.187-0.101-0.351-0.254-0.44l-2.401-1.597 2.386-1.586zM4.513 18.021l0.001-0.001c-0.235 0.239-0.447 0.501-0.643 0.802l0.004 0.004c-1.771-1.864-2.858-4.385-2.858-7.159 0-5.742 4.655-10.396 10.396-10.396 0.005 0 0.011 0 0.015 0 0.264 0 0.523 0.019 0.782 0.039l0.988 0.075-0.618 0.747c-1.194 1.408-1.914 3.23-1.914 5.22 0 1.051 0.201 2.055 0.547 2.921l-0.014 0.011c-0.274 0.228-0.533 0.473-0.78 0.739l0.023 0.058c-0.509-1.136-0.792-2.395-0.792-3.72 0-1.891 0.576-3.647 1.542-5.071l-0.011 0c-5.074 0.123-9.149 4.274-9.149 9.377 0 2.454 0.943 4.689 2.48 6.354z"></path>
	</symbol>
	<symbol id="110" viewBox="0 0 32 32">
		<title>110</title>
		<path d="M24.38 27.173h-0c0.002 0 0.003 0 0.005 0 3.644 0 6.598-2.954 6.598-6.598 0-3.524-2.762-6.402-6.256-6.589l-0.021-0.054c-1.288-2.967-4.245-5.042-7.686-5.042-4.538 0-8.233 3.609-8.372 8.127l-0.013-0.001c-2.805 0-5.079 2.274-5.079 5.079s2.274 5.079 5.079 5.079h1.016c0.28 0 0.508-0.227 0.508-0.508s-0.227-0.508-0.508-0.508h-1.016c-0.001 0-0.001 0-0.002 0-2.243 0-4.062-1.818-4.062-4.062s1.818-4.062 4.062-4.062c0.384 0 0.756 0.053 1.080 0.146l0.004 0.038c-0.044-0.325-0.066-0.656-0.066-0.993 0-4.063 3.294-7.357 7.357-7.357 3.269 0 6.040 2.132 7.013 5.134 0.119-0.008 0.238-0.018 0.359-0.018v0c3.085 0 5.587 2.501 5.587 5.587s-2.501 5.587-5.587 5.587h-0v-0.001h-0.508v0.001c-0.28 0-0.508 0.227-0.508 0.508s0.227 0.508 0.508 0.508l0.004-0.001h0.504v0.001h0zM12.684 27.172s-1.901 1.010-2.296 1.666c-0.823 1.369 0.756 2.586 1.836 1.428 0.471-0.505 0.459-3.094 0.459-3.094zM21.079 25.057l0.002-0.001c0.151-0.088 0.252-0.252 0.252-0.439 0-0.28-0.227-0.508-0.508-0.508-0.093 0-0.181 0.025-0.254 0.068l-2.285 1.52v-2.587c0-0.28-0.227-0.508-0.508-0.508s-0.508 0.227-0.508 0.508v2.587l-2.283-1.518c-0.075-0.044-0.163-0.069-0.256-0.069-0.28 0-0.508 0.227-0.508 0.508 0 0.187 0.101 0.35 0.254 0.44l2.386 1.586-2.404 1.598c-0.151 0.088-0.252 0.252-0.252 0.439 0 0.281 0.227 0.508 0.508 0.508 0.093 0 0.181-0.025 0.254-0.068l2.301-1.53v2.631c0 0.28 0.227 0.508 0.508 0.508s0.508-0.227 0.508-0.508v-2.631l2.299 1.529c0.075 0.044 0.163 0.069 0.256 0.069 0.281 0 0.508-0.227 0.508-0.508 0-0.187-0.101-0.351-0.254-0.44l-2.401-1.597 2.386-1.586zM4.513 18.021l0.001-0.001c-0.235 0.239-0.447 0.501-0.643 0.802l0.004 0.004c-1.771-1.864-2.858-4.385-2.858-7.159 0-5.742 4.655-10.396 10.396-10.396 0.005 0 0.011 0 0.015 0 0.264 0 0.523 0.019 0.782 0.039l0.988 0.075-0.618 0.747c-1.194 1.408-1.914 3.23-1.914 5.22 0 1.051 0.201 2.055 0.547 2.921l-0.014 0.011c-0.274 0.228-0.533 0.473-0.78 0.739l0.023 0.058c-0.509-1.136-0.792-2.395-0.792-3.72 0-1.891 0.576-3.647 1.542-5.071l-0.011 0c-5.074 0.123-9.149 4.274-9.149 9.377 0 2.454 0.943 4.689 2.48 6.354z"></path>
	</symbol>
	<symbol id="106" viewBox="0 0 32 32">
		<title>106</title>
		<path d="M24.389 26.932h-0c0.002 0 0.003 0 0.005 0 3.648 0 6.606-2.957 6.606-6.606 0-3.528-2.765-6.409-6.263-6.597l-0.021-0.054c-1.29-2.97-4.25-5.048-7.694-5.048-4.543 0-8.243 3.614-8.381 8.136l-0.013-0.001c0 0-0 0-0 0-2.808 0-5.085 2.276-5.085 5.085s2.276 5.085 5.085 5.085h1.525c0.281 0 0.508-0.228 0.508-0.508s-0.228-0.508-0.508-0.508h-1.525c-0.001 0-0.001 0-0.002 0-2.246 0-4.066-1.82-4.066-4.066s1.82-4.066 4.066-4.066c0.385 0 0.757 0.053 1.081 0.146l0.004 0.038c-0.044-0.325-0.067-0.657-0.067-0.994 0-4.068 3.297-7.365 7.365-7.365 3.273 0 6.047 2.135 7.021 5.139 0.12-0.008 0.238-0.018 0.36-0.018v0c3.089 0 5.593 2.504 5.593 5.593s-2.504 5.593-5.593 5.593h-1.017c-0.281 0-0.508 0.228-0.508 0.508s0.228 0.508 0.508 0.508c0 0 0 0 0 0h1.017zM20.067 25.322l0.002-0.001c0.149-0.089 0.249-0.251 0.249-0.437 0-0.281-0.228-0.508-0.508-0.508-0.092 0-0.179 0.025-0.251 0.066l-2.288 1.521v-2.59c0-0.281-0.228-0.508-0.508-0.508s-0.508 0.228-0.508 0.508v2.59l-2.285-1.52c-0.075-0.043-0.161-0.068-0.254-0.068-0.281 0-0.508 0.228-0.508 0.508 0 0.186 0.1 0.349 0.251 0.439l2.388 1.588-2.407 1.6c-0.15 0.088-0.251 0.252-0.251 0.439 0 0.281 0.228 0.509 0.509 0.509 0.093 0 0.181-0.025 0.253-0.068l2.304-1.532v2.634c0 0.281 0.228 0.508 0.508 0.508s0.508-0.228 0.508-0.508v-2.634l2.301 1.531c0.075 0.044 0.163 0.069 0.257 0.069 0.281 0 0.509-0.228 0.509-0.509 0-0.187-0.101-0.351-0.254-0.44l-2.404-1.599 2.388-1.588zM4.5 17.769l0.001-0.001c-0.235 0.239-0.447 0.502-0.644 0.803l0.004 0.004c-1.773-1.866-2.861-4.39-2.861-7.167 0-5.748 4.66-10.408 10.408-10.408 0.005 0 0.011 0 0.015 0 0.264 0 0.524 0.019 0.783 0.039l0.989 0.075-0.619 0.748c-1.195 1.409-1.916 3.233-1.916 5.226 0 1.052 0.201 2.057 0.547 2.924l-0.014 0.011c-0.274 0.228-0.534 0.474-0.781 0.74l0.023 0.058c-0.509-1.137-0.793-2.397-0.793-3.724 0-1.893 0.577-3.651 1.544-5.076l-0.011 0c-5.079 0.123-9.159 4.279-9.159 9.388 0 2.457 0.944 4.694 2.483 6.361z"></path>
	</symbol>
	<symbol id="111" viewBox="0 0 32 32">
		<title>111</title>
		<path d="M24.389 26.932h-0c0.002 0 0.003 0 0.005 0 3.648 0 6.606-2.957 6.606-6.606 0-3.528-2.765-6.409-6.263-6.597l-0.021-0.054c-1.29-2.97-4.25-5.048-7.694-5.048-4.543 0-8.243 3.614-8.381 8.136l-0.013-0.001c0 0-0 0-0 0-2.808 0-5.085 2.276-5.085 5.085s2.276 5.085 5.085 5.085h1.525c0.281 0 0.508-0.228 0.508-0.508s-0.228-0.508-0.508-0.508h-1.525c-0.001 0-0.001 0-0.002 0-2.246 0-4.066-1.82-4.066-4.066s1.82-4.066 4.066-4.066c0.385 0 0.757 0.053 1.081 0.146l0.004 0.038c-0.044-0.325-0.067-0.657-0.067-0.994 0-4.068 3.297-7.365 7.365-7.365 3.273 0 6.047 2.135 7.021 5.139 0.12-0.008 0.238-0.018 0.36-0.018v0c3.089 0 5.593 2.504 5.593 5.593s-2.504 5.593-5.593 5.593h-1.017c-0.281 0-0.508 0.228-0.508 0.508s0.228 0.508 0.508 0.508c0 0 0 0 0 0h1.017zM20.067 25.322l0.002-0.001c0.149-0.089 0.249-0.251 0.249-0.437 0-0.281-0.228-0.508-0.508-0.508-0.092 0-0.179 0.025-0.251 0.066l-2.288 1.521v-2.59c0-0.281-0.228-0.508-0.508-0.508s-0.508 0.228-0.508 0.508v2.59l-2.285-1.52c-0.075-0.043-0.161-0.068-0.254-0.068-0.281 0-0.508 0.228-0.508 0.508 0 0.186 0.1 0.349 0.251 0.439l2.388 1.588-2.407 1.6c-0.15 0.088-0.251 0.252-0.251 0.439 0 0.281 0.228 0.509 0.509 0.509 0.093 0 0.181-0.025 0.253-0.068l2.304-1.532v2.634c0 0.281 0.228 0.508 0.508 0.508s0.508-0.228 0.508-0.508v-2.634l2.301 1.531c0.075 0.044 0.163 0.069 0.257 0.069 0.281 0 0.509-0.228 0.509-0.509 0-0.187-0.101-0.351-0.254-0.44l-2.404-1.599 2.388-1.588zM4.5 17.769l0.001-0.001c-0.235 0.239-0.447 0.502-0.644 0.803l0.004 0.004c-1.773-1.866-2.861-4.39-2.861-7.167 0-5.748 4.66-10.408 10.408-10.408 0.005 0 0.011 0 0.015 0 0.264 0 0.524 0.019 0.783 0.039l0.989 0.075-0.619 0.748c-1.195 1.409-1.916 3.233-1.916 5.226 0 1.052 0.201 2.057 0.547 2.924l-0.014 0.011c-0.274 0.228-0.534 0.474-0.781 0.74l0.023 0.058c-0.509-1.137-0.793-2.397-0.793-3.724 0-1.893 0.577-3.651 1.544-5.076l-0.011 0c-5.079 0.123-9.159 4.279-9.159 9.388 0 2.457 0.944 4.694 2.483 6.361z"></path>
	</symbol>
	<symbol id="1062" viewBox="0 0 32 32">
		<title>1062</title>
		<path d="M24.389 26.932h-0c0.002 0 0.003 0 0.005 0 3.648 0 6.606-2.957 6.606-6.606 0-3.528-2.765-6.409-6.263-6.597l-0.021-0.054c-1.29-2.97-4.25-5.048-7.694-5.048-4.543 0-8.243 3.614-8.381 8.136l-0.013-0.001c0 0-0 0-0 0-2.808 0-5.085 2.276-5.085 5.085s2.276 5.085 5.085 5.085h1.525c0.281 0 0.508-0.228 0.508-0.508s-0.228-0.508-0.508-0.508h-1.525c-0.001 0-0.001 0-0.002 0-2.246 0-4.066-1.82-4.066-4.066s1.82-4.066 4.066-4.066c0.385 0 0.757 0.053 1.081 0.146l0.004 0.038c-0.044-0.325-0.067-0.657-0.067-0.994 0-4.068 3.297-7.365 7.365-7.365 3.273 0 6.047 2.135 7.021 5.139 0.12-0.008 0.238-0.018 0.36-0.018v0c3.089 0 5.593 2.504 5.593 5.593s-2.504 5.593-5.593 5.593h-1.017c-0.281 0-0.508 0.228-0.508 0.508s0.228 0.508 0.508 0.508c0 0 0 0 0 0h1.017zM20.067 25.322l0.002-0.001c0.149-0.089 0.249-0.251 0.249-0.437 0-0.281-0.228-0.508-0.508-0.508-0.092 0-0.179 0.025-0.251 0.066l-2.288 1.521v-2.59c0-0.281-0.228-0.508-0.508-0.508s-0.508 0.228-0.508 0.508v2.59l-2.285-1.52c-0.075-0.043-0.161-0.068-0.254-0.068-0.281 0-0.508 0.228-0.508 0.508 0 0.186 0.1 0.349 0.251 0.439l2.388 1.588-2.407 1.6c-0.15 0.088-0.251 0.252-0.251 0.439 0 0.281 0.228 0.509 0.509 0.509 0.093 0 0.181-0.025 0.253-0.068l2.304-1.532v2.634c0 0.281 0.228 0.508 0.508 0.508s0.508-0.228 0.508-0.508v-2.634l2.301 1.531c0.075 0.044 0.163 0.069 0.257 0.069 0.281 0 0.509-0.228 0.509-0.509 0-0.187-0.101-0.351-0.254-0.44l-2.404-1.599 2.388-1.588zM4.5 17.769l0.001-0.001c-0.235 0.239-0.447 0.502-0.644 0.803l0.004 0.004c-1.773-1.866-2.861-4.39-2.861-7.167 0-5.748 4.66-10.408 10.408-10.408 0.005 0 0.011 0 0.015 0 0.264 0 0.524 0.019 0.783 0.039l0.989 0.075-0.619 0.748c-1.195 1.409-1.916 3.233-1.916 5.226 0 1.052 0.201 2.057 0.547 2.924l-0.014 0.011c-0.274 0.228-0.534 0.474-0.781 0.74l0.023 0.058c-0.509-1.137-0.793-2.397-0.793-3.724 0-1.893 0.577-3.651 1.544-5.076l-0.011 0c-5.079 0.123-9.159 4.279-9.159 9.388 0 2.457 0.944 4.694 2.483 6.361z"></path>
	</symbol>
	<symbol id="107" viewBox="0 0 32 32">
		<title>107</title>
		<path d="M23.66 23.66h-0c0.002 0 0.003 0 0.005 0 3.926 0 7.108-3.182 7.108-7.108 0-3.796-2.976-6.897-6.739-7.098l-0.023-0.058c-1.388-3.196-4.573-5.432-8.28-5.432-4.889 0-8.87 3.888-9.019 8.755l-0.014-0.001c-3.022 0-5.471 2.45-5.471 5.471s2.45 5.471 5.471 5.471h1.641c0.302 0 0.547-0.245 0.547-0.547s-0.245-0.547-0.547-0.547h-1.641c-0.001 0-0.001 0-0.002 0-2.416 0-4.375-1.959-4.375-4.375s1.959-4.375 4.375-4.375c0.414 0 0.814 0.057 1.163 0.157l0.005 0.041c-0.047-0.35-0.072-0.707-0.072-1.069 0-4.377 3.548-7.925 7.925-7.925 3.521 0 6.506 2.297 7.555 5.53 0.129-0.008 0.256-0.020 0.387-0.020v0c3.324 0 6.018 2.695 6.018 6.018s-2.695 6.018-6.018 6.018h-1.094c-0.302 0-0.547 0.245-0.547 0.547s0.245 0.547 0.547 0.547h1.094zM19.009 21.927l0.003-0.001c0.162-0.095 0.271-0.271 0.271-0.472 0-0.302-0.245-0.547-0.547-0.547-0.101 0-0.195 0.027-0.274 0.073l-2.462 1.637v-2.787c0-0.302-0.245-0.547-0.547-0.547s-0.547 0.245-0.547 0.547v2.787l-2.459-1.636c-0.081-0.047-0.175-0.075-0.276-0.075-0.302 0-0.547 0.245-0.547 0.547 0 0.201 0.109 0.378 0.274 0.474l2.57 1.709-2.59 1.722c-0.162 0.095-0.271 0.271-0.271 0.473 0 0.302 0.245 0.547 0.547 0.547 0.101 0 0.195-0.027 0.274-0.073l2.479-1.648v2.834c0 0.302 0.245 0.547 0.547 0.547s0.547-0.245 0.547-0.547v-2.834l2.476 1.647c0.081 0.047 0.175 0.075 0.276 0.075 0.302 0 0.547-0.245 0.547-0.547 0-0.202-0.109-0.378-0.274-0.474l-2.587-1.72 2.57-1.709z"></path>
	</symbol>
	<symbol id="206" viewBox="0 0 32 32">
		<title>206</title>
		<path d="M23.66 23.66h-0c0.002 0 0.003 0 0.005 0 3.926 0 7.108-3.182 7.108-7.108 0-3.796-2.976-6.897-6.739-7.098l-0.023-0.058c-1.388-3.196-4.573-5.432-8.28-5.432-4.889 0-8.87 3.888-9.019 8.755l-0.014-0.001c-3.022 0-5.471 2.45-5.471 5.471s2.45 5.471 5.471 5.471h1.641c0.302 0 0.547-0.245 0.547-0.547s-0.245-0.547-0.547-0.547h-1.641c-0.001 0-0.001 0-0.002 0-2.416 0-4.375-1.959-4.375-4.375s1.959-4.375 4.375-4.375c0.414 0 0.814 0.057 1.163 0.157l0.005 0.041c-0.047-0.35-0.072-0.707-0.072-1.069 0-4.377 3.548-7.925 7.925-7.925 3.521 0 6.506 2.297 7.555 5.53 0.129-0.008 0.256-0.020 0.387-0.020v0c3.324 0 6.018 2.695 6.018 6.018s-2.695 6.018-6.018 6.018h-1.094c-0.302 0-0.547 0.245-0.547 0.547s0.245 0.547 0.547 0.547h1.094zM19.009 21.927l0.003-0.001c0.162-0.095 0.271-0.271 0.271-0.472 0-0.302-0.245-0.547-0.547-0.547-0.101 0-0.195 0.027-0.274 0.073l-2.462 1.637v-2.787c0-0.302-0.245-0.547-0.547-0.547s-0.547 0.245-0.547 0.547v2.787l-2.459-1.636c-0.081-0.047-0.175-0.075-0.276-0.075-0.302 0-0.547 0.245-0.547 0.547 0 0.201 0.109 0.378 0.274 0.474l2.57 1.709-2.59 1.722c-0.162 0.095-0.271 0.271-0.271 0.473 0 0.302 0.245 0.547 0.547 0.547 0.101 0 0.195-0.027 0.274-0.073l2.479-1.648v2.834c0 0.302 0.245 0.547 0.547 0.547s0.547-0.245 0.547-0.547v-2.834l2.476 1.647c0.081 0.047 0.175 0.075 0.276 0.075 0.302 0 0.547-0.245 0.547-0.547 0-0.202-0.109-0.378-0.274-0.474l-2.587-1.72 2.57-1.709z"></path>
	</symbol>
	<symbol id="207" viewBox="0 0 32 32">
		<title>207</title>
		<path d="M23.66 23.66h-0c0.002 0 0.003 0 0.005 0 3.926 0 7.108-3.182 7.108-7.108 0-3.796-2.976-6.897-6.739-7.098l-0.023-0.058c-1.388-3.196-4.573-5.432-8.28-5.432-4.889 0-8.87 3.888-9.019 8.755l-0.014-0.001c-3.022 0-5.471 2.45-5.471 5.471s2.45 5.471 5.471 5.471h1.641c0.302 0 0.547-0.245 0.547-0.547s-0.245-0.547-0.547-0.547h-1.641c-0.001 0-0.001 0-0.002 0-2.416 0-4.375-1.959-4.375-4.375s1.959-4.375 4.375-4.375c0.414 0 0.814 0.057 1.163 0.157l0.005 0.041c-0.047-0.35-0.072-0.707-0.072-1.069 0-4.377 3.548-7.925 7.925-7.925 3.521 0 6.506 2.297 7.555 5.53 0.129-0.008 0.256-0.020 0.387-0.020v0c3.324 0 6.018 2.695 6.018 6.018s-2.695 6.018-6.018 6.018h-1.094c-0.302 0-0.547 0.245-0.547 0.547s0.245 0.547 0.547 0.547h1.094zM19.009 21.927l0.003-0.001c0.162-0.095 0.271-0.271 0.271-0.472 0-0.302-0.245-0.547-0.547-0.547-0.101 0-0.195 0.027-0.274 0.073l-2.462 1.637v-2.787c0-0.302-0.245-0.547-0.547-0.547s-0.547 0.245-0.547 0.547v2.787l-2.459-1.636c-0.081-0.047-0.175-0.075-0.276-0.075-0.302 0-0.547 0.245-0.547 0.547 0 0.201 0.109 0.378 0.274 0.474l2.57 1.709-2.59 1.722c-0.162 0.095-0.271 0.271-0.271 0.473 0 0.302 0.245 0.547 0.547 0.547 0.101 0 0.195-0.027 0.274-0.073l2.479-1.648v2.834c0 0.302 0.245 0.547 0.547 0.547s0.547-0.245 0.547-0.547v-2.834l2.476 1.647c0.081 0.047 0.175 0.075 0.276 0.075 0.302 0 0.547-0.245 0.547-0.547 0-0.202-0.109-0.378-0.274-0.474l-2.587-1.72 2.57-1.709z"></path>
	</symbol>
	<symbol id="2062" viewBox="0 0 32 32">
		<title>2062</title>
		<path d="M23.66 23.66h-0c0.002 0 0.003 0 0.005 0 3.926 0 7.108-3.182 7.108-7.108 0-3.796-2.976-6.897-6.739-7.098l-0.023-0.058c-1.388-3.196-4.573-5.432-8.28-5.432-4.889 0-8.87 3.888-9.019 8.755l-0.014-0.001c-3.022 0-5.471 2.45-5.471 5.471s2.45 5.471 5.471 5.471h1.641c0.302 0 0.547-0.245 0.547-0.547s-0.245-0.547-0.547-0.547h-1.641c-0.001 0-0.001 0-0.002 0-2.416 0-4.375-1.959-4.375-4.375s1.959-4.375 4.375-4.375c0.414 0 0.814 0.057 1.163 0.157l0.005 0.041c-0.047-0.35-0.072-0.707-0.072-1.069 0-4.377 3.548-7.925 7.925-7.925 3.521 0 6.506 2.297 7.555 5.53 0.129-0.008 0.256-0.020 0.387-0.020v0c3.324 0 6.018 2.695 6.018 6.018s-2.695 6.018-6.018 6.018h-1.094c-0.302 0-0.547 0.245-0.547 0.547s0.245 0.547 0.547 0.547h1.094zM19.009 21.927l0.003-0.001c0.162-0.095 0.271-0.271 0.271-0.472 0-0.302-0.245-0.547-0.547-0.547-0.101 0-0.195 0.027-0.274 0.073l-2.462 1.637v-2.787c0-0.302-0.245-0.547-0.547-0.547s-0.547 0.245-0.547 0.547v2.787l-2.459-1.636c-0.081-0.047-0.175-0.075-0.276-0.075-0.302 0-0.547 0.245-0.547 0.547 0 0.201 0.109 0.378 0.274 0.474l2.57 1.709-2.59 1.722c-0.162 0.095-0.271 0.271-0.271 0.473 0 0.302 0.245 0.547 0.547 0.547 0.101 0 0.195-0.027 0.274-0.073l2.479-1.648v2.834c0 0.302 0.245 0.547 0.547 0.547s0.547-0.245 0.547-0.547v-2.834l2.476 1.647c0.081 0.047 0.175 0.075 0.276 0.075 0.302 0 0.547-0.245 0.547-0.547 0-0.202-0.109-0.378-0.274-0.474l-2.587-1.72 2.57-1.709z"></path>
	</symbol>
	<symbol id="202" viewBox="0 0 32 32">
		<title>202</title>
		<path d="M23.645 23.918h-0c0.002 0 0.003 0 0.005 0 3.918 0 7.094-3.176 7.094-7.094 0-3.789-2.97-6.884-6.726-7.085l-0.023-0.058c-1.385-3.19-4.564-5.421-8.264-5.421-4.879 0-8.852 3.881-9.001 8.738l-0.014-0.001c-3.016 0-5.461 2.445-5.461 5.461s2.445 5.461 5.461 5.461h2.184c0.302 0 0.546-0.244 0.546-0.546s-0.245-0.546-0.546-0.546h-2.184c-0.001 0-0.001 0-0.002 0-2.412 0-4.367-1.955-4.367-4.367s1.955-4.367 4.367-4.367c0.413 0 0.813 0.057 1.161 0.157l0.005 0.041c-0.047-0.349-0.071-0.705-0.071-1.067 0-4.369 3.541-7.91 7.91-7.91 3.515 0 6.494 2.292 7.54 5.519 0.128-0.008 0.256-0.019 0.386-0.019v0c3.317 0 6.007 2.689 6.007 6.007s-2.689 6.007-6.007 6.007h-1.092c-0.302 0-0.546 0.244-0.546 0.546s0.244 0.546 0.546 0.546h1.092zM19.472 23.859c0.358-0.601 0.295-3.219 0.295-3.219s-1.89 1.093-2.361 1.755c-1.137 1.599 1.253 2.828 2.066 1.463zM12.424 25.708c-0.884 1.471 0.813 2.78 1.974 1.536 0.506-0.543 0.494-3.327 0.494-3.327s-2.044 1.086-2.468 1.791zM11.945 20.758c-1.137 1.598 1.253 2.828 2.066 1.463 0.358-0.601 0.295-3.219 0.295-3.219s-1.89 1.094-2.361 1.756z"></path>
	</symbol>
	<symbol id="210" viewBox="0 0 32 32">
		<title>210</title>
		<path d="M23.645 23.918h-0c0.002 0 0.003 0 0.005 0 3.918 0 7.094-3.176 7.094-7.094 0-3.789-2.97-6.884-6.726-7.085l-0.023-0.058c-1.385-3.19-4.564-5.421-8.264-5.421-4.879 0-8.852 3.881-9.001 8.738l-0.014-0.001c-3.016 0-5.461 2.445-5.461 5.461s2.445 5.461 5.461 5.461h2.184c0.302 0 0.546-0.244 0.546-0.546s-0.245-0.546-0.546-0.546h-2.184c-0.001 0-0.001 0-0.002 0-2.412 0-4.367-1.955-4.367-4.367s1.955-4.367 4.367-4.367c0.413 0 0.813 0.057 1.161 0.157l0.005 0.041c-0.047-0.349-0.071-0.705-0.071-1.067 0-4.369 3.541-7.91 7.91-7.91 3.515 0 6.494 2.292 7.54 5.519 0.128-0.008 0.256-0.019 0.386-0.019v0c3.317 0 6.007 2.689 6.007 6.007s-2.689 6.007-6.007 6.007h-1.092c-0.302 0-0.546 0.244-0.546 0.546s0.244 0.546 0.546 0.546h1.092zM19.472 23.859c0.358-0.601 0.295-3.219 0.295-3.219s-1.89 1.093-2.361 1.755c-1.137 1.599 1.253 2.828 2.066 1.463zM12.424 25.708c-0.884 1.471 0.813 2.78 1.974 1.536 0.506-0.543 0.494-3.327 0.494-3.327s-2.044 1.086-2.468 1.791zM11.945 20.758c-1.137 1.598 1.253 2.828 2.066 1.463 0.358-0.601 0.295-3.219 0.295-3.219s-1.89 1.094-2.361 1.756z"></path>
	</symbol>
	<symbol id="2022" viewBox="0 0 32 32">
		<title>2022</title>
		<path d="M23.645 23.918h-0c0.002 0 0.003 0 0.005 0 3.918 0 7.094-3.176 7.094-7.094 0-3.789-2.97-6.884-6.726-7.085l-0.023-0.058c-1.385-3.19-4.564-5.421-8.264-5.421-4.879 0-8.852 3.881-9.001 8.738l-0.014-0.001c-3.016 0-5.461 2.445-5.461 5.461s2.445 5.461 5.461 5.461h2.184c0.302 0 0.546-0.244 0.546-0.546s-0.245-0.546-0.546-0.546h-2.184c-0.001 0-0.001 0-0.002 0-2.412 0-4.367-1.955-4.367-4.367s1.955-4.367 4.367-4.367c0.413 0 0.813 0.057 1.161 0.157l0.005 0.041c-0.047-0.349-0.071-0.705-0.071-1.067 0-4.369 3.541-7.91 7.91-7.91 3.515 0 6.494 2.292 7.54 5.519 0.128-0.008 0.256-0.019 0.386-0.019v0c3.317 0 6.007 2.689 6.007 6.007s-2.689 6.007-6.007 6.007h-1.092c-0.302 0-0.546 0.244-0.546 0.546s0.244 0.546 0.546 0.546h1.092zM19.472 23.859c0.358-0.601 0.295-3.219 0.295-3.219s-1.89 1.093-2.361 1.755c-1.137 1.599 1.253 2.828 2.066 1.463zM12.424 25.708c-0.884 1.471 0.813 2.78 1.974 1.536 0.506-0.543 0.494-3.327 0.494-3.327s-2.044 1.086-2.468 1.791zM11.945 20.758c-1.137 1.598 1.253 2.828 2.066 1.463 0.358-0.601 0.295-3.219 0.295-3.219s-1.89 1.094-2.361 1.756z"></path>
	</symbol>
	<symbol id="203" viewBox="0 0 32 32">
		<title>203</title>
		<path d="M23.66 23.66h-0c0.002 0 0.003 0 0.005 0 3.926 0 7.108-3.182 7.108-7.108 0-3.796-2.976-6.897-6.739-7.098l-0.023-0.058c-1.388-3.196-4.573-5.432-8.28-5.432-4.889 0-8.869 3.888-9.018 8.755l-0.014-0.001c-3.022 0-5.471 2.45-5.471 5.471s2.45 5.471 5.471 5.471h1.094c0.302 0 0.547-0.245 0.547-0.547s-0.245-0.547-0.547-0.547h-1.094c-0.001 0-0.001 0-0.002 0-2.416 0-4.375-1.959-4.375-4.375s1.959-4.375 4.375-4.375c0.414 0 0.814 0.057 1.163 0.157l0.005 0.041c-0.047-0.35-0.072-0.707-0.072-1.070 0-4.377 3.548-7.925 7.925-7.925 3.522 0 6.507 2.297 7.555 5.53 0.129-0.008 0.256-0.020 0.387-0.020v0c3.324 0 6.018 2.695 6.018 6.018s-2.695 6.018-6.018 6.018h-0v-0.001h-0.547v0.001c-0.302 0-0.547 0.245-0.547 0.547s0.245 0.547 0.547 0.547l0.004-0.001h0.543v0.001h0zM12.717 23.659h2.189l-1.094 4.377 4.924-6.018h-2.189l1.094-4.377zM10.566 26.992c0.507-0.544 0.495-3.333 0.495-3.333s-2.048 1.089-2.473 1.795c-0.886 1.474 0.815 2.786 1.978 1.538z"></path>
	</symbol>
	<symbol id="205" viewBox="0 0 32 32">
		<title>205</title>
		<path d="M23.66 23.66h-0c0.002 0 0.003 0 0.005 0 3.926 0 7.108-3.182 7.108-7.108 0-3.796-2.976-6.897-6.739-7.098l-0.023-0.058c-1.388-3.196-4.573-5.432-8.28-5.432-4.889 0-8.869 3.888-9.018 8.755l-0.014-0.001c-3.022 0-5.471 2.45-5.471 5.471s2.45 5.471 5.471 5.471h1.094c0.302 0 0.547-0.245 0.547-0.547s-0.245-0.547-0.547-0.547h-1.094c-0.001 0-0.001 0-0.002 0-2.416 0-4.375-1.959-4.375-4.375s1.959-4.375 4.375-4.375c0.414 0 0.814 0.057 1.163 0.157l0.005 0.041c-0.047-0.35-0.072-0.707-0.072-1.070 0-4.377 3.548-7.925 7.925-7.925 3.522 0 6.507 2.297 7.555 5.53 0.129-0.008 0.256-0.020 0.387-0.020v0c3.324 0 6.018 2.695 6.018 6.018s-2.695 6.018-6.018 6.018h-0v-0.001h-0.547v0.001c-0.302 0-0.547 0.245-0.547 0.547s0.245 0.547 0.547 0.547l0.004-0.001h0.543v0.001h0zM12.717 23.659h2.189l-1.094 4.377 4.924-6.018h-2.189l1.094-4.377zM10.566 26.992c0.507-0.544 0.495-3.333 0.495-3.333s-2.048 1.089-2.473 1.795c-0.886 1.474 0.815 2.786 1.978 1.538z"></path>
	</symbol>
	<symbol id="204" viewBox="0 0 32 32">
		<title>204</title>
		<path d="M23.645 23.918h-0c0.002 0 0.003 0 0.005 0 3.918 0 7.094-3.176 7.094-7.094 0-3.789-2.97-6.884-6.726-7.085l-0.023-0.058c-1.385-3.19-4.564-5.421-8.264-5.421-4.879 0-8.852 3.881-9.001 8.738l-0.014-0.001c-3.016 0-5.461 2.445-5.461 5.461s2.445 5.461 5.461 5.461h1.092c0.302 0 0.546-0.244 0.546-0.546s-0.245-0.546-0.546-0.546h-1.092c-0.001 0-0.001 0-0.002 0-2.412 0-4.367-1.955-4.367-4.367s1.955-4.367 4.367-4.367c0.413 0 0.813 0.057 1.161 0.157l0.005 0.041c-0.047-0.349-0.072-0.706-0.072-1.068 0-4.368 3.541-7.91 7.91-7.91 3.515 0 6.494 2.292 7.54 5.52 0.128-0.008 0.256-0.019 0.386-0.019v0c3.317 0 6.007 2.689 6.007 6.007s-2.689 6.007-6.007 6.007h-0v-0.001h-0.546v0.001c-0.302 0-0.546 0.244-0.546 0.546s0.244 0.546 0.546 0.546l0.004-0.001h0.542v0.001h0zM10.576 27.244c0.506-0.543 0.494-3.327 0.494-3.327s-2.044 1.086-2.468 1.791c-0.884 1.471 0.813 2.78 1.974 1.536zM20.095 21.642l0.003-0.001c0.162-0.095 0.27-0.27 0.27-0.472 0-0.302-0.244-0.546-0.546-0.546-0.101 0-0.195 0.027-0.273 0.073l-2.457 1.634v-2.781c0-0.302-0.244-0.546-0.546-0.546s-0.546 0.244-0.546 0.546v2.781l-2.455-1.632c-0.081-0.047-0.175-0.075-0.276-0.075-0.302 0-0.546 0.244-0.546 0.546 0 0.201 0.109 0.377 0.273 0.473l2.565 1.706-2.585 1.718c-0.162 0.095-0.271 0.271-0.271 0.472 0 0.302 0.245 0.546 0.546 0.546 0.101 0 0.195-0.027 0.273-0.073l2.474-1.645v2.828c0 0.302 0.244 0.546 0.546 0.546s0.546-0.244 0.546-0.546v-2.828l2.472 1.644c0.081 0.047 0.175 0.075 0.276 0.075 0.302 0 0.546-0.245 0.546-0.546 0-0.201-0.109-0.377-0.273-0.473l-2.582-1.717 2.565-1.706z"></path>
	</symbol>
	<symbol id="211" viewBox="0 0 32 32">
		<title>211</title>
		<path d="M23.645 23.918h-0c0.002 0 0.003 0 0.005 0 3.918 0 7.094-3.176 7.094-7.094 0-3.789-2.97-6.884-6.726-7.085l-0.023-0.058c-1.385-3.19-4.564-5.421-8.264-5.421-4.879 0-8.852 3.881-9.001 8.738l-0.014-0.001c-3.016 0-5.461 2.445-5.461 5.461s2.445 5.461 5.461 5.461h1.092c0.302 0 0.546-0.244 0.546-0.546s-0.245-0.546-0.546-0.546h-1.092c-0.001 0-0.001 0-0.002 0-2.412 0-4.367-1.955-4.367-4.367s1.955-4.367 4.367-4.367c0.413 0 0.813 0.057 1.161 0.157l0.005 0.041c-0.047-0.349-0.072-0.706-0.072-1.068 0-4.368 3.541-7.91 7.91-7.91 3.515 0 6.494 2.292 7.54 5.52 0.128-0.008 0.256-0.019 0.386-0.019v0c3.317 0 6.007 2.689 6.007 6.007s-2.689 6.007-6.007 6.007h-0v-0.001h-0.546v0.001c-0.302 0-0.546 0.244-0.546 0.546s0.244 0.546 0.546 0.546l0.004-0.001h0.542v0.001h0zM10.576 27.244c0.506-0.543 0.494-3.327 0.494-3.327s-2.044 1.086-2.468 1.791c-0.884 1.471 0.813 2.78 1.974 1.536zM20.095 21.642l0.003-0.001c0.162-0.095 0.27-0.27 0.27-0.472 0-0.302-0.244-0.546-0.546-0.546-0.101 0-0.195 0.027-0.273 0.073l-2.457 1.634v-2.781c0-0.302-0.244-0.546-0.546-0.546s-0.546 0.244-0.546 0.546v2.781l-2.455-1.632c-0.081-0.047-0.175-0.075-0.276-0.075-0.302 0-0.546 0.244-0.546 0.546 0 0.201 0.109 0.377 0.273 0.473l2.565 1.706-2.585 1.718c-0.162 0.095-0.271 0.271-0.271 0.472 0 0.302 0.245 0.546 0.546 0.546 0.101 0 0.195-0.027 0.273-0.073l2.474-1.645v2.828c0 0.302 0.244 0.546 0.546 0.546s0.546-0.244 0.546-0.546v-2.828l2.472 1.644c0.081 0.047 0.175 0.075 0.276 0.075 0.302 0 0.546-0.245 0.546-0.546 0-0.201-0.109-0.377-0.273-0.473l-2.582-1.717 2.565-1.706z"></path>
	</symbol>
	<view id="000" viewBox="0 0 32 32" />
	<view id="001" viewBox="0 32 32 32" />
	<view id="0012" viewBox="0 64 32 32" />
	<view id="012" viewBox="0 96 32 32" />
	<view id="002" viewBox="0 128 32 32" />
	<view id="009" viewBox="0 160 32 32" />
	<view id="0022" viewBox="0 192 32 32" />
	<view id="003" viewBox="0 224 32 32" />
	<view id="005" viewBox="0 256 32 32" />
	<view id="004" viewBox="0 288 32 32" />
	<view id="010" viewBox="0 320 32 32" />
	<view id="0062" viewBox="0 352 32 32" />
	<view id="006" viewBox="0 384 32 32" />
	<view id="007" viewBox="0 416 32 32" />
	<view id="011" viewBox="0 448 32 32" />
	<view id="008" viewBox="0 480 32 32" />
	<view id="200" viewBox="0 512 32 32" />
	<view id="208" viewBox="0 544 32 32" />
	<view id="999" viewBox="0 576 32 32" />
	<view id="100" viewBox="0 608 32 32" />
	<view id="101" viewBox="0 640 32 32" />
	<view id="108" viewBox="0 672 32 32" />
	<view id="112" viewBox="0 704 32 32" />
	<view id="1012" viewBox="0 736 32 32" />
	<view id="102" viewBox="0 768 32 32" />
	<view id="109" viewBox="0 800 32 32" />
	<view id="1022" viewBox="0 832 32 32" />
	<view id="103" viewBox="0 864 32 32" />
	<view id="105" viewBox="0 896 32 32" />
	<view id="104" viewBox="0 928 32 32" />
	<view id="110" viewBox="0 960 32 32" />
	<view id="106" viewBox="0 992 32 32" />
	<view id="111" viewBox="0 1024 32 32" />
	<view id="1062" viewBox="0 1056 32 32" />
	<view id="107" viewBox="0 1088 32 32" />
	<view id="206" viewBox="0 1120 32 32" />
	<view id="207" viewBox="0 1152 32 32" />
	<view id="2062" viewBox="0 1184 32 32" />
	<view id="202" viewBox="0 1216 32 32" />
	<view id="210" viewBox="0 1248 32 32" />
	<view id="2022" viewBox="0 1280 32 32" />
	<view id="203" viewBox="0 1312 32 32" />
	<view id="205" viewBox="0 1344 32 32" />
	<view id="204" viewBox="0 1376 32 32" />
	<view id="211" viewBox="0 1408 32 32" />
	<use xlink:href="#000" width="32" height="32" x="0" y="0"></use>
	<use xlink:href="#001" width="32" height="32" x="0" y="32"></use>
	<use xlink:href="#0012" width="32" height="32" x="0" y="64"></use>
	<use xlink:href="#012" width="32" height="32" x="0" y="96"></use>
	<use xlink:href="#002" width="32" height="32" x="0" y="128"></use>
	<use xlink:href="#009" width="32" height="32" x="0" y="160"></use>
	<use xlink:href="#0022" width="32" height="32" x="0" y="192"></use>
	<use xlink:href="#003" width="32" height="32" x="0" y="224"></use>
	<use xlink:href="#005" width="32" height="32" x="0" y="256"></use>
	<use xlink:href="#004" width="32" height="32" x="0" y="288"></use>
	<use xlink:href="#010" width="32" height="32" x="0" y="320"></use>
	<use xlink:href="#0062" width="32" height="32" x="0" y="352"></use>
	<use xlink:href="#006" width="32" height="32" x="0" y="384"></use>
	<use xlink:href="#007" width="32" height="32" x="0" y="416"></use>
	<use xlink:href="#011" width="32" height="32" x="0" y="448"></use>
	<use xlink:href="#008" width="32" height="32" x="0" y="480"></use>
	<use xlink:href="#200" width="32" height="32" x="0" y="512"></use>
	<use xlink:href="#208" width="32" height="32" x="0" y="544"></use>
	<use xlink:href="#999" width="32" height="32" x="0" y="576"></use>
	<use xlink:href="#100" width="32" height="32" x="0" y="608"></use>
	<use xlink:href="#101" width="32" height="32" x="0" y="640"></use>
	<use xlink:href="#108" width="32" height="32" x="0" y="672"></use>
	<use xlink:href="#112" width="32" height="32" x="0" y="704"></use>
	<use xlink:href="#1012" width="32" height="32" x="0" y="736"></use>
	<use xlink:href="#102" width="32" height="32" x="0" y="768"></use>
	<use xlink:href="#109" width="32" height="32" x="0" y="800"></use>
	<use xlink:href="#1022" width="32" height="32" x="0" y="832"></use>
	<use xlink:href="#103" width="32" height="32" x="0" y="864"></use>
	<use xlink:href="#105" width="32" height="32" x="0" y="896"></use>
	<use xlink:href="#104" width="32" height="32" x="0" y="928"></use>
	<use xlink:href="#110" width="32" height="32" x="0" y="960"></use>
	<use xlink:href="#106" width="32" height="32" x="0" y="992"></use>
	<use xlink:href="#111" width="32" height="32" x="0" y="1024"></use>
	<use xlink:href="#1062" width="32" height="32" x="0" y="1056"></use>
	<use xlink:href="#107" width="32" height="32" x="0" y="1088"></use>
	<use xlink:href="#206" width="32" height="32" x="0" y="1120"></use>
	<use xlink:href="#207" width="32" height="32" x="0" y="1152"></use>
	<use xlink:href="#2062" width="32" height="32" x="0" y="1184"></use>
	<use xlink:href="#202" width="32" height="32" x="0" y="1216"></use>
	<use xlink:href="#210" width="32" height="32" x="0" y="1248"></use>
	<use xlink:href="#2022" width="32" height="32" x="0" y="1280"></use>
	<use xlink:href="#203" width="32" height="32" x="0" y="1312"></use>
	<use xlink:href="#205" width="32" height="32" x="0" y="1344"></use>
	<use xlink:href="#204" width="32" height="32" x="0" y="1376"></use>
	<use xlink:href="#211" width="32" height="32" x="0" y="1408"></use>
</svg>
