<?xml version="1.0" encoding="utf-8"?>
<!-- Generator: Adobe Illustrator 16.0.4, SVG Export Plug-In . SVG Version: 6.00 Build 0)  -->
<!DOCTYPE svg PUBLIC "-//W3C//DTD SVG 1.1//EN" "http://www.w3.org/Graphics/SVG/1.1/DTD/svg11.dtd">
<svg version="1.1" id="Calque_1" xmlns="http://www.w3.org/2000/svg" xmlns:xlink="http://www.w3.org/1999/xlink" x="0px" y="0px"
	 width="452px" height="57px" viewBox="0 0 452 57" enable-background="new 0 0 452 57" xml:space="preserve">
<g opacity="0.1">
	<g>
		<g>
			<path fill-rule="evenodd" clip-rule="evenodd" fill="#010202" d="M65.537,15.269h17.737v6.03c0,0-1.271,0-2.179,0
				c-1.035,0-1.351,0.393-1.351,1.424c0,1.017,0,12.93,0,13.585c0,0.651,0.543,1.258,1.427,1.258c0.883,0,4.441,0,5.117,0
				s1.5-0.475,1.5-1.431c0-0.95,0-4.863,0-4.863h7.082v12.325H65.537V37.59c0,0,1.316,0,2.068,0c0.964,0,1.479-0.333,1.479-1.31
				c0-0.679,0-12.855,0-13.558c0-0.873-0.178-1.424-1.349-1.424c-1.062,0-2.199,0-2.199,0V15.269z"/>
			<path fill-rule="evenodd" clip-rule="evenodd" fill="#010202" d="M97.961,15.269h29.177v9.099h-7.301c0,0,0-0.583,0-1.512
				c0-0.926-0.461-1.557-1.882-1.557c-1.417,0-6.358,0-6.358,0v5.111h6.87v5.492h-6.87v5.663c0,0,5.52,0,6.656,0
				c0.878,0,1.584-0.537,1.584-1.552c0-0.716,0-1.543,0-1.543h7.301v9.126H97.961V37.59c0,0,0.866,0,1.577,0
				c0.842,0,1.398-0.35,1.398-1.197c0-0.713,0-12.755,0-13.609c0-0.913-0.142-1.484-1.311-1.484c-1.168,0-1.665,0-1.665,0V15.269z"
				/>
			<path fill-rule="evenodd" clip-rule="evenodd" fill="#010202" d="M141.662,15.269h29.863v9.099h-7.303c0,0,0-0.614,0-1.542
				c0-0.824-0.507-1.526-1.624-1.526c-1.419,0-6.616,0-6.616,0v5.111h6.124v5.492h-6.124c0,0,0,2.641,0,4.094
				c0,1.129,0.485,1.594,1.946,1.594c1.134,0,2.319,0,2.319,0v6.007h-18.586V37.59c0,0,1.747,0,2.461,0
				c0.706,0,1.201-0.48,1.201-1.197c0-0.713,0-12.755,0-13.609c0-0.854-0.137-1.484-1.312-1.484c-1.168,0-2.351,0-2.351,0V15.269z"
				/>
			<path fill="#010202" d="M188.438,22.723c0-1.07,0.322-1.424,1.349-1.424c0.91,0,2.199,0,2.199,0v-6.03h-17.639v6.03
				c0,0,1.184,0,2.247,0c1.175,0,1.349,0.543,1.349,1.424c0,0.272,0,12.992,0,13.589c0,1.049-0.64,1.278-1.389,1.278
				c-0.906,0-2.207,0-2.207,0v6.007h17.639V37.59c0,0-1.095,0-2.157,0c-0.857,0-1.391-0.342-1.391-1.313
				C188.438,36.004,188.438,23.312,188.438,22.723z"/>
			<path fill="#010202" d="M218.615,15.269h6.247v9.962h-6.275c0,0-1.81-4.362-6.879-4.362c-3.81,0-6.763,2.761-6.763,7.879
				c0,8.653,4.75,9.384,6.822,9.384c4.219,0,5.188-3.009,5.188-4.221h-3.923v-5.224h13.522c0,0-0.04,2.125-0.062,3.643
				c-0.01,0.729-0.704,11.766-15.856,11.766c-10.916,0-16.649-6.273-16.649-15.227c0-5.946,4.623-14.025,15.727-14.025
				c6.218,0,8.9,2.552,8.9,2.552V15.269z"/>
			<path fill="#010202" d="M259.603,37.59c-1.208,0-1.576-1.083-2.301-2.834c-0.598-1.435-7.449-19.487-7.449-19.487h-10.864
				c0,0-7.364,20.064-7.714,20.923c-0.409,1-1.033,1.398-2.125,1.398c-1.023,0-1.57,0-1.57,0v6.007h13.283v-5.714
				c0,0-0.992,0-1.837,0c-0.797,0-0.971-0.617-0.711-1.465c0.303-0.991,0.841-2.545,0.841-2.545h8.072c0,0,0.448,1.405,0.855,2.682
				c0.313,0.969-0.704,1.328-1.309,1.328c-0.603,0-1.568,0-1.568,0v5.714h15.997V37.59C261.203,37.59,260.93,37.59,259.603,37.59z
				 M240.462,29.985l2.771-8.326h0.092l2.65,8.326H240.462z"/>
			<path fill="#010202" d="M297.115,37.59c-1.086,0-1.267-0.525-1.81-1.256c-0.544-0.728-3.924-6.007-3.924-6.007
				s4.951-1.396,4.951-6.678s-4.405-7.162-6.279-7.647c-1.87-0.488-5.914-0.733-7.002-0.733c-0.351,0-5.434,0-5.434,0h-13.83v6.03
				c0,0,0.839,0,1.904,0c1.188,0,1.346,0.597,1.346,1.424c0,0.272,0,12.867,0,13.458c0,0.594-0.086,1.409-1.405,1.409
				c-0.906,0-1.845,0-1.845,0v6.007h16.971V37.59c0,0-0.669,0-1.734,0c-1.182,0-1.327-0.656-1.327-1.367c0-0.097,0-2.092,0-4.577
				l0,0h3.789l6.938,11.951h10.64V37.59C299.063,37.59,298.202,37.59,297.115,37.59z M281.544,26.749c-1.267,0-3.847,0-3.847,0l0,0
				c0-2.798,0-5.267,0-5.829c1.171,0,3.199,0,4.194,0c1.218,0,3.395,0.429,3.395,2.971
				C285.286,25.785,283.874,26.749,281.544,26.749z"/>
			<path fill="#010202" d="M314.743,14.843c-11.815,0-16.098,7.951-16.098,14.329c0,8.458,5.91,14.919,15.977,14.919
				c8.973,0,16.036-4.921,16.036-14.556C330.658,20.366,323.929,14.843,314.743,14.843z M314.934,38.131
				c-2.599,0-5.331-1.552-5.331-9.451c0-4.857,1.854-7.88,5.027-7.88c2.995,0,5.189,2.007,5.189,8.438
				C319.819,36.19,317.545,38.131,314.934,38.131z"/>
		</g>
		<g>
			<path fill="#010202" d="M378.302,15.192c-2.485-0.908-3.398-1.256-5.084-1.256c-2.586,0-3.898,1.417-4.602,4.922l-0.374,2.006
				h4.361l-0.656,3.539h-4.411l-2.911,15.743c-0.374,2.009-1.358,4.252-2.438,5.55c-1.502,1.849-4.457,3.068-7.507,3.068
				c-0.658,0-1.456-0.039-2.394-0.195c-1.502-0.276-2.159-0.47-3.756-1.261l2.159-3.7c1.972,0.868,2.954,1.144,4.224,1.144
				c2.161,0,3.895-1.891,4.46-4.84l2.813-15.509h-4.409l0.647-3.583l4.513,0.044l0.658-3.468c0.844-4.482,4.502-7.159,9.71-7.159
				c0.566,0,1.173-0.005,1.877,0.078c0.921,0.106,2.221,0.283,3.782,0.783L378.302,15.192z"/>
			<path fill="#010202" d="M386.512,26.344c-0.339-0.179-0.513-0.213-0.805-0.213c-0.725,0-1.446,0.317-2.337,1.104
				c-1.061,0.889-1.869,1.921-2.462,3.166c-0.591,1.175-0.892,2.168-1.313,4.448l-0.553,2.99h-5.05l3.126-16.861l4.343,0.063
				l-0.806,4.947c0.382-0.571,0.676-0.998,0.846-1.282c0.68-0.927,1.445-1.816,2.249-2.563c0.893-0.854,1.743-1.212,2.93-1.212
				c0.64,0,1.021,0.145,1.783,0.57L386.512,26.344z"/>
		</g>
		<path fill-rule="evenodd" clip-rule="evenodd" fill="#010202" d="M348.467,29.467c0,2.686-2.161,4.857-4.834,4.857
			c-2.672,0-4.836-2.172-4.836-4.857c0-2.685,2.164-4.863,4.836-4.863C346.306,24.604,348.467,26.782,348.467,29.467z"/>
	</g>
</g>
<g>
	<g>
		<g>
			<path fill-rule="evenodd" clip-rule="evenodd" fill="#FFFFFF" d="M64.537,14.269h17.737v6.03c0,0-1.271,0-2.179,0
				c-1.035,0-1.351,0.393-1.351,1.424c0,1.017,0,12.93,0,13.585c0,0.651,0.543,1.258,1.427,1.258c0.883,0,4.441,0,5.117,0
				s1.5-0.475,1.5-1.431c0-0.95,0-4.863,0-4.863h7.082v12.325H64.537V36.59c0,0,1.316,0,2.068,0c0.964,0,1.479-0.333,1.479-1.31
				c0-0.679,0-12.855,0-13.558c0-0.873-0.178-1.424-1.349-1.424c-1.062,0-2.199,0-2.199,0V14.269z"/>
			<path fill-rule="evenodd" clip-rule="evenodd" fill="#FFFFFF" d="M96.961,14.269h29.177v9.099h-7.301c0,0,0-0.583,0-1.512
				c0-0.926-0.461-1.557-1.882-1.557c-1.417,0-6.358,0-6.358,0v5.111h6.87v5.492h-6.87v5.663c0,0,5.52,0,6.656,0
				c0.878,0,1.584-0.537,1.584-1.552c0-0.716,0-1.543,0-1.543h7.301v9.126H96.961V36.59c0,0,0.866,0,1.577,0
				c0.842,0,1.398-0.35,1.398-1.197c0-0.713,0-12.755,0-13.609c0-0.913-0.142-1.484-1.311-1.484c-1.168,0-1.665,0-1.665,0V14.269z"
				/>
			<path fill-rule="evenodd" clip-rule="evenodd" fill="#FFFFFF" d="M140.662,14.269h29.863v9.099h-7.303c0,0,0-0.614,0-1.542
				c0-0.824-0.507-1.526-1.624-1.526c-1.419,0-6.616,0-6.616,0v5.111h6.124v5.492h-6.124c0,0,0,2.641,0,4.094
				c0,1.129,0.485,1.594,1.946,1.594c1.134,0,2.319,0,2.319,0v6.007h-18.586V36.59c0,0,1.747,0,2.461,0
				c0.706,0,1.201-0.48,1.201-1.197c0-0.713,0-12.755,0-13.609c0-0.854-0.137-1.484-1.312-1.484c-1.168,0-2.351,0-2.351,0V14.269z"
				/>
			<path fill="#FFFFFF" d="M187.438,21.723c0-1.07,0.322-1.424,1.349-1.424c0.91,0,2.199,0,2.199,0v-6.03h-17.639v6.03
				c0,0,1.184,0,2.247,0c1.175,0,1.349,0.543,1.349,1.424c0,0.272,0,12.992,0,13.589c0,1.049-0.64,1.278-1.389,1.278
				c-0.906,0-2.207,0-2.207,0v6.007h17.639V36.59c0,0-1.095,0-2.157,0c-0.857,0-1.391-0.342-1.391-1.313
				C187.438,35.004,187.438,22.312,187.438,21.723z"/>
			<path fill="#FFFFFF" d="M217.615,14.269h6.247v9.962h-6.275c0,0-1.81-4.362-6.879-4.362c-3.81,0-6.763,2.761-6.763,7.879
				c0,8.653,4.75,9.384,6.822,9.384c4.219,0,5.188-3.009,5.188-4.221h-3.923v-5.224h13.522c0,0-0.04,2.125-0.062,3.643
				c-0.01,0.729-0.704,11.766-15.856,11.766c-10.916,0-16.649-6.273-16.649-15.227c0-5.946,4.623-14.025,15.727-14.025
				c6.218,0,8.9,2.552,8.9,2.552V14.269z"/>
			<path fill="#FFFFFF" d="M258.603,36.59c-1.208,0-1.576-1.083-2.301-2.834c-0.598-1.435-7.449-19.487-7.449-19.487h-10.864
				c0,0-7.364,20.064-7.714,20.923c-0.409,1-1.033,1.398-2.125,1.398c-1.023,0-1.57,0-1.57,0v6.007h13.283v-5.714
				c0,0-0.992,0-1.837,0c-0.797,0-0.971-0.617-0.711-1.465c0.303-0.991,0.841-2.545,0.841-2.545h8.072c0,0,0.448,1.405,0.855,2.682
				c0.313,0.969-0.704,1.328-1.309,1.328c-0.603,0-1.568,0-1.568,0v5.714h15.997V36.59C260.203,36.59,259.93,36.59,258.603,36.59z
				 M239.462,28.985l2.771-8.326h0.092l2.65,8.326H239.462z"/>
			<path fill="#FFFFFF" d="M296.115,36.59c-1.086,0-1.267-0.525-1.81-1.256c-0.544-0.728-3.924-6.007-3.924-6.007
				s4.951-1.396,4.951-6.678s-4.405-7.162-6.279-7.647c-1.87-0.488-5.914-0.733-7.002-0.733c-0.351,0-5.434,0-5.434,0h-13.83v6.03
				c0,0,0.839,0,1.904,0c1.188,0,1.346,0.597,1.346,1.424c0,0.272,0,12.867,0,13.458c0,0.594-0.086,1.409-1.405,1.409
				c-0.906,0-1.845,0-1.845,0v6.007h16.971V36.59c0,0-0.669,0-1.734,0c-1.182,0-1.327-0.656-1.327-1.367c0-0.097,0-2.092,0-4.577
				l0,0h3.789l6.938,11.951h10.64V36.59C298.063,36.59,297.202,36.59,296.115,36.59z M280.544,25.749c-1.267,0-3.847,0-3.847,0l0,0
				c0-2.798,0-5.267,0-5.829c1.171,0,3.199,0,4.194,0c1.218,0,3.395,0.429,3.395,2.971
				C284.286,24.785,282.874,25.749,280.544,25.749z"/>
			<path fill="#FFFFFF" d="M313.743,13.843c-11.815,0-16.098,7.951-16.098,14.329c0,8.458,5.91,14.919,15.977,14.919
				c8.973,0,16.036-4.921,16.036-14.556C329.658,19.366,322.929,13.843,313.743,13.843z M313.934,37.131
				c-2.599,0-5.331-1.552-5.331-9.451c0-4.857,1.854-7.88,5.027-7.88c2.995,0,5.189,2.007,5.189,8.438
				C318.819,35.19,316.545,37.131,313.934,37.131z"/>
		</g>
		<g>
			<path fill="#FFFFFF" d="M377.302,14.192c-2.485-0.908-3.398-1.256-5.084-1.256c-2.586,0-3.898,1.417-4.602,4.922l-0.374,2.006
				h4.361l-0.656,3.539h-4.411l-2.911,15.743c-0.374,2.009-1.358,4.252-2.438,5.55c-1.502,1.849-4.457,3.068-7.507,3.068
				c-0.658,0-1.456-0.039-2.394-0.195c-1.502-0.276-2.159-0.47-3.756-1.261l2.159-3.7c1.972,0.868,2.954,1.144,4.224,1.144
				c2.161,0,3.895-1.891,4.46-4.84l2.813-15.509h-4.409l0.647-3.583l4.513,0.044l0.658-3.468c0.844-4.482,4.502-7.159,9.71-7.159
				c0.566,0,1.173-0.005,1.877,0.078c0.921,0.106,2.221,0.283,3.782,0.783L377.302,14.192z"/>
			<path fill="#FFFFFF" d="M385.512,25.344c-0.339-0.179-0.513-0.213-0.805-0.213c-0.725,0-1.446,0.317-2.337,1.104
				c-1.061,0.889-1.869,1.921-2.462,3.166c-0.591,1.175-0.892,2.168-1.313,4.448l-0.553,2.99h-5.05l3.126-16.861l4.343,0.063
				l-0.806,4.947c0.382-0.571,0.676-0.998,0.846-1.282c0.68-0.927,1.445-1.816,2.249-2.563c0.893-0.854,1.743-1.212,2.93-1.212
				c0.64,0,1.021,0.145,1.783,0.57L385.512,25.344z"/>
		</g>
		<path fill-rule="evenodd" clip-rule="evenodd" fill="#FFFFFF" d="M347.467,28.467c0,2.686-2.161,4.857-4.834,4.857
			c-2.672,0-4.836-2.172-4.836-4.857c0-2.685,2.164-4.863,4.836-4.863C345.306,23.604,347.467,25.782,347.467,28.467z"/>
	</g>
</g>
</svg>
