<svg viewBox="0 0 187 45" xmlns="http://www.w3.org/2000/svg"><style type="text/css">.st0{fill:#E41F1F;}.st1{fill:#1C3E79;}</style><path class="st0" d="M13.1,14.8H3.4c-0.7,0-1.1,0.2-1.3,1.1l-0.6,2.9l-0.1,0.7c0,0.3,0.1,1.1,1.2,1.1c0,0,2.4,0,3.3,0C5.6,21.8,1.8,40,1.8,40l-0.1,0.7c0,0.3,0.1,1.1,1.2,1.1h4.9c0.8,0,1.1-0.3,1.3-1.1l5.1-24.1c0,0.1,0.1-0.8,0.1-0.8C14.2,15.4,13.9,14.8,13.1,14.8z"/><path class="st0" d="M129.2,7.9l0.3-0.7c0-1.8-6.5-3.4-9.6-3.4c-8.6,0-14,4.6-14,12.1c0,5.6,3.8,7.9,6.9,9.7l0.3,0.1c2.4,1.4,4.6,2.7,4.6,5.3c0,4.1-3.4,4.7-5.5,4.7c-2.7,0-5.1-1.1-6.5-1.7c-0.7-0.3-1-0.5-1.3-0.5c-0.6,0-0.8,0.3-1,0.6l-0.1,0.1l-2,3.8l-0.2,0.3l-0.3,0.7c0,1.7,7.1,3.4,10.3,3.4c8.7,0,14.5-5.2,14.5-12.8c0-2.9-1.1-5.2-3.2-7c-1.4-1.1-2.9-2-4.2-2.8c-2.6-1.5-4.6-2.7-4.6-5c0-2.7,2-4.3,5.3-4.3c2.4,0,4.4,1.1,5.7,1.7c0.7,0.3,1,0.5,1.3,0.5c0.6,0,0.8-0.3,1-0.6l0.1-0.1l2-3.8C129,8.2,129.2,7.9,129.2,7.9z"/><path class="st0" d="M34.3,4.8H23.4c-0.8,0-1.2,0.2-1.5,1.1l-0.7,3.4v0.1l-0.1,0.9c0,0.9,1,0.9,1.4,0.9c0,0,0.3,0,0.7,0c-2,9.5-6,28.4-6,28.4l-0.1,0.9c0,0.4,0.2,1.1,1.3,1.1h10c14.4,0,18.2-15.9,18.2-25.4C46.6,8.7,42.4,4.8,34.3,4.8z M28.8,35.2c0,0-2,0-2.9,0c0.3-1.2,4.8-23,5-23.9c0.5,0,1.7,0,1.7,0c3.9,0,5.9,0.9,5.9,5.6C38.4,23.3,36.4,35.2,28.8,35.2z"/><path class="st0" d="M77.3,4.8h-4.4c-0.8,0-1.2,0.2-1.5,1.1l-3.6,17c-0.2,0.9-0.4,2-0.6,3.1c-0.2-0.9-0.5-1.9-0.9-2.9L60.7,5.8c-0.3-0.9-0.5-1-1.4-1h-6.2c-0.8,0-1.2,0.2-1.5,1.1l-0.7,3.4v0.1l-0.1,0.9c0,0.9,1,0.9,1.4,0.9c0,0,0.3,0,0.8,0c-2,9.5-6,28.4-6,28.4l-0.1,0.9c0,0.4,0.2,1.1,1.3,1.1h4.4c0.8,0,1.2-0.2,1.5-1.1L58,22.3l0.1-0.4c0.2-0.8,0.3-1.7,0.5-2.4c0.2,0.7,0.4,1.4,0.6,2.2l6,18.9c0.2,0.9,0.6,1,1.4,1H70c0.9,0,1.2-0.3,1.4-1.1l7.2-33.8l0.1-0.9C78.6,5.4,78.4,4.8,77.3,4.8z"/><path class="st0" d="M104.3,4.8H84.4c-0.8,0-1.2,0.2-1.5,1.1l-0.7,3.4v0.1l-0.1,0.9c0,0.9,1,0.9,1.4,0.9c0,0,0.3,0,0.8,0c-2.1,9.6-6.1,28.5-6.1,28.5l-0.1,0.9c0,0.4,0.2,1.1,1.3,1.1h17.4c0.8,0,1.2-0.2,1.5-1.1l0.7-3.4v-0.1l0.1-0.9c0-0.9-1-0.9-1.4-0.9c0,0-9.4,0-10.6,0c0.2-1.1,1.8-8.7,2-9.5c0.8,0,8.6,0,8.6,0c0.9,0,1.2-0.2,1.5-1.1l0.8-3.6l0.1-0.7c0-0.5-0.4-1.1-1.3-1.1c0,0-7.1,0-8.2,0c0.2-1,1.5-7.1,1.7-7.8c0.8,0,9.9,0,9.9,0c0.8,0,1.1-0.1,1.6-0.9l1.8-3.5l0.1-0.3l0.2-0.7C105.7,4.9,105.1,4.8,104.3,4.8z"/><path class="st1" d="M132.8,32.9c-2.7,0-4.8,2.1-4.8,4.8s2.1,4.8,4.8,4.8c2.7,0,4.8-2.2,4.8-4.8C137.6,35,135.4,32.9,132.8,32.9z"/><path class="st1" d="M12.1,2.8c-2.7,0-4.8,2.1-4.8,4.8s2.1,4.8,4.8,4.8s4.8-2.2,4.8-4.8C16.8,5,14.7,2.8,12.1,2.8z"/><path class="st0" d="M154.9,20.1c1.5,0,2.4,0.3,3.6,1.1c0.2,0.2,0.4,0.3,0.8,0.3s0.7-0.2,0.9-0.5c0-0.1,2.1-3.5,2.1-3.5l0.2-0.7c0-0.5-0.4-0.8-0.9-1.1c-1.9-1.2-4-1.8-6.6-1.8c-3.5,0-6.8,1.1-9,3.2c-3.7,3.3-5.9,9-5.9,14.7c0,6.7,3.8,10.7,10.1,10.7c2.5,0,7.6-1.3,7.6-2.9l-0.2-0.7l-1.3-3.5l0,0c-0.1-0.1-0.3-0.5-0.8-0.5c-0.3,0-0.6,0.1-1.1,0.4c-1.4,0.6-2.3,0.8-3.3,0.8c-2.3,0-3.4-1.2-3.4-3.7c0-3.8,1.1-7.8,3-10.4C151.6,20.8,153.1,20.1,154.9,20.1z"/><path class="st0" d="M157.7,39L157.7,39L157.7,39L157.7,39z"/><path class="st0" d="M184.4,14.8h-16.7c-0.9,0-1.1,0.4-1.2,1.1l-0.7,3.3l-0.1,0.8c0,0.5,0.3,1,1.2,1c0,0,7,0,8.9,0c-1.5,1.6-14.6,15.5-14.6,15.5l-0.8,3.5l-0.1,0.7c0,0.5,0.3,1,1.3,1h18.3c0.8,0,1.4-0.3,1.5-0.8c0.1-0.2,0.9-4.2,0.9-4.5c0-0.4-0.2-0.9-1.2-0.9c0,0-8.7,0-10.7,0c1.5-1.6,14.4-15.2,14.4-15.2l0.8-3.8c0-0.1,0.1-0.6,0.1-0.6l0,0C185.6,15.6,185.5,14.8,184.4,14.8z"/></svg>