<?xml version="1.0" encoding="utf-8"?>

<svg version="1.1" id="Layer_1" xmlns="http://www.w3.org/2000/svg" xmlns:xlink="http://www.w3.org/1999/xlink" x="0px" y="0px"
	 viewBox="0 0 100 100" style="enable-background:new 0 0 100 100;" xml:space="preserve">
<style type="text/css">
	.st0{fill:#263238;}
</style>
<path class="st0" d="M95.6,16.1c0.4,0,0.5,0,0.8,0.1c0.9,0.2,1.8,0.8,2.4,1.5c0.4,0.4,0.7,0.9,0.9,1.4s0.3,1,0.3,1.6
	c0.1,1.8-0.9,3.5-2.5,4.4c-0.5,0.3-1,0.5-1.5,0.5c-0.4,0.1-0.5,0.1-0.8,0.1H4.8c-0.4,0-0.5,0-0.8-0.1c-1-0.2-1.8-0.6-2.5-1.3
	c-0.4-0.4-0.7-0.8-1-1.3c-0.3-0.5-0.4-1-0.5-1.6c-0.2-1.5,0.4-3.1,1.5-4.1c0.3-0.3,0.6-0.5,1-0.7c0.5-0.3,1-0.5,1.5-0.5
	c0.4-0.1,0.5-0.1,0.8-0.1h90.3C95.3,16.1,95.4,16.1,95.6,16.1L95.6,16.1z M95.6,45.2c0.4,0,0.5,0,0.8,0.1c0.9,0.2,1.8,0.8,2.4,1.5
	c0.4,0.4,0.7,0.9,0.9,1.4c0.7,1.7,0.3,3.6-0.9,5c-0.4,0.4-0.8,0.8-1.3,1c-0.5,0.3-1,0.5-1.5,0.5c-0.4,0.1-0.5,0.1-0.8,0.1H4.8
	c-0.4,0-0.5,0-0.8-0.1c-0.5-0.1-1.1-0.3-1.5-0.5c-1.3-0.7-2.2-2.1-2.4-3.6c0-0.4,0-0.8,0-1.2c0.1-0.5,0.2-1.1,0.5-1.6
	c0.2-0.5,0.6-0.9,1-1.3c0.7-0.7,1.6-1.1,2.5-1.3c0.4-0.1,0.5-0.1,0.8-0.1h90.3C95.3,45.2,95.4,45.2,95.6,45.2L95.6,45.2z M95.6,74.2
	c0.4,0,0.5,0,0.8,0.1c0.9,0.2,1.8,0.8,2.4,1.5c1.2,1.4,1.5,3.3,0.9,5c-0.2,0.5-0.5,1-0.9,1.4c-0.4,0.4-0.8,0.8-1.3,1
	c-0.5,0.3-1,0.5-1.5,0.5c-0.4,0.1-0.5,0.1-0.8,0.1H4.8c-0.4,0-0.5,0-0.8-0.1c-1-0.2-1.8-0.6-2.5-1.3c-0.3-0.3-0.6-0.6-0.8-1
	c-0.8-1.3-0.9-2.9-0.4-4.3c0.2-0.5,0.5-1,0.9-1.4c0.4-0.4,0.8-0.8,1.3-1c0.5-0.3,1-0.5,1.5-0.5c0.4-0.1,0.5-0.1,0.8-0.1h90.3
	C95.3,74.2,95.4,74.2,95.6,74.2L95.6,74.2z"/>
</svg>
