<?xml version="1.0" encoding="UTF-8"?>
<svg width="342px" height="64px" viewBox="0 0 342 64" version="1.1" xmlns="http://www.w3.org/2000/svg" xmlns:xlink="http://www.w3.org/1999/xlink">
    <!-- Generator: Sketch 63.1 (92452) - https://sketch.com -->
    <title>one.com.dot</title>
    <desc>Created with Sketch.</desc>
    <g id="Page-1" stroke="none" stroke-width="1" fill="none" fill-rule="evenodd">
        <g id="one.com.dot">
            <path d="M327.9995,15.6674 C323.8185,15.6674 320.0645,17.5004 317.4995,20.4064 C314.9345,17.5004 311.1815,15.6674 306.9995,15.6674 C299.2685,15.6674 292.9995,21.9354 292.9995,29.6674 L292.9995,30.6674 L292.9995,47.6674 L299.9995,47.6674 L299.9995,29.6674 L300.0045,29.4264 C300.1315,25.6724 303.2145,22.6674 306.9995,22.6674 C310.8655,22.6674 313.9995,25.8014 313.9995,29.6674 L313.9995,47.6674 L320.9995,47.6674 L320.9995,29.6674 L321.0045,29.4264 C321.1315,25.6724 324.2145,22.6674 327.9995,22.6674 C331.8655,22.6674 334.9995,25.8014 334.9995,29.6674 L334.9995,47.6674 L341.9995,47.6674 L341.9995,29.6674 C341.9995,21.9354 335.7315,15.6674 327.9995,15.6674" id="M" fill="#ffffff"></path>
            <path d="M269.9995,40.6675 C265.0295,40.6675 260.9995,36.6385 260.9995,31.6675 C260.9995,26.6965 265.0295,22.6675 269.9995,22.6675 C274.9705,22.6675 278.9995,26.6965 278.9995,31.6675 C278.9995,36.6385 274.9705,40.6675 269.9995,40.6675 M269.9995,15.6675 C261.1635,15.6675 253.9995,22.8315 253.9995,31.6675 C253.9995,40.5035 261.1635,47.6675 269.9995,47.6675 C278.8365,47.6675 285.9995,40.5035 285.9995,31.6675 C285.9995,22.8315 278.8365,15.6675 269.9995,15.6675" id="O" fill="#ffffff"></path>
            <path d="M236.0132,22.6674 C238.5832,22.6674 240.8962,23.7504 242.5352,25.4774 L247.4862,20.5274 C244.5772,17.5344 240.5162,15.6674 236.0132,15.6674 C227.1772,15.6674 220.0132,22.8314 220.0132,31.6674 C220.0132,40.5034 227.1772,47.6674 236.0132,47.6674 C240.5162,47.6674 244.5772,45.8004 247.4862,42.8074 L242.5352,37.8574 C240.8962,39.5844 238.5832,40.6674 236.0132,40.6674 C231.0422,40.6674 227.0132,36.6384 227.0132,31.6674 C227.0132,26.6964 231.0422,22.6674 236.0132,22.6674" id="C" fill="#ffffff"></path>
            <path d="M207,35.6675 C210.313,35.6675 213,38.3545 213,41.6675 C213,44.9805 210.313,47.6675 207,47.6675 C203.687,47.6675 201,44.9805 201,41.6675 C201,38.3545 203.687,35.6675 207,35.6675" id="dot" fill="#76B82A"></path>
            <path d="M169.5117,28.6679 C170.7477,25.1719 174.0807,22.6679 177.9997,22.6679 C181.9187,22.6679 185.2527,25.1719 186.4877,28.6679 L169.5117,28.6679 Z M193.9997,31.6679 C193.9997,22.8309 186.8367,15.6679 177.9997,15.6679 C169.1637,15.6679 161.9997,22.8309 161.9997,31.6679 C161.9997,40.5039 169.1637,47.6679 177.9997,47.6679 C184.5217,47.6679 190.1327,43.7649 192.6247,38.1679 L184.2247,38.1679 C182.6077,39.7159 180.4147,40.6679 177.9997,40.6679 C173.8967,40.6679 170.4357,37.9219 169.3517,34.1679 L193.8057,34.1679 C193.9337,33.3529 193.9997,32.5179 193.9997,31.6679 L193.9997,31.6679 Z" id="E" fill="#ffffff"></path>
            <path d="M139,15.6674 C130.164,15.6674 123,22.8314 123,31.6674 L123,47.6674 L130,47.6674 L130,44.8974 C130,44.8974 130,44.8984 130.001,44.8984 L130,31.6674 L130.004,31.4014 C130.144,26.5544 134.118,22.6674 139,22.6674 C143.971,22.6674 148,26.6964 148,31.6674 L148,44.8974 L148.001,44.8974 L148,47.6674 L155,47.6674 L155,31.6674 L154.997,31.3524 C154.829,22.6614 147.731,15.6674 139,15.6674" id="N" fill="#ffffff"></path>
            <path d="M100,40.6675 C95.029,40.6675 91,36.6385 91,31.6675 C91,26.6965 95.029,22.6675 100,22.6675 C104.971,22.6675 109,26.6965 109,31.6675 C109,36.6385 104.971,40.6675 100,40.6675 M100,15.6675 C91.164,15.6675 84,22.8315 84,31.6675 C84,40.5035 91.164,47.6675 100,47.6675 C108.836,47.6675 116,40.5035 116,31.6675 C116,22.8315 108.836,15.6675 100,15.6675" id="O" fill="#ffffff"></path>
            <path d="M32,0 C49.673,0 64,14.327 64,32 C64,49.673 49.673,64 32,64 C14.327,64 0,49.673 0,32 C0,14.327 14.327,0 32,0" id="big-dot" fill="#76B82A"></path>
        </g>
    </g>
</svg>