<?xml version="1.0" encoding="utf-8"?>
<!-- Generator: Adobe Illustrator 15.0.0, SVG Export Plug-In . SVG Version: 6.00 Build 0)  -->
<!DOCTYPE svg PUBLIC "-//W3C//DTD SVG 1.1//EN" "http://www.w3.org/Graphics/SVG/1.1/DTD/svg11.dtd">
<svg version="1.1" id="Layer_1" xmlns="http://www.w3.org/2000/svg" xmlns:xlink="http://www.w3.org/1999/xlink" x="0px" y="0px"
	 width="18px" height="8px" viewBox="0 0 18 8" enable-background="new 0 0 18 8" xml:space="preserve">
<g>
	<path fill="#FFFFFF" d="M4.653,0.323c-0.448-0.448-1.176-0.448-1.624,0L0.322,3.029C0.061,3.292-0.03,3.646,0.015,3.987
		C-0.03,4.328,0.061,4.683,0.322,4.944l2.707,2.707c0.448,0.448,1.176,0.448,1.624,0s0.448-1.176,0-1.624L2.613,3.987l2.041-2.04
		C5.102,1.498,5.102,0.771,4.653,0.323z"/>
	<path fill="#FFFFFF" d="M17.677,3.029l-2.706-2.707c-0.449-0.448-1.176-0.448-1.624,0c-0.448,0.449-0.448,1.175,0,1.624l2.04,2.04
		l-2.04,2.041c-0.448,0.448-0.448,1.176,0,1.624s1.175,0.448,1.624,0l2.706-2.707c0.263-0.262,0.353-0.616,0.309-0.957
		C18.029,3.646,17.939,3.292,17.677,3.029z"/>
</g>
</svg>
