<?xml version="1.0" encoding="utf-8"?>
<!-- Generator: Adobe Illustrator 15.1.0, SVG Export Plug-In . SVG Version: 6.00 Build 0)  -->
<!DOCTYPE svg PUBLIC "-//W3C//DTD SVG 1.1//EN" "http://www.w3.org/Graphics/SVG/1.1/DTD/svg11.dtd">
<svg version="1.1" id="Vrstva_1" xmlns="http://www.w3.org/2000/svg" xmlns:xlink="http://www.w3.org/1999/xlink" x="0px" y="0px"
	 width="408px" height="18px" viewBox="0 0 408 18" enable-background="new 0 0 408 18" xml:space="preserve">
<g id="Shape_9_3_" enable-background="new    ">
	<g id="Shape_9">
		<g>
			<path fill="#546E7A" d="M314.498,7.932l-7.053-4.604c-0.209-0.129-0.472-0.107-0.664-0.107c-0.781,0-0.776,0.626-0.776,0.784
				v9.411c0,0.134-0.005,0.784,0.776,0.784c0.192,0,0.455,0.021,0.664-0.107l7.053-4.604c0.578-0.356,0.479-0.778,0.479-0.778
				S315.076,8.289,314.498,7.932z"/>
		</g>
	</g>
</g>
<g id="Shape_10_5_" enable-background="new    ">
	<g id="Shape_10">
		<g>
			<path fill="#546E7A" d="M336.692,2.202h-2.918c-0.173,0-0.31,0.139-0.31,0.31v0.825c0,0.171,0.137,0.31,0.31,0.31h0.774
				l-2.343,2.357c-0.057,0.059-0.09,0.137-0.09,0.219s0.033,0.161,0.09,0.22l0.58,0.583c0.062,0.061,0.14,0.091,0.218,0.091
				c0.079,0,0.157-0.03,0.219-0.091l2.343-2.357v0.783c0,0.171,0.139,0.31,0.309,0.31h0.818c0.17,0,0.309-0.139,0.309-0.31v-2.94
				C337,2.341,336.862,2.202,336.692,2.202z M326.448,3.646h0.776c0.171,0,0.31-0.139,0.31-0.31V2.512c0-0.171-0.14-0.31-0.31-0.31
				h-2.92c-0.168,0-0.305,0.139-0.305,0.31v2.939c0,0.171,0.137,0.31,0.307,0.31h0.82c0.17,0,0.307-0.139,0.307-0.31V4.668
				l2.345,2.357c0.06,0.061,0.14,0.091,0.217,0.091c0.078,0,0.158-0.03,0.218-0.091l0.58-0.583c0.059-0.059,0.09-0.138,0.09-0.22
				s-0.031-0.16-0.09-0.219L326.448,3.646z M328.209,10.379c-0.119-0.119-0.313-0.119-0.435,0l-2.347,2.357v-0.783
				c0-0.171-0.137-0.311-0.308-0.311h-0.819c-0.17,0-0.308,0.14-0.308,0.311v2.938c0,0.172,0.138,0.312,0.308,0.312h2.92
				c0.168,0,0.312-0.14,0.312-0.312v-0.824c0-0.172-0.144-0.311-0.312-0.311h-0.774l2.342-2.355c0.06-0.061,0.091-0.139,0.091-0.221
				s-0.031-0.16-0.091-0.223L328.209,10.379z M336.692,11.645h-0.818c-0.17,0-0.309,0.139-0.309,0.31v0.782l-2.343-2.356
				c-0.121-0.119-0.313-0.119-0.437,0l-0.58,0.584c-0.057,0.058-0.09,0.138-0.09,0.22s0.033,0.16,0.09,0.223l2.343,2.354h-0.774
				c-0.173,0-0.31,0.139-0.31,0.313v0.821c0,0.17,0.137,0.313,0.31,0.313h2.918c0.17,0,0.31-0.144,0.31-0.313v-2.938
				C337,11.782,336.862,11.645,336.692,11.645z"/>
		</g>
	</g>
</g>
<g id="Shape_10_4_" enable-background="new    ">
	<g id="Shape_10_1_">
		<g>
			<path fill="#546E7A" d="M355.496,3.597c-3.065-3.065-8.036-3.066-11.104,0c-3.067,3.066-3.063,8.037,0,11.104
				c3.063,3.064,8.037,3.064,11.104,0C358.563,11.634,358.563,6.663,355.496,3.597z M349.938,4.836c0.604,0,0.981,0.405,0.993,0.946
				c0,0.516-0.394,0.934-1.008,0.934c-0.59,0-0.979-0.418-0.972-0.934C348.944,5.241,349.336,4.836,349.938,4.836z M350.969,12.563
				c0,0.563-0.459,1.021-1.022,1.021s-1.022-0.458-1.022-1.021V8.466c0-0.565,0.459-1.024,1.022-1.024s1.022,0.459,1.022,1.024
				V12.563z"/>
		</g>
	</g>
</g>
<g id="Shape_11_1_" enable-background="new    ">
	<g id="Shape_11">
		<g>
			<path fill="#546E7A" d="M296.521,13.402h-7.676c-0.816,0-1.479,0.625-1.479,1.398c0,0.771,0.659,1.396,1.479,1.396h7.676
				c0.814,0,1.479-0.627,1.479-1.396C298,14.027,297.338,13.402,296.521,13.402z M298,3.602c0-0.773-0.662-1.4-1.479-1.4h-14.043
				c-0.814,0-1.479,0.627-1.479,1.4s0.662,1.399,1.479,1.399h14.043C297.338,5.002,298,4.376,298,3.602z M296.521,7.802h-10.857
				c-0.814,0-1.479,0.627-1.479,1.4c0,0.772,0.66,1.399,1.479,1.399h10.857c0.816,0,1.479-0.627,1.479-1.399
				C298,8.429,297.338,7.802,296.521,7.802z"/>
		</g>
	</g>
</g>
<g id="Shape_9_2_" enable-background="new    ">
	<g id="Shape_9_1_">
		<g>
			<path fill="#546E7A" d="M53.416,10.703c-0.781,0-1.471,0.367-1.92,0.936L47.322,9.52c0.056-0.2,0.095-0.409,0.095-0.628
				c0-0.239-0.046-0.465-0.111-0.685l4.156-2.107c0.448,0.591,1.154,0.977,1.957,0.977c1.358,0,2.459-1.09,2.459-2.437
				c0-1.346-1.101-2.437-2.459-2.437c-1.356,0-2.457,1.091-2.457,2.437c0,0.22,0.04,0.43,0.095,0.632L46.88,7.388
				c-0.451-0.566-1.142-0.936-1.923-0.936c-1.358,0-2.457,1.091-2.457,2.438c0,1.346,1.099,2.437,2.457,2.437
				c0.804,0,1.51-0.388,1.959-0.979l4.153,2.104c-0.064,0.223-0.111,0.442-0.111,0.688c0,1.346,1.101,2.438,2.457,2.438
				c1.358,0,2.459-1.092,2.459-2.438C55.875,11.793,54.775,10.703,53.416,10.703z"/>
		</g>
	</g>
</g>
<g id="Shape_10_3_" enable-background="new    ">
	<g id="Shape_10_2_">
		<g>
			<path fill="#546E7A" d="M73.394,1.732c1.449,2.604,1.693,6.574-4,6.442V4.967L64.5,9.818l4.894,4.854v-3.139
				C76.211,11.71,76.971,5.566,73.394,1.732z"/>
		</g>
	</g>
</g>
<g id="Shape_3_1_" enable-background="new    ">
	<g id="Shape_3">
		<g>
			<path fill="#546E7A" d="M113.758,1.702l-1.95-0.003c-2.189,0-3.604,1.449-3.604,3.692v1.703h-1.96
				c-0.169,0-0.307,0.137-0.307,0.307v2.467c0,0.169,0.138,0.308,0.307,0.308h1.96v6.227c0,0.17,0.137,0.307,0.307,0.307h2.557
				c0.169,0,0.308-0.137,0.308-0.307v-6.227h2.292c0.169,0,0.306-0.139,0.306-0.308l0.001-2.467c0-0.082-0.032-0.159-0.089-0.217
				c-0.058-0.058-0.136-0.09-0.217-0.09h-2.292V5.651c0-0.693,0.166-1.046,1.07-1.046l1.313-0.001c0.169,0,0.306-0.137,0.306-0.306
				v-2.29C114.063,1.84,113.927,1.703,113.758,1.702z"/>
		</g>
	</g>
</g>
<g id="Shape_4_1_" enable-background="new    ">
	<g id="Shape_4">
		<g>
			<path fill="#546E7A" d="M137.877,4.621c-0.543,0.241-1.125,0.404-1.738,0.478c0.625-0.375,1.104-0.97,1.331-1.676
				c-0.586,0.347-1.234,0.599-1.923,0.735c-0.553-0.59-1.338-0.957-2.209-0.957c-1.671,0-3.027,1.357-3.027,3.03
				c0,0.237,0.027,0.469,0.078,0.69c-2.515-0.127-4.746-1.333-6.238-3.167c-0.261,0.447-0.408,0.968-0.408,1.523
				c0,1.052,0.534,1.979,1.346,2.522c-0.496-0.017-0.963-0.153-1.371-0.38v0.037c0,1.47,1.043,2.692,2.428,2.974
				c-0.254,0.067-0.521,0.105-0.798,0.105c-0.195,0-0.384-0.021-0.57-0.059c0.386,1.205,1.503,2.082,2.827,2.104
				c-1.036,0.813-2.341,1.295-3.759,1.295c-0.244,0-0.485-0.016-0.722-0.041c1.339,0.861,2.93,1.363,4.64,1.363
				c5.568,0,8.612-4.618,8.612-8.624l-0.01-0.393C136.958,5.762,137.473,5.228,137.877,4.621z"/>
		</g>
	</g>
</g>
<g id="Shape_5_1_" enable-background="new    ">
	<g id="Shape_5">
		<g>
			<path fill="#546E7A" d="M148.628,1.204c-1.589,0-2.688,0.349-3.678,1.169c-0.779,0.674-1.243,1.653-1.243,2.619
				c0,1.489,1.132,3.072,3.229,3.072c0.202,0,0.425-0.021,0.622-0.04l-0.029,0.071c-0.084,0.202-0.163,0.395-0.163,0.691
				c0,0.581,0.278,0.938,0.549,1.286l0.033,0.043l-0.061,0.005c-0.866,0.062-2.478,0.17-3.655,0.896
				c-1.391,0.828-1.499,2.035-1.499,2.387c0,1.392,1.293,2.797,4.184,2.797c3.358,0,5.117-1.858,5.117-3.696
				c0-1.356-0.793-2.026-1.637-2.739l-0.711-0.557c-0.22-0.183-0.493-0.408-0.493-0.83c0-0.414,0.273-0.688,0.516-0.929l0.024-0.025
				c0.769-0.606,1.639-1.295,1.639-2.782c0-1.496-0.933-2.269-1.379-2.641h1.183c0.015,0,0.029-0.004,0.042-0.012l1.019-0.643
				c0.029-0.019,0.042-0.054,0.033-0.087c-0.009-0.033-0.04-0.056-0.074-0.056h-3.566v0.002H148.628z M150.73,13.268
				c0,1.305-1.096,2.109-2.859,2.109c-2.049,0-3.425-0.96-3.425-2.388c0-0.937,0.563-1.607,1.672-2.019
				c0.888-0.298,2.033-0.313,2.045-0.313c0.193,0,0.292,0,0.446,0.021C150.041,11.708,150.73,12.245,150.73,13.268z M149.173,6.969
				c-0.327,0.327-0.858,0.547-1.323,0.547c-1.719,0-2.432-2.267-2.432-3.479c0-0.617,0.14-1.091,0.427-1.448
				c0.313-0.393,0.847-0.646,1.363-0.646c1.578,0,2.451,2.128,2.451,3.599C149.659,5.772,149.659,6.478,149.173,6.969z
				 M157.189,8.208h-1.878V6.33c0-0.043-0.035-0.078-0.077-0.078h-0.808c-0.042,0-0.077,0.035-0.077,0.078v1.878h-1.869
				c-0.042,0-0.077,0.034-0.077,0.077v0.82c0,0.044,0.035,0.078,0.077,0.078h1.869v1.891c0,0.043,0.035,0.076,0.077,0.076h0.808
				c0.042,0,0.077-0.033,0.077-0.076v-1.89h1.878c0.043,0,0.077-0.034,0.077-0.078v-0.82C157.267,8.242,157.232,8.208,157.189,8.208
				z"/>
		</g>
	</g>
</g>
<g id="Shape_3_kopie_1_" enable-background="new    ">
	<g id="Shape_3_kopie">
		<g>
			<path fill="#546E7A" d="M233.758,1.702l-1.949-0.003c-2.188,0-3.604,1.449-3.604,3.692v1.703h-1.961
				c-0.17,0-0.309,0.137-0.309,0.307v2.467c0,0.169,0.141,0.308,0.309,0.308h1.961v6.227c0,0.17,0.137,0.307,0.307,0.307h2.559
				c0.172,0,0.309-0.137,0.309-0.307v-6.227h2.291c0.17,0,0.311-0.139,0.311-0.308V7.401c0-0.082-0.033-0.159-0.09-0.217
				c-0.061-0.058-0.139-0.09-0.219-0.09h-2.293V5.651c0-0.693,0.166-1.046,1.069-1.046l1.313-0.001c0.168,0,0.305-0.137,0.305-0.306
				v-2.29C234.063,1.84,233.926,1.703,233.758,1.702z"/>
		</g>
	</g>
</g>
<g id="Shape_4_kopie_1_" enable-background="new    ">
	<g id="Shape_4_kopie">
		<g>
			<path fill="#546E7A" d="M257.877,4.621c-0.543,0.241-1.125,0.404-1.736,0.478c0.625-0.375,1.104-0.97,1.33-1.676
				c-0.588,0.347-1.234,0.599-1.924,0.735c-0.553-0.59-1.338-0.957-2.209-0.957c-1.672,0-3.027,1.357-3.027,3.03
				c0,0.237,0.027,0.469,0.078,0.69c-2.516-0.127-4.746-1.333-6.238-3.167c-0.26,0.447-0.406,0.968-0.406,1.523
				c0,1.052,0.531,1.979,1.348,2.522c-0.494-0.017-0.963-0.153-1.369-0.38v0.037c0,1.47,1.043,2.692,2.428,2.974
				c-0.254,0.067-0.521,0.105-0.799,0.105c-0.193,0-0.387-0.021-0.568-0.059c0.389,1.205,1.506,2.082,2.826,2.104
				c-1.033,0.813-2.342,1.295-3.76,1.295c-0.244,0-0.482-0.016-0.723-0.041c1.338,0.861,2.932,1.363,4.641,1.363
				c5.566,0,8.609-4.618,8.609-8.624l-0.01-0.393C256.959,5.762,257.473,5.228,257.877,4.621z"/>
		</g>
	</g>
</g>
<g id="Shape_5_kopie_1_" enable-background="new    ">
	<g id="Shape_5_kopie">
		<g>
			<path fill="#546E7A" d="M268.627,1.204c-1.588,0-2.688,0.349-3.678,1.169c-0.779,0.674-1.242,1.653-1.242,2.619
				c0,1.489,1.131,3.072,3.229,3.072c0.201,0,0.426-0.021,0.623-0.04l-0.029,0.071c-0.084,0.202-0.162,0.395-0.162,0.691
				c0,0.581,0.277,0.938,0.551,1.286l0.03,0.043l-0.062,0.005c-0.865,0.062-2.479,0.17-3.654,0.896
				c-1.391,0.828-1.498,2.035-1.498,2.387c0,1.392,1.293,2.797,4.186,2.797c3.355,0,5.117-1.858,5.117-3.696
				c0-1.356-0.795-2.026-1.641-2.739l-0.711-0.557c-0.221-0.183-0.492-0.408-0.492-0.83c0-0.414,0.271-0.688,0.518-0.929
				l0.021-0.025c0.771-0.606,1.641-1.295,1.641-2.782c0-1.496-0.934-2.269-1.379-2.641h1.184c0.016,0,0.029-0.004,0.041-0.012
				l1.021-0.643c0.027-0.019,0.041-0.054,0.031-0.087c-0.013-0.033-0.041-0.056-0.076-0.056h-3.565L268.627,1.204L268.627,1.204z
				 M270.73,13.268c0,1.305-1.1,2.109-2.859,2.109c-2.047,0-3.426-0.96-3.426-2.388c0-0.937,0.563-1.607,1.674-2.019
				c0.887-0.298,2.031-0.313,2.045-0.313c0.191,0,0.291,0,0.443,0.021C270.042,11.708,270.73,12.245,270.73,13.268z M269.172,6.969
				c-0.324,0.327-0.857,0.547-1.32,0.547c-1.721,0-2.434-2.267-2.434-3.479c0-0.617,0.141-1.091,0.428-1.448
				c0.313-0.393,0.848-0.646,1.363-0.646c1.578,0,2.449,2.128,2.449,3.599C269.659,5.772,269.659,6.478,269.172,6.969z
				 M277.189,8.208h-1.879V6.33c0-0.043-0.035-0.078-0.076-0.078h-0.811c-0.043,0-0.076,0.035-0.076,0.078v1.878h-1.869
				c-0.041,0-0.076,0.034-0.076,0.077v0.82c0,0.044,0.035,0.078,0.076,0.078h1.869v1.891c0,0.043,0.033,0.076,0.076,0.076h0.811
				c0.041,0,0.076-0.033,0.076-0.076v-1.89h1.879c0.043,0,0.076-0.034,0.076-0.078v-0.82C277.268,8.242,277.232,8.208,277.189,8.208
				z"/>
		</g>
	</g>
</g>
<g id="Shape_6_1_" enable-background="new    ">
	<g id="Shape_6">
		<g>
			<path fill="#546E7A" d="M167.494,13.193l-0.76,0.752c-0.657,0.652-1.727,0.652-2.385,0c-0.315-0.313-0.489-0.729-0.489-1.172
				c0-0.442,0.175-0.858,0.489-1.174l2.792-2.771c0.579-0.573,1.668-1.419,2.461-0.632c0.364,0.361,0.952,0.359,1.314-0.005
				c0.36-0.363,0.358-0.952-0.005-1.313c-1.35-1.338-3.344-1.091-5.079,0.632l-2.792,2.771c-0.67,0.663-1.039,1.549-1.039,2.487
				c0,0.94,0.369,1.824,1.039,2.49c0.688,0.686,1.595,1.024,2.501,1.024s1.812-0.343,2.501-1.024l0.759-0.754
				c0.364-0.359,0.366-0.949,0.004-1.313C168.447,12.834,167.858,12.832,167.494,13.193z M175.958,2.433
				c-1.449-1.438-3.476-1.515-4.816-0.185l-0.945,0.938c-0.363,0.361-0.366,0.949-0.005,1.313c0.362,0.363,0.95,0.366,1.314,0.004
				l0.945-0.938c0.694-0.689,1.604-0.404,2.197,0.185c0.316,0.313,0.49,0.73,0.49,1.173c0,0.443-0.174,0.859-0.49,1.173
				l-2.979,2.955c-1.362,1.352-2.001,0.717-2.274,0.446c-0.364-0.362-0.952-0.358-1.313,0.004c-0.362,0.364-0.359,0.952,0.005,1.313
				c0.625,0.621,1.339,0.933,2.087,0.933c0.917,0,1.884-0.462,2.805-1.375l2.979-2.955c0.67-0.665,1.039-1.549,1.039-2.49
				C176.997,3.982,176.628,3.098,175.958,2.433z"/>
		</g>
	</g>
</g>
<g id="Shape_7_copy_1_" enable-background="new    ">
	<g id="Shape_7_copy">
		<g>
			<path fill="#546E7A" d="M194.739,10.781l-4.21-4.35c-0.156-0.164-0.315-0.229-0.535-0.229c-0.189,0-0.383,0.065-0.539,0.229
				l-4.209,4.35c-0.316,0.326-0.316,0.816,0,1.146c0.315,0.327,0.76,0.326,1.075,0l3.674-3.792l3.67,3.792
				c0.316,0.326,0.76,0.326,1.076,0c0.156-0.163,0.254-0.356,0.254-0.557C194.993,11.175,194.896,10.943,194.739,10.781z"/>
		</g>
	</g>
</g>
<g id="komentare_-_ikona_copy_1_" enable-background="new    ">
	<g id="komentare_-_ikona_copy">
		<g>
			<path fill="#546E7A" d="M209.9,1.404c-4.248,0-7.699,2.972-7.699,6.624c0,1.91,0.938,3.693,2.59,4.951v3.815l4.48-2.172
				c0.217,0.021,0.424,0.022,0.629,0.022c4.246,0,7.699-2.974,7.699-6.622S214.146,1.404,209.9,1.404z"/>
		</g>
	</g>
</g>
<g id="cas_-_ikona_copy_1_" enable-background="new    ">
	<g id="cas_-_ikona_copy">
		<g>
			<path fill="#546E7A" d="M90,1.698c-4.138,0-7.503,3.365-7.503,7.503c0,4.137,3.365,7.502,7.503,7.502
				c4.137,0,7.502-3.365,7.502-7.502C97.502,5.063,94.137,1.698,90,1.698z M90,15.182c-3.297,0-5.979-2.684-5.979-5.979
				s2.683-5.98,5.979-5.98s5.979,2.683,5.979,5.979S93.297,15.182,90,15.182z M92.657,8.417h-1.896V5.206
				c0-0.421-0.341-0.762-0.762-0.762s-0.763,0.341-0.763,0.762v4.733h3.419c0.422,0,0.763-0.34,0.763-0.763
				C93.419,8.76,93.078,8.417,92.657,8.417z"/>
		</g>
	</g>
</g>
<g id="komentare_-_ikona_1_" enable-background="new    ">
	<g id="komentare_-_ikona">
		<g>
			<path fill="#546E7A" d="M10.5,1.469c-4.137,0-7.501,2.985-7.501,6.654c0,1.919,0.915,3.711,2.522,4.977v3.836l4.367-2.183
				c0.21,0.019,0.412,0.022,0.611,0.022c4.136,0,7.5-2.983,7.5-6.652S14.636,1.469,10.5,1.469z M10.5,13.234
				c-0.217,0-0.44-0.014-0.684-0.036l-0.223-0.021l-2.529,1.267v-2.133l-0.328-0.23c-1.394-0.979-2.193-2.422-2.193-3.958
				c0-2.819,2.672-5.112,5.958-5.112c3.285,0,5.958,2.293,5.958,5.112C16.458,10.941,13.785,13.234,10.5,13.234z"/>
		</g>
	</g>
</g>
<g id="Shape_8_1_" enable-background="new    ">
	<g id="Shape_8">
		<g>
			<path fill="#546E7A" d="M37.408,9.84V7.935l-2.264-0.369C35.01,7.031,34.8,6.527,34.522,6.064l1.319-1.88l-1.345-1.345
				L32.64,4.174c-0.463-0.28-0.971-0.495-1.51-0.628l-0.396-2.253h-1.901l-0.366,2.246c-0.541,0.133-1.05,0.343-1.514,0.622
				l-1.852-1.322l-1.345,1.345l1.302,1.861c-0.282,0.466-0.496,0.975-0.632,1.519l-2.235,0.371v1.902l2.233,0.396
				c0.135,0.545,0.35,1.054,0.631,1.521l-1.32,1.847l1.346,1.349l1.863-1.308c0.467,0.277,0.974,0.491,1.515,0.623l0.374,2.247
				h1.901l0.399-2.252c0.537-0.138,1.044-0.352,1.506-0.633l1.877,1.317l1.344-1.346l-1.339-1.858
				c0.277-0.464,0.488-0.97,0.621-1.505L37.408,9.84z M29.8,11.557c-1.465,0-2.653-1.188-2.653-2.649
				c0-1.464,1.188-2.652,2.653-2.652c1.465,0,2.652,1.188,2.652,2.652C32.453,10.368,31.265,11.557,29.8,11.557z"/>
		</g>
	</g>
</g>
<g>
	<path fill="#546E7A" stroke="#FFFFFF" stroke-miterlimit="10" d="M370.473,1.702c-4.142,0-7.5,3.358-7.5,7.5
		c0,4.141,3.358,7.5,7.5,7.5s7.5-3.359,7.5-7.5C377.973,5.06,374.614,1.702,370.473,1.702z M374.098,11.729
		c0.052,0.052,0.076,0.117,0.076,0.188c0,0.069-0.024,0.142-0.076,0.188l-0.723,0.727c-0.054,0.057-0.121,0.079-0.187,0.079
		c-0.07,0-0.144-0.024-0.188-0.079l-2.527-2.527l-2.526,2.531c-0.047,0.051-0.117,0.078-0.187,0.078
		c-0.063,0-0.138-0.027-0.188-0.078l-0.728-0.725c-0.049-0.053-0.076-0.117-0.076-0.191c0-0.068,0.027-0.139,0.076-0.188
		l2.533-2.542l-2.539-2.511c-0.104-0.104-0.104-0.275,0-0.38l0.721-0.725c0.056-0.052,0.117-0.078,0.191-0.078
		c0.069,0,0.135,0.026,0.188,0.078l2.53,2.5l2.535-2.5c0.049-0.052,0.116-0.078,0.188-0.078c0.069,0,0.14,0.026,0.188,0.078
		l0.728,0.725c0.104,0.105,0.104,0.276,0,0.38l-2.546,2.511L374.098,11.729z"/>
</g>
<g>
	<g>
		<path fill="#546E7A" d="M397.52,9.073c-0.084-0.129-0.25-0.161-0.375-0.072l-2.657,1.87c-0.063,0.044-0.146,0.025-0.187-0.041
			l-3.133-5.413c-0.076-0.131-0.195-0.132-0.269,0.002l-5.812,9.281c-0.07,0.136-0.009,0.243,0.144,0.243h16.993
			c0.146,0,0.203-0.104,0.123-0.231L397.52,9.073z"/>
		<circle fill="#546E7A" cx="400.012" cy="4.968" r="1.444"/>
		<path fill="#546E7A" d="M383.166,1.723v15.153c0,0.067,0.062,0.124,0.138,0.124h20.906c0.073,0,0.135-0.057,0.135-0.124V1.723
			c0-0.069-0.062-0.125-0.135-0.125h-20.906C383.227,1.598,383.166,1.654,383.166,1.723z M383.791,2.324h19.933v13.951h-19.933
			V2.324z"/>
	</g>
</g>
</svg>
