<?xml version="1.0" encoding="UTF-8" standalone="no"?><!DOCTYPE svg PUBLIC "-//W3C//DTD SVG 1.1//EN" "http://www.w3.org/Graphics/SVG/1.1/DTD/svg11.dtd"><svg width="100%" height="100%" viewBox="0 0 1000 1000" version="1.1" xmlns="http://www.w3.org/2000/svg" xmlns:xlink="http://www.w3.org/1999/xlink" xml:space="preserve" xmlns:serif="http://www.serif.com/" style="fill-rule:evenodd;clip-rule:evenodd;stroke-linejoin:round;stroke-miterlimit:2;"><text x="315.45px" y="556.88px" style="font-family:'Gugi-Regular', 'Gugi';font-size:144px;fill:#426764;">ASCIA</text><path id="BELOW-LINE" serif:id="BELOW LINE" d="M797.42,565.637c0,-2.843 -2.308,-5.151 -5.151,-5.151l-490.956,0c-2.843,0 -5.151,2.308 -5.151,5.151l0,10.302c0,2.843 2.308,5.151 5.151,5.151l490.956,0c2.843,0 5.151,-2.308 5.151,-5.151l0,-10.302Z" style="fill:#1d3331;"/><path id="UPER-LINE" serif:id="UPER LINE" d="M754.903,424.061c0,-2.843 -2.308,-5.151 -5.151,-5.151l-539.994,0c-2.843,0 -5.151,2.308 -5.151,5.151l0,10.302c0,2.843 2.308,5.151 5.151,5.151l539.994,0c2.843,0 5.151,-2.308 5.151,-5.151l0,-10.302Z" style="fill:#1d3331;"/><text x="192.846px" y="580.886px" style="font-family:'Gugi-Regular', 'Gugi';font-size:204px;fill:url(#_Linear1);">Z</text><ellipse id="A-center-circle-2" serif:id="A center circle 2" cx="702.834" cy="522.596" rx="11.37" ry="11.521" style="fill:#ffd500;"/><ellipse id="A-center-circle-1" serif:id="A center circle 1" cx="364.656" cy="522.596" rx="11.37" ry="11.521" style="fill:#ffdc2c;"/><ellipse id="rounded-end-of-uper-line" serif:id="rounded end of uper line" cx="751.598" cy="429.212" rx="11.008" ry="11.154" style="fill:url(#_Linear2);"/><ellipse id="rounded-end-of-below-line" serif:id="rounded end of below line" cx="792.269" cy="570.788" rx="11.008" ry="11.154" style="fill:url(#_Linear3);"/><defs><linearGradient id="_Linear1" x1="0" y1="0" x2="1" y2="0" gradientUnits="userSpaceOnUse" gradientTransform="matrix(107.498,0.330383,-0.330383,107.498,191.943,493.899)"><stop offset="0" style="stop-color:#426764;stop-opacity:1"/><stop offset="0.61" style="stop-color:#3c5e5b;stop-opacity:1"/><stop offset="0.82" style="stop-color:#2d4947;stop-opacity:1"/><stop offset="1" style="stop-color:#1d3331;stop-opacity:1"/></linearGradient><linearGradient id="_Linear2" x1="0" y1="0" x2="1" y2="0" gradientUnits="userSpaceOnUse" gradientTransform="matrix(-15.2383,4.13625e-07,-4.13625e-07,-15.2383,762.606,429.212)"><stop offset="0" style="stop-color:#426764;stop-opacity:1"/><stop offset="1" style="stop-color:#1d3331;stop-opacity:1"/></linearGradient><linearGradient id="_Linear3" x1="0" y1="0" x2="1" y2="0" gradientUnits="userSpaceOnUse" gradientTransform="matrix(-14.6476,4.13625e-07,-4.13625e-07,-14.6476,803.278,570.788)"><stop offset="0" style="stop-color:#426764;stop-opacity:1"/><stop offset="1" style="stop-color:#1d3331;stop-opacity:1"/></linearGradient></defs></svg>