<?xml version="1.0" encoding="UTF-8"?>
<svg width="260px" height="260px" viewBox="0 0 260 260" version="1.1" xmlns="http://www.w3.org/2000/svg" xmlns:xlink="http://www.w3.org/1999/xlink">
    <title>Performance-Active</title>
    <g id="Page-1" stroke="none" stroke-width="1" fill="none" fill-rule="evenodd">
        <g id="Performance-Active" fill-rule="nonzero">
            <g id="Performance">
                <circle id="bg" fill="#929292" cx="130" cy="130" r="130"></circle>
                <path d="M192.222222,53 L67.7777778,53 C59.6568542,53 53,59.6568542 53,67.7777778 L53,192.222222 C53,200.383764 59.6162364,207 67.7777778,207 L192.222222,207 C200.383764,207 207,200.383764 207,192.222222 L207,67.7777778 C207,59.6162364 200.383764,53 192.222222,53 Z M192.222222,138.888889 L192.222222,192.222222 L67.7777778,192.222222 L67.7777778,138.888889 L192.222222,138.888889 Z M94.4444444,156.666667 C99.3536422,156.666667 103.333333,160.646358 103.333333,165.555556 C103.333333,170.464753 99.3536422,174.444444 94.4444444,174.444444 C89.5352466,174.444444 85.5555556,170.464753 85.5555556,165.555556 C85.5555556,160.646358 89.5352466,156.666667 94.4444444,156.666667 Z M192.222222,67.7777778 L192.222222,121.111111 L67.7777778,121.111111 L67.7777778,67.7777778 L192.222222,67.7777778 Z M94.4444444,85.5555556 C99.3536422,85.5555556 103.333333,89.5352466 103.333333,94.4444444 C103.333333,99.3536422 99.3536422,103.333333 94.4444444,103.333333 C89.5352466,103.333333 85.5555556,99.3536422 85.5555556,94.4444444 C85.5555556,89.5352466 89.5352466,85.5555556 94.4444444,85.5555556 Z" id="Shape" fill="#ffffff"></path>
            </g>
        </g>
    </g>
</svg>