<svg width="96" height="82" viewBox="0 0 96 82" fill="none" xmlns="http://www.w3.org/2000/svg">
<g filter="url(#filter0_d)">
<path d="M37.545 20.055C39.525 21.815 41.395 23.685 43.155 25.665C42.935 25.995 42.33 26.655 41.34 27.645C40.35 28.525 39.58 29.295 39.03 29.955C38.48 30.505 37.82 31.275 37.05 32.265C36.39 33.145 35.895 34.025 35.565 34.905C35.235 35.785 35.07 36.61 35.07 37.38C35.07 38.59 36.445 40.515 39.195 43.155C41.945 45.685 43.32 48.49 43.32 51.57C43.32 54.32 42.33 56.685 40.35 58.665C38.48 60.535 36.115 61.47 33.255 61.47C29.405 61.47 26.325 60.095 24.015 57.345C21.815 54.595 20.715 51.295 20.715 47.445C20.715 37.325 26.325 28.195 37.545 20.055ZM69.72 20.055C71.7 21.815 73.57 23.685 75.33 25.665C75.11 25.995 74.505 26.655 73.515 27.645C72.525 28.525 71.755 29.295 71.205 29.955C70.655 30.505 69.995 31.275 69.225 32.265C68.565 33.145 68.07 34.025 67.74 34.905C67.41 35.785 67.245 36.61 67.245 37.38C67.245 38.59 68.62 40.515 71.37 43.155C74.12 45.685 75.495 48.49 75.495 51.57C75.495 54.32 74.505 56.685 72.525 58.665C70.655 60.535 68.29 61.47 65.43 61.47C61.58 61.47 58.5 60.095 56.19 57.345C53.99 54.595 52.89 51.295 52.89 47.445C52.89 37.325 58.5 28.195 69.72 20.055Z" fill="#FF4D00"/>
</g>
<defs>
<filter id="filter0_d" x="0.714996" y="0.0550537" width="94.78" height="81.415" filterUnits="userSpaceOnUse" color-interpolation-filters="sRGB">
<feFlood flood-opacity="0" result="BackgroundImageFix"/>
<feColorMatrix in="SourceAlpha" type="matrix" values="0 0 0 0 0 0 0 0 0 0 0 0 0 0 0 0 0 0 127 0"/>
<feOffset/>
<feGaussianBlur stdDeviation="10"/>
<feColorMatrix type="matrix" values="0 0 0 0 1 0 0 0 0 0.301961 0 0 0 0 0 0 0 0 0.5 0"/>
<feBlend mode="normal" in2="BackgroundImageFix" result="effect1_dropShadow"/>
<feBlend mode="normal" in="SourceGraphic" in2="effect1_dropShadow" result="shape"/>
</filter>
</defs>
</svg>
