<svg width="96" height="82" viewBox="0 0 96 82" fill="none" xmlns="http://www.w3.org/2000/svg">
<g filter="url(#filter0_d)">
<path d="M58.4807 61.9496C56.5004 60.1899 54.6301 58.3202 52.8698 56.3405C53.0897 56.0105 53.6946 55.3504 54.6844 54.3602C55.6743 53.48 56.4442 52.7099 56.9941 52.0498C57.544 51.4997 58.2039 50.7296 58.9737 49.7395C59.6336 48.8594 60.1284 47.9793 60.4583 47.0993C60.7881 46.2192 60.953 45.3942 60.9529 44.6242C60.9527 43.4142 59.5774 41.4894 56.827 38.8499C54.0765 36.3203 52.7011 33.5155 52.7006 30.4355C52.7002 27.6855 53.6898 25.3204 55.6695 23.34C57.5392 21.4697 59.904 20.5344 62.764 20.5339C66.614 20.5333 69.6942 21.9078 72.0047 24.6574C74.2051 27.4071 75.3056 30.7069 75.3063 34.5569C75.3079 44.6769 69.6994 53.8078 58.4807 61.9496ZM26.3057 61.9548C24.3254 60.1951 22.4551 58.3254 20.6948 56.3457C20.9147 56.0156 21.5196 55.3555 22.5094 54.3654C23.4993 53.4852 24.2692 52.7151 24.8191 52.055C25.369 51.5049 26.0289 50.7348 26.7987 49.7447C27.4586 48.8646 27.9534 47.9845 28.2833 47.1044C28.6131 46.2244 28.778 45.3994 28.7779 44.6294C28.7777 43.4194 27.4024 41.4946 24.652 38.855C21.9015 36.3255 20.5261 33.5207 20.5256 30.4407C20.5252 27.6907 21.5148 25.3255 23.4945 23.3452C25.3642 21.4749 27.729 20.5395 30.589 20.5391C34.439 20.5385 37.5192 21.913 39.8297 24.6626C42.0301 27.4122 43.1306 30.7121 43.1313 34.5621C43.1329 44.6821 37.5244 53.813 26.3057 61.9548Z" fill="#00FFA0"/>
</g>
<defs>
<filter id="filter0_d" x="0.525604" y="0.533936" width="94.7807" height="81.4209" filterUnits="userSpaceOnUse" color-interpolation-filters="sRGB">
<feFlood flood-opacity="0" result="BackgroundImageFix"/>
<feColorMatrix in="SourceAlpha" type="matrix" values="0 0 0 0 0 0 0 0 0 0 0 0 0 0 0 0 0 0 127 0"/>
<feOffset/>
<feGaussianBlur stdDeviation="10"/>
<feColorMatrix type="matrix" values="0 0 0 0 0 0 0 0 0 1 0 0 0 0 0.627451 0 0 0 0.62 0"/>
<feBlend mode="normal" in2="BackgroundImageFix" result="effect1_dropShadow"/>
<feBlend mode="normal" in="SourceGraphic" in2="effect1_dropShadow" result="shape"/>
</filter>
</defs>
</svg>
