<?xml version="1.0" encoding="utf-8"?>
<!-- Generator: Adobe Illustrator 20.1.0, SVG Export Plug-In . SVG Version: 6.00 Build 0)  -->
<svg version="1.1" id="Layer_1" xmlns="http://www.w3.org/2000/svg" xmlns:xlink="http://www.w3.org/1999/xlink" x="0px" y="0px"
	 viewBox="0 0 210 19" style="enable-background:new 0 0 210 19;" xml:space="preserve">
<style type="text/css">
	.st0{fill:#DBDADA;}
</style>
<path class="st0" d="M12.8,0h9.7l4.3,19h-8.4L18,17H9.7l-1.3,2H0L12.8,0z M16.4,5.7L16.4,5.7L12.5,12h4.8L16.4,5.7z"/>
<path class="st0" d="M31.6,0h7.9l-2.6,11.3c-0.5,2.4,0.8,3.2,3.3,3.2c2.6,0,4.2-0.8,4.8-3.2L47.6,0h7.9l-2.6,11.6
	c-1.4,5.9-5.6,7.4-13.7,7.4c-8.1,0-11.5-1.5-10.2-7.4L31.6,0z"/>
<path class="st0" d="M63.1,5h-7.3l1.1-5h22.5l-1.1,5H71l-3.2,14h-7.9L63.1,5z"/>
<path class="st0" d="M94,0c4.8,0,13.6-0.2,11.4,9.5c-2.2,9.7-11.2,9.5-15.9,9.5c-4.8,0-13.6,0.2-11.4-9.5C80.2-0.2,89.2,0,94,0z
	 M90.5,14.8c3.2,0,5.6-1.5,6.5-5.3c0.9-3.8-0.8-5.3-4.1-5.3c-3.2,0-5.6,1.5-6.5,5.3C85.6,13.3,87.3,14.8,90.5,14.8z"/>
<path class="st0" d="M118.2,11.6l-3.1,2.1l-1.1,5.3H106l4.3-19h7.9l-1.5,6.6l8.8-6.6H136l-10.6,7.3l7.1,11.7H122L118.2,11.6z"/>
<path class="st0" d="M137.8,0h7.9l-3.1,14h12.2l-1.1,5h-20.1L137.8,0z"/>
<path class="st0" d="M187,0h18c4.1,0,5.5,1.7,4.8,4.7c-0.4,1.6-1.6,3.1-3.2,3.6l0,0c2.4,0.6,2.6,2.9,2.3,4.3
	c-0.8,3.7-3.2,6.4-9.1,6.4h-17.1L187,0z M191.5,14h6.7c1.6,0,2.2-0.4,2.4-1.3c0.2-0.8-0.1-1.7-1.7-1.7h-6.8L191.5,14z M193.2,7h6
	c1.6,0,2.1-0.5,2.2-1.2c0.2-0.7-0.1-1.8-1.7-1.8h-6L193.2,7z"/>
<path class="st0" d="M159.6,0h7.9l-2.6,11.3c-0.5,2.4,0.8,3.2,3.3,3.2c2.6,0,4.2-0.8,4.8-3.2L175.6,0h7.9l-2.6,11.6
	c-1.4,5.9-5.6,7.4-13.7,7.4c-8.1,0-11.5-1.5-10.2-7.4L159.6,0z"/>
</svg>
