<?xml version="1.0" encoding="utf-8"?>
<!-- Generator: Adobe Illustrator 20.1.0, SVG Export Plug-In . SVG Version: 6.00 Build 0)  -->
<svg version="1.1" id="Layer_1" xmlns="http://www.w3.org/2000/svg" xmlns:xlink="http://www.w3.org/1999/xlink" x="0px" y="0px"
	 viewBox="0 0 182.1 22" style="enable-background:new 0 0 182.1 22;" xml:space="preserve">
<style type="text/css">
	.st0{fill:#DBDADA;}
</style>
<path class="st0" d="M91.5,14.6l-1.6-0.8c0,0.1-0.1,0.2-0.1,0.3l-0.1,0.3c-0.1,0.3-0.4,0.9-0.8,1.4c-0.4,0.6-0.8,1.2-1.3,1.5
	c-0.2,0.1-0.5,0.3-0.7,0.3c-0.1,0-0.2,0-0.3,0c-0.2,0-0.2-0.3-0.2-0.5c0-0.1,0-0.2,0-0.3c0-0.1,0.1-0.3,0.1-0.4
	c0-0.1,0.1-0.2,0.1-0.3c0.5-1.8,1-3.5,1.5-5.3L88.9,8H83l-0.3,1.3c-1-1-2.2-1.3-3.5-1.3c-0.2,0-0.4,0-0.5,0c-1.4,0.1-2.8,0.6-4,1.4
	C74.6,9,74.4,8.9,74,8.6C73.5,8.2,72.9,8,72.3,8c-0.5,0-0.9,0.1-1.4,0.3c-1.1,0.4-2,0.8-2.9,1.6c-0.7-1.4-2-1.7-3.4-1.8
	c-0.3,0-0.6,0-0.9,0c-1.5,0.1-2.8,0.4-3.8,1.7c-0.3,0.4-0.6,0.8-0.9,1.3c-0.5-1.5-1.5-2.4-3.1-2.8C55.4,8,55,8,54.5,8
	c-1.1,0-2.1,0.1-3.1,0.9L53.7,1h-5.9l-3.6,12.3c-0.1,0.4-0.2,0.8-0.3,1.2c-0.3,0.3-0.6,0.4-1,0.5c0.2-0.6,0.2-1.2,0.2-1.7
	c0-1.6-0.6-3.1-1.7-4.2c-1.2-1.4-3-1.9-4.7-2.1c-0.3,0-0.6,0-0.9,0c-2.1,0-4.1,0.6-5.7,1.8c-0.1-2.8-1.1-5.3-3.5-6.8
	c-2-1.3-4.5-1.6-7.1-1.8C18.8,0,18.1,0,17.4,0c-1.7,0-3.8,0-5.8,0.4C9.7,0.8,7.8,1.6,6,2.6c-1.8,1-3,2.6-3.8,4.7
	C2,8,1.9,8.7,1.9,9.4c0,1.8,0.9,3.3,2.7,3.4C6,12.9,6.9,12.1,7.8,11c0-0.1,0.1-0.2,0.2-0.3c-0.3-0.3-0.6-0.4-0.8-0.6
	C6.7,9.8,6.4,9.4,6.4,8.8c0-0.3,0.1-0.6,0.2-1C7,6,8.5,4.6,10.1,3.7c0.6-0.4,1.2-0.7,1.8-0.9c-0.6,0.9-1,1.9-1.3,3.1l-1,3.3
	c-0.6,2.2-1.2,4.4-1.9,6.6C6.8,15.3,5.9,15.1,5,15c-0.3,0-0.6-0.1-0.9-0.1c-0.6,0-1.1,0.1-1.7,0.2C0.7,15.6,0,16.6,0,17.9
	c0,0.1,0,0.2,0,0.3c0.1,0.9,0.4,2.1,1.4,2.8c1.1,0.7,2.5,1,3.9,1c0.2,0,0.5,0,0.7,0c1.8-0.1,3.6-0.9,5-1.5c0.2-0.1,0.4-0.2,0.5-0.3
	l0.6-0.3c0.2,0,0.4,0.2,0.6,0.2l1.3,0.4c1.2,0.3,2.5,0.5,3.8,0.5c0.3,0,0.6,0,0.9,0c2.2-0.1,4.3-0.8,6.2-1.9
	c0.9-0.5,1.7-1.2,2.4-2.1c0.3,0.6,0.7,1.2,1.2,1.8c1.4,1.5,3.5,2.2,5.5,2.2h0.5c2.2-0.1,4.4-1,6-2.6c0.5,0.3,1,0.6,1.6,0.6
	c0.7,0,1.3-0.4,1.9-0.9c0.1,0.2,0.2,0.5,0.3,0.7c0.9,1.3,2.3,1.9,3.8,2.2c0.6,0.1,1.2,0.1,1.8,0.1c0.7,0,1.4,0,2.1-0.2
	c1.5-0.3,3-0.9,4.3-1.8c1.3-1,2.2-2.4,2.6-4.3l0.3-0.6c0.5-1.2,1.3-2.3,2.4-2.5c0.5,0,0.8,0.1,0.8,0.6c0,0.1,0,0.3-0.1,0.4L60.1,21
	h5.6l0.2-0.9c0.2-0.8,0.4-1.5,0.7-2.3c0.5-1.9,1.2-3.8,2.1-5.3c0.6-1,1.1-1.5,1.5-1.5c0.2,0,0.4,0.2,0.5,0.6c0.2,1.1,0.8,1.7,1.4,2
	c-0.2,0.7-0.3,1.3-0.3,2c0,1.3,0.3,2.4,1.1,3.6c1,1.5,2.4,1.8,3.8,1.8c0.2,0,0.4,0,0.5,0c1.4-0.1,2.9-0.7,4-1.9
	c0.6,1.5,1.8,1.8,3.1,1.9h0.2c1.9,0,3.4-0.4,4.4-1.6C89.8,18.1,90.7,16.5,91.5,14.6L91.5,14.6z M6.8,17.5c-0.7,0.9-1.7,1.7-2.8,1.8
	c-0.2,0-0.5,0-0.7,0c-0.2,0-0.5,0-0.8-0.1c-0.5-0.1-1-0.4-1-0.8c0-0.1,0-0.2,0-0.2c0.1-0.4,0.5-0.8,0.9-0.9C3,17,3.6,17,4.2,17
	c0.2,0,0.4,0,0.5,0C5.4,17,6.2,17.2,6.8,17.5L6.8,17.5z M23.4,5.2c0,0.4,0,0.8-0.1,1.2c-0.1,1-0.3,2.1-0.5,3l-0.1,0.5
	c-0.2,0.8-0.4,1.5-0.8,2.4c-0.6,1.6-1.5,3.1-2.5,4.4c-1.1,1.3-2.3,2-3.7,2c-0.5,0-1.1-0.1-1.6-0.3c0.6-0.7,1.1-1.5,1.4-2.6l0.8-2.8
	l0.4-1.4c0.4-1.4,0.8-2.8,1.2-4.2c0.5-1.6,0.9-2.8,1.4-3.6c0.2-0.4,0.5-0.8,0.7-1c0.4-0.4,0.8-0.8,1.3-0.9c0.1,0,0.2,0,0.3,0
	c0.6,0,1.1,0.3,1.4,1.1C23.3,3.5,23.4,4.3,23.4,5.2L23.4,5.2z M38,10.6c-1.2,0.4-2,1.8-2.2,3.3v0.3c0,0.9,0.4,1.7,1,2.3
	c-0.1,0.3-0.2,0.4-0.3,0.7c-0.5,1-1.3,2.1-2.3,2.1c-0.6,0-0.9-0.8-1-1.6c-0.1-0.4-0.1-0.9-0.1-1.2c0-0.5,0.1-1.1,0.1-1.7
	c0.2-1.7,0.8-3.5,1.7-4.7c0.2-0.3,0.4-0.5,0.6-0.7c0.5-0.5,1-0.8,1.4-0.8C37.5,8.6,38,9.2,38,10.6L38,10.6z M53.7,11.8
	c0,0.3,0,0.5-0.1,0.8c0,0.4-0.2,0.9-0.2,1.3c-0.1,0.4-0.2,0.7-0.2,0.9c-0.2,0.5-0.4,1.2-0.7,1.8c-0.6,1.5-1.7,3-3,3
	c-0.6,0-0.8-0.4-0.8-0.9c0-0.9,0.3-2.1,0.8-3.5c0.2-0.5,0.5-1.3,0.9-2.1c0.6-1.3,1.5-2.6,2.4-2.6C53.5,10.3,53.7,10.9,53.7,11.8
	L53.7,11.8z M81.9,11c0,0.8-0.2,1.9-0.7,3.3c-0.2,0.5-0.4,1.2-0.8,1.9c-0.6,1.4-1.5,2.8-2.7,2.8c-0.5,0-0.7-0.5-0.7-1.3
	c0-0.3,0-0.6,0.1-0.9c0-0.4,0.1-0.8,0.2-1.1c0.1-0.4,0.2-0.8,0.2-0.9c0.2-0.5,0.5-1.3,1-2.1c0.6-1.1,1.4-2.2,2.2-2.6
	c0.2-0.1,0.4-0.1,0.6-0.1C81.9,10.1,81.9,10.5,81.9,11L81.9,11z"/>
<path class="st0" d="M182.1,14.4l-1.6-0.8c0,0.1-0.1,0.2-0.1,0.3l-0.1,0.3c-0.1,0.3-0.4,0.9-0.8,1.5c-0.4,0.6-0.8,1.2-1.3,1.5
	c-0.2,0.1-0.5,0.3-0.7,0.3c-0.1,0-0.2,0-0.3,0c-0.2,0-0.2-0.3-0.2-0.5c0-0.1,0-0.2,0-0.3c0-0.1,0.1-0.3,0.1-0.4
	c0-0.1,0.1-0.2,0.1-0.3c0.5-1.8,1-3.6,1.5-5.3l0.8-2.7h-5.9l-0.3,1.1c-1-1-2.2-1.1-3.5-1.1c-0.2,0-0.4,0-0.5,0
	c-1.6,0.1-3.2,0.9-4.4,1.9c-1.5,1.4-2.6,3.3-2.6,5.5c0,0.4,0,0.7,0.1,1c-0.3,0.4-0.6,0.8-1,1c-0.2,0.1-0.5,0.3-0.7,0.3
	c-0.3,0-0.4-0.2-0.4-0.4c0-0.1,0-0.3,0.1-0.4c0-0.1,0.1-0.3,0.1-0.4c0-0.2,0.1-0.3,0.1-0.4c0.1-0.5,0.3-1.1,0.5-1.5
	c0.1-0.5,0.3-1.1,0.4-1.5c0.1-0.3,0.1-0.4,0.2-0.7c0-0.2,0.1-0.5,0.1-0.7c0-0.9-0.2-1.7-0.8-2.4c-0.8-1.1-1.9-1.4-3.1-1.4
	c-0.2,0-0.4,0-0.6,0c-1.2,0.1-2.4,0.6-3.3,1.2c0-0.1,0.1-0.6,0.2-0.8l0.1-0.4h-5.6c-0.5,1.8-1,3.8-1.5,5.6l0,0
	c0,0.1-0.1,0.2-0.1,0.3l-0.1,0.3c-0.1,0.3-0.4,0.9-0.8,1.5c-0.4,0.6-0.8,1.2-1.3,1.5c-0.2,0.1-0.5,0.3-0.7,0.3c-0.1,0-0.2,0-0.3,0
	c-0.2,0-0.2-0.3-0.2-0.5c0-0.1,0-0.2,0-0.3c0-0.1,0.1-0.3,0.1-0.4c0-0.1,0.1-0.2,0.1-0.3c0.5-1.8,1-3.6,1.5-5.3l0.8-2.7h-5.9
	l-0.3,1.1c-1-1-2.2-1.1-3.5-1.1c-0.2,0-0.4,0-0.5,0c-1.6,0.1-3.2,0.6-4.4,1.6c-0.2,0.2-0.4,0.4-0.6,0.6c0,0,0-0.1,0-0.1
	c-0.1-0.7-0.4-1.3-0.9-1.7c-0.5-0.4-1.1-0.3-1.7-0.3c-0.5,0-0.9-0.2-1.4-0.1c-1.1,0.4-2,1.1-2.9,1.8c-0.7-1.4-2-1.8-3.4-1.9
	c-0.3,0-0.6,0-0.9,0c-1.5,0.1-2.8,0.5-3.8,1.8c-0.9,1.2-1.6,2.5-2.1,4l0,0l-0.1,0.3c0,0.1-0.1,0.2-0.1,0.3c-0.1,0.4-0.4,0.9-0.7,1.4
	c-0.5,0.7-1,1.4-1.5,1.7c-0.2,0.1-0.4,0.2-0.6,0.2c-0.3,0-0.4-0.2-0.4-0.4c0-0.1,0-0.3,0-0.4c0-0.2,0.1-0.3,0.1-0.5
	c0-0.1,0.1-0.2,0.1-0.3c0.1-0.5,0.3-1,0.4-1.5l0.4-1.5c0.2-0.5,0.2-0.9,0.2-1.4c0-0.8-0.2-1.6-0.7-2.3c-0.8-1-1.9-1.4-3.1-1.4
	c-0.2,0-0.4,0-0.6,0c-1.1,0.1-2.1,0.5-3,1.1l2.3-8h-5.8l-5.7,20h5.8l0.8-2.9c0.4-1.4,0.8-2.8,1.2-4.2c0.1-0.3,0.3-0.8,0.5-1.2
	c0.5-0.9,1.1-1.8,1.8-1.8c0.4,0,0.5,0.3,0.5,0.7c0,0.3-0.1,0.7-0.2,1c0,0.3-0.1,0.5-0.2,0.7c-0.1,0.4-0.3,0.8-0.3,0.9
	c-0.3,0.8-0.5,1.8-0.6,2.8c0,0.2,0,0.4,0,0.6c0,0.8,0.2,1.5,0.5,2.2c0.6,1,1.5,1.1,2.5,1.3c0.2,0,0.5,0,0.8,0c1.9,0,3.3-0.5,4.4-1.7
	c1.1-1.3,1.9-2.8,2.7-4.7l0,0l0.2-0.4c0.5-1.2,1.3-2.4,2.4-2.5c0.5,0,0.8,0.1,0.8,0.6c0,0.1,0,0.3-0.1,0.4l-2.5,8.2h5.6l0.2-0.9
	c0.2-0.8,0.4-1.3,0.7-2.2c0.5-1.9,1.2-3.8,2.1-5.3c0.6-1,1.1-1.6,1.5-1.6c0.2,0,0.4,0.2,0.5,0.6c0.3,1.5,1.2,2.1,2,2.1h0.1
	c0.1,0,0.2,0,0.2,0c-0.1,0.5-0.2,1.1-0.2,1.7c0,1.3,0.3,2.5,1.1,3.6c1,1.5,2.3,1.9,3.8,2c0.2,0,0.4,0,0.5,0c1.4-0.1,2.9-0.8,4-2
	c0.6,1.5,1.8,2,3.1,2h0.2c1.6,0,2.8-0.3,3.8-1.1c-0.1,0.4-0.2,0.7-0.3,1.1h5.6c0-0.1,0.1-0.3,0.1-0.4l0.7-2.6c0.6-2,1.2-4,2.2-5.6
	c0.7-1.1,1.2-1.5,1.6-1.5c0.3,0,0.5,0.3,0.5,0.7c0,0.3-0.1,0.7-0.2,1.1c-0.1,0.3-0.2,0.4-0.2,0.7c-0.2,0.4-0.3,0.8-0.3,0.9
	c-0.2,0.7-0.5,1.5-0.6,2.3c0,0.3-0.1,0.7-0.1,1.1c0,0.8,0.2,1.5,0.6,2.2c0.6,1,1.6,0.9,2.6,1.1c0.2,0,0.5,0,0.7,0
	c1.8,0,3.3-0.2,4.3-1.5c0.2-0.3,0.4-0.5,0.6-0.8c0.1,0.1,0.2,0.3,0.2,0.4c1,1.5,2.4,1.9,3.8,2c0.2,0,0.4,0,0.5,0
	c1.4-0.1,2.9-0.8,4-2c0.6,1.5,1.8,2,3.1,2h0.2c1.9,0,3.4-0.5,4.4-1.7C180.4,18,181.3,16.4,182.1,14.4L182.1,14.4z M139.1,10.8
	c0,0.8-0.2,1.9-0.7,3.4c-0.2,0.5-0.4,1.2-0.8,2c-0.6,1.4-1.5,2.8-2.7,2.8c-0.5,0-0.7-0.5-0.7-1.3c0-0.3,0-0.7,0.1-0.9
	c0-0.4,0.1-0.8,0.2-1.1c0.1-0.4,0.2-0.8,0.2-0.9c0.2-0.5,0.5-1.3,1-2.1c0.6-1.1,1.4-2.2,2.2-2.6c0.2-0.1,0.4-0.1,0.6-0.1
	C139,9.9,139.1,10.3,139.1,10.8L139.1,10.8z M172.5,10.8c0,0.8-0.2,1.9-0.7,3.4c-0.2,0.5-0.4,1.2-0.8,2c-0.6,1.4-1.5,2.8-2.7,2.8
	c-0.5,0-0.7-0.5-0.7-1.3c0-0.3,0-0.7,0.1-0.9c0-0.4,0.1-0.8,0.2-1.1c0.1-0.4,0.2-0.8,0.2-0.9c0.2-0.5,0.5-1.3,1-2.1
	c0.6-1.1,1.4-2.2,2.2-2.6c0.2-0.1,0.4-0.1,0.6-0.1C172.4,9.9,172.5,10.3,172.5,10.8L172.5,10.8z"/>
</svg>
