<?xml version="1.0" encoding="utf-8"?>
<!-- Generator: Adobe Illustrator 20.1.0, SVG Export Plug-In . SVG Version: 6.00 Build 0)  -->
<svg version="1.1" id="Layer_1" xmlns="http://www.w3.org/2000/svg" xmlns:xlink="http://www.w3.org/1999/xlink" x="0px" y="0px"
	 viewBox="0 0 49 22" style="enable-background:new 0 0 49 22;" xml:space="preserve">
<style type="text/css">
	.st0{fill:#DBDADA;}
</style>
<path class="st0" d="M6.6,5.5h2c5,0,5.4,4.3,5.4,5.7c0,2-0.2,5.3-4.4,5.3h-3V5.5L6.6,5.5z M-0.4,22.5h10c7.8,0,11.3-4.5,11.3-11.2
	c0-5.5-2.6-10.8-10-10.8H-0.4v21.7L-0.4,22.5z"/>
<path class="st0" d="M41.6,5.5h-2c-5,0-5.4,4.3-5.4,5.7c0,2,0.2,5.3,4.4,5.3h3V5.5L41.6,5.5z M48.6,22.5h-10
	c-7.8,0-11.3-4.5-11.3-11.2c0-5.5,2.6-10.8,10-10.8h11.3v21.7L48.6,22.5z"/>
<path class="st0" d="M25,11.9c1.1-0.5,2.1-1.5,2.1-2.7c0-1.9-1.7-2.6-3.3-2.6c-2.1,0-4.3,1.3-4.3,3.6c0,1.6,0.9,2.7,1.6,3.7
	c-1.9,1-4.1,2.8-4.1,5.1c0,1.9,1.6,3.5,3.6,3.5c2.5,0,3.9-1.2,5.1-2.6c1.1,1.4,2.2,2.6,4.1,2.6c2.2,0,3.9-2.1,4.4-3.9l-0.5-0.2
	c-0.3,0.8-0.7,1.6-1.6,1.6c-0.9,0-1.9-1.1-3.7-3.5c0.1-0.3,1-1.7,1.4-1.7c0.1,0,0.1,0.1,0.1,0.2c0,0.2-0.1,0.4-0.1,0.6
	c0,0.7,0.5,1.6,1.6,1.6c1,0,1.8-0.7,1.8-1.9c0-1.2-0.9-1.9-2.1-1.9c-1.2,0-2,0.7-3.2,2.6L25,11.9L25,11.9z M25.5,19.5
	c-0.5,0.5-1,0.8-1.7,0.8c-1.3,0-3.5-3-3.5-4.5c0-0.9,0.5-1.2,1.1-1.7L25.5,19.5L25.5,19.5z M26.4,9.2c0,1.1-0.7,1.9-1.6,2.3
	C23.6,10,23,9.1,23,8.6c0-0.7,0.3-1.3,1.5-1.3C25.6,7.3,26.4,8.2,26.4,9.2L26.4,9.2z"/>
</svg>
