<svg width="21" height="21" viewBox="0 0 21 21" xmlns="http://www.w3.org/2000/svg"><title>IN_normal</title><path d="M20.031 10.031v4a7.704 7.704 0 0 1-.52 2.52c-.28.64-.6 1.2-1.16 1.76-.52.56-1.08.88-1.76 1.16-.64.24-1.36.44-2.44.48-1.04.04-1.4.08-4.12.08s-3.08-.04-4.08-.04c-1.08-.04-1.8-.24-2.44-.48-.64-.28-1.2-.6-1.76-1.16-.56-.52-.92-1.08-1.16-1.76-.24-.64-.52-.48-.56-1.56-.08-1.04 0-2.28 0-5s-.04-3 0-4c.04-1.08.28-1.88.52-2.52.28-.64.6-1.2 1.16-1.76.52-.56 1.08-.88 1.76-1.16.64-.24 1.48-.52 2.56-.56 1.04-.04 1.28 0 4 0 2.72 0 3-.04 4 0 1.08.04 1.88.28 2.52.52.64.28 1.2.6 1.76 1.16.56.52.88 1.08 1.16 1.76.24.64.52 1.48.56 2.56.04 1.04 0 1.28 0 4zm-2-4c-.04-1-.04-1.52-.16-1.88-.2-.48-.4-.8-.76-1.16-.36-.36-.68-.6-1.16-.76-.36-.12-.96-.16-1.92-.2-1.08-.08-1.32 0-4 0-2.68 0-2.96-.04-4 0-1 .04-1.56.04-1.92.16-.48.2-.8.4-1.16.76-.36.36-.6.68-.76 1.16-.12.36-.12.96-.16 1.92-.08 1.08 0 1.32 0 4v4c.04 1 0 1.56.12 1.92.2.48.4.8.76 1.16.36.36.68.6 1.16.76.36.12 1 .12 1.96.16 1.08.08 1.32 0 4 0 2.68 0 2.96.04 4 0 1-.04 1.52-.04 1.88-.16.48-.2.8-.4 1.16-.76.36-.36.6-.68.76-1.16.12-.36.16-.96.2-1.92.04-1.08-.04-1.36 0-4 0-2.68.04-2.96 0-4zm-3 0c-.64 0-1-.32-1-1 0-.64.32-1 1-1 .68 0 1.04.36 1 1 0 .68-.32 1-1 1zm-5 9c-2.84 0-5-2.16-5-5s2.16-5 5-5 5 2.16 5 5-2.16 5-5 5zm0-8c-1.84 0-3 1.16-3 3s1.24 3 3 3 3-1.16 3-3-1.16-3-3-3z" fill="#AAA" fill-rule="evenodd"/></svg>