<?xml version="1.0" encoding="utf-8"?>
<!-- Generator: Adobe Illustrator 17.1.0, SVG Export Plug-In . SVG Version: 6.00 Build 0)  -->
<!DOCTYPE svg PUBLIC "-//W3C//DTD SVG 1.1//EN" "http://www.w3.org/Graphics/SVG/1.1/DTD/svg11.dtd">
<svg version="1.1" id="Layer_1" xmlns="http://www.w3.org/2000/svg" xmlns:xlink="http://www.w3.org/1999/xlink" x="0px" y="0px"
	 viewBox="0 0 331.8 37.2" enable-background="new 0 0 331.8 37.2" xml:space="preserve">
<path fill="#C52C8C" d="M143.9,18.1v10.2h3.7l1-1.5c3.8,1.7,5.8,2.2,9.1,2.2c7.1,0,11.6-3.5,11.6-9c0-2.6-1.2-5-3.2-6.4
	c-1.8-1.3-4.3-2.3-8.2-3c-4.6-1-4.6-1-5.5-1.6c-0.5-0.3-0.8-0.9-0.8-1.6c0-1.8,1.8-3,4.5-3c1.9,0,3.6,0.6,4.9,1.6
	c1.1,0.9,1.7,1.9,2.3,4.1h4.6V0.7h-3.9L163.3,2c-3.3-1.5-5.5-2-8.7-2c-7,0-11.4,3.6-11.4,9.1c0,2.6,1.2,5,3.2,6.2
	c1.6,0.9,4.3,1.9,8.2,3c4.1,1.1,4.4,1.2,5.2,2c0.4,0.4,0.6,1,0.6,1.6c0,1.7-1.6,2.9-4.1,2.9c-2,0-4.2-0.8-5.7-2.1
	c-1.2-1.1-1.9-2.1-2.8-4.6H143.9z"/>
<path fill="#C52C8C" d="M179.2,8.9H169v3.6h0.9c1.5,0,1.8,0.3,1.8,1.9v17c0,1.6-0.3,1.9-1.8,1.9H169v3.6h13.4v-3.6h-0.2
	c-2.1,0-2.5-0.3-2.5-1.9V26c1.9,2.1,3.5,2.9,5.9,2.9c5,0,8-4,8-10.4c0-6.6-2.9-10.2-8.1-10.2c-2.6,0-4.1,0.8-6.4,3.3V8.9z
	 M182.4,12.3c1.8,0,2.7,2,2.7,6.2c0,4.1-0.9,6.1-2.7,6.1c-1.8,0-2.7-1.8-2.7-5.9C179.7,14.4,180.6,12.3,182.4,12.3z"/>
<path fill="#C52C8C" d="M209.5,21.4c-0.2,1.1-0.5,1.7-0.9,2.2c-0.7,0.9-1.8,1.5-3.1,1.5c-1.3,0-2.5-0.6-3.2-1.6
	c-0.5-0.9-0.7-1.8-0.7-3.9h12.8c0-3.8-0.4-5.5-1.6-7.3c-1.7-2.7-4.7-4.1-8.6-4.1c-6.6,0-10.9,4.1-10.9,10.3c0,6.4,4.2,10.4,11,10.4
	c3.2,0,5.9-0.9,7.5-2.3c1.3-1.1,1.9-2.5,2.6-5.1H209.5z M201.7,16.1c0.1-1.6,0.2-2.3,0.6-3c0.5-0.8,1.4-1.3,2.4-1.3
	c0.9,0,1.8,0.5,2.3,1.2c0.5,0.7,0.6,1.4,0.6,3H201.7z"/>
<path fill="#C52C8C" d="M213.8,4.3h0.9c1.6,0,1.9,0.3,1.9,1.9v16.4c0,1.6-0.3,1.9-1.9,1.9h-0.8v3.6h12.5v-3.6
	c-1.6,0-1.9-0.4-1.9-1.8c0-0.1,0-0.5,0-0.8l2.8-2.1l1.6,2.5c0.6,0.9,0.8,1.4,0.8,1.7c0,0.4-0.2,0.5-1.4,0.5v3.6h12.5v-3.6
	c-1.8-0.1-2.4-0.4-3.2-1.5l-4.7-7.5l2.7-2.1c0.9-0.7,1.7-0.9,3.3-0.9V8.9h-11.6v3.6h0.5c0.9,0,1.2,0.2,1.2,0.6
	c0,0.2-0.2,0.6-0.6,0.9l-4.1,3.2V0.8h-10.7V4.3z"/>
<path fill="#C52C8C" d="M241.4,12.4v8.9c0,3.2,0.2,4,1.2,5.2c1.3,1.6,3.4,2.4,6.2,2.4c2.7,0,4.7-0.7,5.9-2.1c1-1.2,1.3-2.3,1.3-5.2
	v-2.6h-3.5v1.8c0,3.3-0.4,4.3-1.6,4.3c-1.1,0-1.4-0.7-1.4-2.8v-9.9h5.7V8.9h-5.7V1.4h-4.8c-1,5.7-2.4,7.4-5.9,7.5v3.5H241.4z"/>
<path fill="#C52C8C" d="M280.6,20.4h-2.7v2.3c0,1-0.2,1.2-0.9,1.2c-0.6,0-0.8-0.3-0.8-1.2v-7.4c0-2.8-0.4-4-1.5-5
	c-1.4-1.3-4.6-2.1-8.4-2.1c-6,0-9.7,2-9.7,5.3c0,2.1,1.5,3.4,3.9,3.4c2.2,0,3.6-1.1,3.6-2.9c0-1.3-0.6-2-2.1-2.5
	c1.1-0.5,1.6-0.7,2.6-0.7c2.2,0,3.6,1.3,3.6,3.2c0,2.2-1.2,3-5.3,3.5c-5.2,0.7-7.1,2.3-7.1,5.9c0,3.4,2.4,5.3,6.4,5.3
	c1.6,0,3.3-0.3,4.6-0.9c0.9-0.4,1.4-0.7,2.3-1.8c1.5,2.1,2.9,2.7,5.6,2.7c2.1,0,3.7-0.6,4.7-1.6c0.9-0.9,1.2-2,1.2-4.3V20.4z
	 M268.4,21.7c0,1.8-0.9,2.9-2.5,2.9c-1.2,0-2.1-0.8-2.1-1.9c0-0.7,0.5-1.4,1.3-1.8l1.7-0.8c0.2-0.1,0.9-0.5,1.6-0.9L268.4,21.7z"/>
<path fill="#C52C8C" d="M279.7,4.3h0.9c1.6,0,1.9,0.3,1.9,1.9v16.4c0,1.6-0.3,1.9-1.9,1.9h-0.8v3.6h12.5v-3.6
	c-1.6,0-1.9-0.4-1.9-1.8c0-0.1,0-0.5,0-0.8l2.8-2.1l1.6,2.5c0.6,0.9,0.8,1.4,0.8,1.7c0,0.4-0.2,0.5-1.4,0.5v3.6h12.5v-3.6
	c-1.8-0.1-2.4-0.4-3.2-1.5l-4.7-7.5l2.7-2.1c0.9-0.7,1.7-0.9,3.3-0.9V8.9h-11.6v3.6h0.5c0.9,0,1.2,0.2,1.2,0.6
	c0,0.2-0.2,0.6-0.6,0.9l-4.1,3.2V0.8h-10.7V4.3z"/>
<path fill="#C52C8C" d="M316.4,0.8h-10.8v3.6h0.9c1.6,0,1.9,0.3,1.9,1.9v16.4c0,1.6-0.3,1.9-1.9,1.9h-0.9v3.6H319v-3.6h-0.7
	c-1.6,0-1.8-0.3-1.9-1.9V0.8z"/>
<path fill="#C52C8C" d="M331.8,24.6h-0.7c-1.6,0-1.8-0.3-1.9-1.9V8.9h-10.7v3.6h0.8c1.6,0,1.9,0.3,1.9,1.9v8.2
	c0,1.6-0.3,1.9-1.9,1.9h-0.8v3.6h13.3V24.6z M324.6,0c-2,0-3.6,1.6-3.6,3.6c0,2.1,1.6,3.7,3.6,3.7c2.1,0,3.7-1.6,3.7-3.7
	C328.3,1.6,326.6,0,324.6,0z"/>
<path fill-rule="evenodd" clip-rule="evenodd" fill="#8F99A2" d="M33,25.3v3h9v-3h-1c-0.7,0-0.5-0.8-0.7-1c-0.2-0.2-0.3-1.2-0.3-2
	v-14h-9v4l0.4-0.2c0.7,0,1.2,0.1,1.4,0.3c0.2,0.2,0.2,1.1,0.2,1.9v6c0,1.2-0.1,2-0.6,2.7c-0.5,0.7-1.1,1-2,1c-0.8,0-1.3-0.2-1.7-0.8
	c-0.4-0.6-0.7-1.9-0.7-3v-12h-9v4l0.3-0.2c0.7,0,1.2,0.1,1.4,0.3c0.2,0.2,0.3,0.8,0.3,1.5v7.3c0,2.6,0.4,4.4,1.3,5.5
	c0.9,1.1,2.4,1.6,4.6,1.6c1.3,0,2.5-0.3,3.6-0.9c1.1-0.6,2-1.5,2.8-2.6L33,25.3z"/>
<path fill-rule="evenodd" clip-rule="evenodd" fill="#8F99A2" d="M43,12.3v8c0,1.6,0.4,3.1,0.5,3.8c0.2,0.6,0.4,1.3,0.8,1.7
	c0.6,0.8,1.3,1.4,2.3,1.8c0.9,0.4,2.1,0.7,3.4,0.7c2.3,0,4-0.6,5-1.7c1-1.1,1-2.7,1-5.3v-3h-3l0,0c0,1.7-0.2,4.7-0.4,5.3
	c-0.2,0.6-0.6,0.9-1.1,0.9c-0.4,0-0.8-0.2-1-0.5c-0.2-0.4-0.5-0.9-0.5-1.7v-10h5v-4h-5v-7h-4c-0.4,2.6-0.8,4.3-1.6,5.4
	c-0.8,1.2-1.9,1.6-3.4,1.6l0,0l0,3.6L43,12.3L43,12.3z"/>
<path fill-rule="evenodd" clip-rule="evenodd" fill="#8F99A2" d="M68,18.3v3l0,0c0,1-0.2,1.8-0.7,2.4c-0.5,0.6-1.2,0.9-2,0.9
	c-0.7,0-1.2-0.2-1.7-0.7c-0.4-0.4-0.5-0.9-0.5-1.6c0-0.9,0.9-1.9,2.8-3c0.8-0.5,1.5-0.8,2.1-1.2L68,18.3z M68.8,25.5
	c0.1,0.6,2,2.7,5.2,2.7c2,0,3-0.5,3.8-1.4c0.9-0.9,1.2-2.5,1.2-4.6v-2h-2v2c0,0.5-0.4,0.7-0.5,0.9c-0.1,0.1-0.3,0.2-0.6,0.2
	c-0.3,0-0.5-0.1-0.6-0.2C75.2,23,75,22.8,75,22.3v-7c0-1.6,0.1-3.2-0.2-4c-0.3-0.7-0.8-1.4-1.6-1.9c-0.6-0.5-2.9-1.7-5.8-1.7
	c-2.7,0-5.8,0.7-7.4,1.7c-1.5,0.9-2.4,2.3-2.4,4c0,1.1,0.3,1.8,0.9,2.4c0.6,0.6,1.5,0.9,2.7,0.9c1,0,1.7-0.2,2.3-0.7
	c0.6-0.5,0.9-1.2,0.9-2c0-0.7-0.2-1.2-0.5-1.6c-0.3-0.4-0.8-0.7-1.4-1c0.4-0.2,0.7-0.6,1.1-0.7c0.3-0.1,0.7-0.2,1-0.2
	c1,0,1.9,0.3,2.5,0.9c0.6,0.6,0.9,1.5,0.9,2.5c0,1-0.3,1.7-0.8,2.2c-0.5,0.5-1.6,0.9-3.7,1.3c-2.5,0.5-3.8,1.1-4.7,2
	C57.9,20,57,20.6,57,22.3c0,1.7,0.6,3.6,1.6,4.6c1,1,2.7,1.4,4.4,1.4c1.4,0,2.4-0.3,3.5-0.7C67.5,27.1,68.2,26.4,68.8,25.5
	L68.8,25.5z"/>
<path fill-rule="evenodd" clip-rule="evenodd" fill="#8F99A2" d="M88.2,9.5L88,8.3H78v4h1c0.7,0,1.2,0,1.4,0.2
	c0.2,0.2,0.6,1,0.6,1.8v9c0,0.8-0.4,0.8-0.6,1.1c-0.2,0.2-0.7,0.4-1.4,0.4l-1,0.6v3h14v-3h-2c-0.7,0-0.8,0.2-1,0c-0.2-0.2-1-1.2-1-2
	v-7c0-1.7,0.7-2.8,1.3-3.8c0.6-1,1.3-1.5,2.3-1.5c0.1,0,0.3,0,0.4,0c0.1,0,0.3,0,0.4,0.1c-0.5,0.3-0.9,0.7-1.2,1.1
	c-0.3,0.4-0.4,0.9-0.4,1.5c0,0.9,0.3,1.5,0.8,2.1c0.5,0.5,1.6,0.5,2.4,0.5c1,0,1.4,0,2-0.8c0.7-0.7,1-1.7,1-2.9
	c0-1.5-0.4-2.6-1.2-3.4C95,8.3,94,7.9,92.7,7.9c-0.8,0-1.7,0.2-2.4,0.6C89.5,9,88.8,8.6,88.2,9.5L88.2,9.5z"/>
<path fill-rule="evenodd" clip-rule="evenodd" fill="#8F99A2" d="M118,22.3v-7c0-2.6-0.3-4.5-1.3-5.5c-0.9-1.1-2.5-1.5-4.7-1.5
	c-1.3,0-2.4,0.2-3.5,0.8c-1.1,0.6-1.7,1.1-2.5,2.2v-3h-9v4l0.8,0c0.7,0,0.9,0.1,1.1,0.3c0.2,0.2,0.1,1.9,0.1,2.7v8
	c0,0.8,0.1,1-0.1,1.2c-0.2,0.2-0.7,0.4-1.4,0.4L96,25.3v3h12l-0.2-3.4h-0.3c-0.7,0-1-0.1-1.3-0.4c-0.2-0.2-0.2-0.5-0.2-1.2v-7
	c0-1.2,0.1-2.4,0.6-3.1c0.5-0.7,1.1-1,2-1c0.8,0,1.4,0.2,1.8,0.8c0.4,0.5,0.6,1.2,0.6,2.3v8c0,0.8-0.2,1-0.3,1.2
	c-0.2,0.2-0.6,0.4-1.3,0.4H109l0,3.4h11v-3l-0.3-0.4c-0.7,0-1.1-0.1-1.3-0.4c-0.2-0.2-0.4-0.5-0.4-1.2V22.3z"/>
<path fill-rule="evenodd" clip-rule="evenodd" fill="#8F99A2" d="M129,28.3v-20h-10v4l0.7,0c0.7,0,1.1-0.2,1.3,0c0.2,0.2,1,1.2,1,2
	v18c0,0.6-0.8,1.7-1,2c-0.2,0.3-0.4-0.1-0.8-0.1c-0.1,0-0.3,0-0.4-0.1c-0.1,0-0.3-0.1-0.6-0.2c0.3-0.3,0.6-0.6,0.7-0.9
	c0.2-0.3,0.2-0.7,0.2-1.1c0-0.8-0.3-1.5-0.8-1.9c-0.5-0.5-1.2-0.7-2.1-0.7c-1,0-1.7,0.3-2.3,0.9c-0.6,0.6-0.9,1.4-0.9,2.4
	c0,1.5,0.6,2.7,1.7,3.4c1.1,0.8,1.8,1.2,3.9,1.2c1.6,0,4-0.2,5-0.6c1.1-0.4,2-1,2.6-1.7c0.4-0.5,0.7-1.2,0.9-1.9
	c0.2-0.7,0.7-2.2,0.7-3.7V28.3L129,28.3z"/>
<path fill-rule="evenodd" clip-rule="evenodd" fill="#8F99A2" d="M140,8.3h-10l0,4l0.3,0.1c0.7,0,2.2,0.1,2.4,0.3
	c0.2,0.2,0.3,0.8,0.3,1.5v7.8c0,0.8-0.1,2.3-0.3,2.5c-0.2,0.2-1.7,0.4-2.4,0.4l-0.3,0.3l0,3h10V8.3L140,8.3z"/>
<path fill-rule="evenodd" clip-rule="evenodd" fill="#8F99A2" d="M11,6.3v12c0,2.5-0.6,3.7-1.1,4.6c-0.5,0.8-1.4,1.2-2.8,1.2
	c-0.7,0-1.3-0.1-1.7-0.5c-0.5-0.3-0.9-0.8-1.2-1.5c0.2,0,0.4,0.1,0.6,0.1c0.1,0,0.3,0,0.5,0c0.9,0,1.7-0.3,2.2-1
	c0.6-0.7,0.9-1.5,0.9-2.6c0-1.2-0.3-2-1-2.7c-0.6-0.7-1.5-1-2.6-1c-1.4,0-2.6,0.5-3.5,1.6c-0.9,1-1.3,2.4-1.3,4.1
	c0,2.3,0.8,4.1,2.5,5.5c1.7,1.5,3.8,2.2,6.5,2.2c1.7,0,3.2-0.2,4.5-0.7c1.3-0.4,1.3-1.1,2.2-1.9c0.7-0.7,1.3-1.6,1.6-2.7
	c0.3-1.1,0.7-2.7,0.7-4.7v-12l0,0c0-1-0.1-1.6,0.1-1.8c0.3-0.2,1-0.2,1.9-0.2h1v-4H7v4h2c0.9,0,1.1,0.1,1.4,0.3
	C10.6,4.8,11,5.2,11,6.3L11,6.3z"/>
<path fill-rule="evenodd" clip-rule="evenodd" fill="#8F99A2" d="M140,11.7c-0.2,0.2,0,0.8,0,1.6v9c0,0.8-0.2,2.1,0,2.3
	c0.2,0.2,1.7,0.4,2.3,0.4l0.7,0.3v3h-10v-20l0,0"/>
<path fill-rule="evenodd" clip-rule="evenodd" fill="#8F99A2" d="M124.5,0.3c1.9,0,3.5,1.6,3.5,3.5c0,1.9-1.6,3.5-3.5,3.5
	c-1.9,0-3.5-1.6-3.5-3.5C121,1.8,122.6,0.3,124.5,0.3z"/>
<path fill-rule="evenodd" clip-rule="evenodd" fill="#8F99A2" d="M135.5,0.3c1.9,0,3.5,1.6,3.5,3.5c0,1.9-1.6,3.5-3.5,3.5
	c-1.9,0-3.5-1.6-3.5-3.5C132,1.8,133.6,0.3,135.5,0.3z"/>
</svg>
