<?xml version="1.0" encoding="utf-8"?>
<!-- Generator: Adobe Illustrator 17.1.0, SVG Export Plug-In . SVG Version: 6.00 Build 0)  -->
<!DOCTYPE svg PUBLIC "-//W3C//DTD SVG 1.1//EN" "http://www.w3.org/Graphics/SVG/1.1/DTD/svg11.dtd">
<svg version="1.1" id="Layer_1" xmlns="http://www.w3.org/2000/svg" xmlns:xlink="http://www.w3.org/1999/xlink" x="0px" y="0px"
	 viewBox="0 0 380 66.2" enable-background="new 0 0 380 66.2" xml:space="preserve">
<path fill="#003169" d="M21.8,32.3c0,4-0.6,6.8-1.8,8.5c-1.2,1.7-3.2,2.5-6,2.5c-1.6,0-3.1-0.3-4.3-1c-1.3-0.7-2.4-1.7-3.3-3
	c0.5,0.1,1,0.3,1.5,0.3c0.5,0.1,1,0.1,1.4,0.1c1.8,0,3.3-0.5,4.3-1.6c1.1-1,1.6-2.5,1.6-4.3c0-2-0.7-3.6-2-4.9
	c-1.4-1.3-3.1-1.9-5.2-1.9c-2.4,0-4.3,0.8-5.8,2.5C0.7,31.2,0,33.4,0,36.1c0,4.3,1.6,7.7,4.8,10.4c3.2,2.7,7.5,4,12.8,4
	c6.3,0,11-1.5,13.9-4.4c3-2.9,4.4-7.5,4.4-13.8V10.8c0-1.9,0.3-3.1,0.8-3.6c0.6-0.5,1.8-0.7,3.8-0.7h2.7V0H14.1v6.5h3.1
	c2,0,3.2,0.2,3.8,0.7c0.6,0.5,0.8,1.7,0.8,3.6V32.3z"/>
<path fill="#003169" d="M61.8,15v6h0.8c1.4,0,2.4,0.2,2.8,0.7c0.4,0.4,0.7,1.4,0.7,2.8v11.3c0,2.8-0.5,4.9-1.5,6.3
	C63.5,43.3,62,44,60,44c-1.7,0-3-0.5-3.8-1.5c-0.8-1-1.3-2.6-1.3-4.6V15H37.4v6h1.7c1.4,0,2.4,0.2,2.8,0.7c0.4,0.4,0.7,1.4,0.7,2.8
	v13.4c0,4.7,0.9,8.1,2.7,10c1.8,1.9,4.8,2.9,9.1,2.9c2.5,0,4.8-0.5,6.9-1.6c2.1-1.1,3.9-2.7,5.4-4.8v5.4h17.3v-6h-2.1
	c-1.4,0-2.4-0.2-2.8-0.7c-0.5-0.4-0.7-1.4-0.7-2.8V15H61.8z"/>
<path fill="#003169" d="M85.1,37.1c0,5,0.9,8.5,2.7,10.6c1.8,2,4.9,3.1,9.2,3.1c4.1,0,7.2-1,9.2-3.1c2-2.1,3-5.2,3-9.5v-5.1h-6v3.2
	c0,3.2-0.2,5.2-0.7,6.2c-0.4,1-1.3,1.5-2.4,1.5c-0.9,0-1.6-0.3-2.1-1c-0.5-0.7-0.7-1.7-0.7-3.1v-19h9V15h-9V0.9h-7.3
	c-0.3,4.2-1.3,8.2-3,10.5c-1.7,2.4-3.9,3.7-6.8,4v5.4h5V37.1z"/>
<path fill="#003169" d="M132.6,37.2c0,1.9-0.5,3.3-1.4,4.4c-0.9,1-2.2,1.6-3.8,1.6c-1.3,0-2.4-0.4-3.2-1.1c-0.8-0.7-1.2-1.7-1.2-2.9
	c0-1.6,1.9-3.4,5.8-5.3c1.6-0.8,2.9-1.4,3.8-1.9V37.2z M136.8,49.3c1.5,0.9,3.4,1.4,5.7,1.4c3.5,0,6.1-0.9,7.8-2.6
	c1.6-1.7,2.5-4.5,2.5-8.2v-3.4h-4.4v3c0,1.2-0.1,2.1-0.4,2.6c-0.3,0.5-0.8,0.8-1.4,0.8s-1.2-0.3-1.5-0.8c-0.3-0.5-0.5-1.4-0.5-2.5
	V26v-1c0-2.8-0.3-4.8-0.8-6c-0.6-1.2-1.5-2.3-2.9-3.2c-1.2-0.8-2.9-1.5-5-1.9c-2.1-0.5-4.5-0.7-7.1-0.7c-5.3,0-9.4,0.8-12.4,2.5
	c-3,1.7-4.4,4-4.4,7c0,1.7,0.6,3,1.8,4c1.2,1,2.7,1.6,4.6,1.6c1.7,0,3.1-0.5,4.2-1.4c1.1-0.9,1.6-2.1,1.6-3.5c0-1.1-0.4-2.1-1.2-2.9
	c-0.8-0.8-1.8-1.2-3.1-1.3c0.7-0.5,1.5-0.9,2.4-1.1c0.9-0.2,2-0.3,3.2-0.3c2.3,0,4.1,0.5,5.5,1.5c1.3,1,2,2.4,2,4.1
	c0,1.8-0.6,3.1-1.7,4c-1.1,0.9-3.9,1.8-8.2,2.8c-5.2,1.1-8.6,2.4-10.2,3.9c-1.6,1.5-2.5,3.7-2.5,6.5c0,3,1,5.5,3,7.3
	c2,1.8,4.7,2.7,8.2,2.7c2.5,0,4.8-0.4,6.8-1.3c2-0.9,3.8-2.3,5.4-4.1C134.2,47,135.3,48.3,136.8,49.3"/>
<path fill="#003169" d="M230.1,15v6.1h2.2c1.4,0,2.3,0.2,2.8,0.7c0.4,0.5,0.7,1.7,0.7,3.7v30.1c0,2.4-0.2,3.9-0.6,4.6
	c-0.4,0.7-1.1,1.1-2.2,1.1c-0.3,0-0.7,0-1.1-0.1c-0.4-0.1-0.9-0.2-1.5-0.5c0.8-0.5,1.3-1.1,1.7-1.7c0.4-0.6,0.5-1.2,0.5-1.9
	c0-1.3-0.5-2.4-1.4-3.4c-0.9-0.9-2.1-1.4-3.4-1.4c-1.6,0-3,0.5-4.1,1.6c-1.1,1.1-1.6,2.4-1.6,4.1c0,2.3,1,4.3,3.1,5.8
	c2.1,1.5,4.8,2.3,8.2,2.3c3.1,0,5.6-0.4,7.6-1.1c2-0.8,3.6-1.9,4.8-3.5c0.8-1,1.3-2.2,1.7-3.4c0.3-1.2,0.5-3,0.5-5.3V15H230.1z
	 M237,11.1c1.2,1.2,2.6,1.8,4.4,1.8c1.7,0,3.2-0.6,4.4-1.8c1.2-1.2,1.8-2.6,1.8-4.4c0-1.7-0.6-3.1-1.8-4.3c-1.2-1.2-2.6-1.8-4.4-1.8
	c-1.7,0-3.1,0.6-4.3,1.8c-1.2,1.2-1.8,2.6-1.8,4.3C235.2,8.5,235.8,10,237,11.1"/>
<path fill="#003169" d="M256.2,11.1c1.2,1.2,2.7,1.8,4.5,1.8c1.7,0,3.2-0.6,4.4-1.8c1.2-1.2,1.8-2.7,1.8-4.4c0-1.7-0.6-3.2-1.8-4.4
	c-1.2-1.2-2.7-1.8-4.4-1.8c-1.7,0-3.2,0.6-4.4,1.8c-1.2,1.2-1.8,2.7-1.8,4.4C254.4,8.4,255,9.9,256.2,11.1 M255.1,41.1
	c0,1.5-0.2,2.6-0.6,3.1c-0.5,0.4-1.4,0.6-2.9,0.6h-2.3l0,5.9h23.8l0-5.9h-1.9c-1.4,0-2.3-0.2-2.7-0.6c-0.4-0.4-0.7-1.6-0.7-3.1v-26
	h-18.6v6.3h2.4c1.4,0,2.3,0.2,2.7,0.6c0.4,0.4,0.6,1.5,0.6,3.4v0.4V41.1z"/>
<path fill="#003169" d="M209.5,50.7v-6.1h-0.7c-1.4,0-2.4-0.2-2.8-0.7c-0.4-0.5-0.7-1.4-0.7-2.9V29c0-2.6,0.5-4.6,1.6-6
	c1-1.4,2.5-2.1,4.4-2.1c1.7,0,3,0.5,3.9,1.6c0.9,1.1,1.3,2.7,1.3,4.8v13.8c0,1.5-0.2,2.4-0.7,2.9c-0.5,0.5-1.4,0.7-2.8,0.7h-0.8v6.1
	h21.8v-6.1h-1.7c-1.4,0-2.4-0.2-2.8-0.7c-0.4-0.5-0.7-1.4-0.7-2.9V27.3c0-4.9-0.9-8.3-2.6-10.3c-1.8-2-4.8-2.9-9-2.9
	c-2.6,0-4.9,0.5-7,1.6c-2.1,1.1-3.9,2.7-5.4,4.8v-5.5h-17.2v6.1h2c1.4,0,2.4,0.2,2.8,0.7c0.5,0.5,0.7,1.4,0.7,2.9v16.3
	c0,1.5-0.2,2.4-0.7,2.9c-0.5,0.5-1.4,0.7-2.8,0.7h-2v6.1H209.5z"/>
<path fill="#003169" d="M176.7,50.6v-6.1h-3c-1.4,0-2.4-0.2-2.8-0.7c-0.4-0.5-0.7-1.4-0.7-2.8V29.7c0-3.2,0.6-5.7,1.8-7.7
	c1.2-2,2.7-3,4.5-3c0.3,0,0.6,0,0.9,0.1c0.3,0.1,0.7,0.2,1.2,0.5c-1.2,0.3-2,0.9-2.7,1.7c-0.6,0.8-0.9,1.7-0.9,2.9
	c0,1.5,0.5,2.8,1.5,3.8c1,1,2.3,1.5,3.9,1.5c2,0,3.6-0.7,4.8-2c1.2-1.3,1.8-3.1,1.8-5.2c0-2.5-0.8-4.5-2.3-6
	c-1.5-1.5-3.6-2.2-6.2-2.2c-1.6,0-3.2,0.4-4.7,1.2c-1.5,0.8-2.9,1.9-4.2,3.4v-3.6h-17.5v6.1h2.2c1.4,0,2.4,0.2,2.8,0.7
	c0.5,0.5,0.7,1.4,0.7,2.8V41c0,1.4-0.2,2.4-0.7,2.8c-0.5,0.5-1.4,0.7-2.8,0.7h-2.2v6.1H176.7z"/>
<g>
	<path fill="#D70E22" d="M296.1,35.8c-0.1,2-0.3,3.3-0.6,4.7c-0.3,1.2-0.7,2.1-1.2,2.8c-0.4,0.5-0.9,0.9-1.6,1.1
		c-0.7,0.2-2,0.3-3.8,0.3h-1.7V23c0-1.6,0.2-2,0.4-2.1c0.2-0.2,0.6-0.3,1.7-0.3h2V15h-18.2v5.5h1.8c1.2,0,1.6,0.2,1.8,0.4
		c0.1,0.1,0.4,0.6,0.4,2.3v18.8c0,1.7-0.2,2.2-0.4,2.3c-0.2,0.2-0.6,0.4-1.8,0.4h-1.8v5.9h28.1V35.5h-5.1L296.1,35.8z"/>
	<path fill="#D70E22" d="M302.5,20.6h1.7c1.2,0,1.6,0.2,1.8,0.4c0.1,0.2,0.4,0.7,0.4,2.3v18.9c0,1.6-0.2,2.1-0.4,2.3
		c-0.2,0.2-0.6,0.4-1.8,0.4h-1.7v5.9h18v-5.9h-1.7c-1.2,0-1.6-0.2-1.8-0.4c-0.1-0.2-0.4-0.7-0.4-2.3V23.2c0-1.6,0.2-2.1,0.4-2.3
		c0.1-0.1,0.5-0.4,1.8-0.4h1.7v-5.5h-18V20.6z"/>
	<path fill="#D70E22" d="M336.6,27.5c-0.4-0.1-1-0.3-1.8-0.5c-2.9-0.7-4.4-1.8-4.4-3.2c0-0.9,0.4-1.7,1.1-2.4c0.8-0.7,1.7-1,2.9-1
		c2.1,0,3.7,0.6,4.9,1.7c1.2,1.2,2.1,2.9,2.5,5.3l0,0.2h5.3V15.1h-4.5l-0.7,1.6c-1.3-0.8-2.8-1.4-4.2-1.8c-1.5-0.4-3.2-0.6-5-0.6
		c-3.5,0-6.4,1.1-8.5,3.3c-2.1,2.2-3.2,5.1-3.2,8.6c0,1.6,0.3,3.1,0.8,4.4c0.6,1.3,1.4,2.5,2.6,3.6c0.5,0.5,1.3,1,2.4,1.5
		c1.1,0.5,2.6,1.2,4.6,1.9c0.6,0.2,1.4,0.5,2.5,0.9c3.2,1.1,4.8,2.4,4.8,3.9c0,1-0.3,1.8-1,2.4c-0.7,0.6-1.7,0.9-2.9,0.9
		c-2,0-3.8-0.7-5.3-2.2c-1.5-1.5-2.6-3.5-3.2-6.1l-0.1-0.2h-4.6v13.5h4.3l1-1.8c1.4,0.9,2.9,1.5,4.4,2c1.6,0.5,3.2,0.7,4.9,0.7
		c3.7,0,6.7-1.1,8.9-3.2c2.2-2.1,3.3-5,3.3-8.6c0-3.2-0.9-5.8-2.7-7.6C344.1,30.3,341,28.7,336.6,27.5z"/>
	<path fill="#D70E22" d="M348.6,14.9v12.7h4.9v-0.4c0-2.4,0.4-3.1,1.2-4.4c0.8-1.2,1.9-1.8,3.4-1.8h1v20.9c0,1.8-0.3,2.3-0.4,2.4
		c-0.2,0.2-0.6,0.3-1.7,0.3h-2.6v5.9h19.8v-5.9h-2.7c-1.2,0-1.6-0.2-1.8-0.4c-0.1-0.2-0.4-0.7-0.4-2.3V21h1c1.5,0,2.7,0.6,3.5,1.8
		c0.8,1.3,1.2,2,1.2,4.4v0.4h4.9V14.9H348.6z"/>
</g>
</svg>
