<?xml version="1.0" encoding="utf-8"?>
<!-- Generator: Adobe Illustrator 20.1.0, SVG Export Plug-In . SVG Version: 6.00 Build 0)  -->
<svg version="1.1" id="Layer_1" xmlns="http://www.w3.org/2000/svg" xmlns:xlink="http://www.w3.org/1999/xlink" x="0px" y="0px"
	 viewBox="0 0 16 20" style="enable-background:new 0 0 16 20;" xml:space="preserve">
<style type="text/css">
	.st0{fill-rule:evenodd;clip-rule:evenodd;fill:#999999;}
</style>
<path class="st0" d="M9,3.9V13c0,1.8-0.7,2.5-1,3.1C7.6,16.7,6.2,17,5.2,17c-0.5,0-0.9-0.1-1.3-0.3c-0.3-0.2-0.6-0.6-0.9-1.1
	c0.2,0,0.3,0.1,0.4,0.1c0.1,0,0.2,0,0.3,0c0.7,0,1.2-0.2,1.6-0.7C5.9,14.5,6,13.8,6,13c0-0.8-0.1-1.4-0.6-1.9
	c-0.4-0.5-1-0.8-1.8-0.8c-1,0-2,0.4-2.6,1.2c-0.7,0.7-1,1.5-1,2.7c0,1.6,0.6,3.1,1.9,4.1C3.1,19.5,5,20,7,20c1.3,0,2.6-0.2,3.5-0.5
	c0.8-0.5,1-0.7,1.7-1.3c0.5-0.5,0.9-1.3,1.2-2c0.2-0.8,0.7-1.8,0.7-3.2V4l0,0c0-0.7,0.4-0.9,0.6-1c0.2-0.1-0.2,0,0.4,0h1V0H6v3h1
	c0.6,0,1.1-0.1,1.3,0.1C8.4,3.2,9,3.2,9,3.9L9,3.9z"/>
</svg>
