<?xml version="1.0" encoding="utf-8"?>
<svg id="Layer_1" x="0px" y="0px" viewBox="0 0 16 16" xmlns="http://www.w3.org/2000/svg">
  <path fill-rule="evenodd" clip-rule="evenodd" d="M15.7,14.3l-3.1-3.1c0,0,0,0,0,0C13.5,10,14,8.6,14,7&#10;&#9;c0-3.9-3.1-7-7-7S0,3.1,0,7s3.1,7,7,7c1.6,0,3-0.5,4.2-1.4c0,0,0,0,0,0l3.1,3.1c0.2,0.2,0.5,0.3,0.7,0.3s0.5-0.1,0.7-0.3&#10;&#9;C16.1,15.3,16.1,14.7,15.7,14.3z M7,12c-2.8,0-5-2.2-5-5c0-2.8,2.2-5,5-5c2.8,0,5,2.2,5,5C12,9.8,9.8,12,7,12z" style="fill: rgb(255, 255, 255);"/>
</svg>